Play-Regular.ufo
<glyph name="exclam" format="2">
  <advance width="280"/>
  <unicode hex="0021"/>
  <outline>
    <contour>
      <point x="115" y="179" type="line"/>
      <point x="165" y="179" type="line"/>
      <point x="200" y="649" type="line"/>
      <point x="80" y="649" type="line"/>
    </contour>
    <contour>
      <point x="82" y="0" type="line"/>
      <point x="198" y="0" type="line"/>
      <point x="198" y="108" type="line"/>
      <point x="82" y="108" type="line"/>
    </contour>
  </outline>
</glyph>
<glyph name="quotedbl" format="2">
  <advance width="443"/>
  <unicode hex="0022"/>
  <outline>
    <contour>
      <point x="272" y="429" type="line"/>
      <point x="358" y="429" type="line"/>
      <point x="358" y="649" type="line"/>
      <point x="272" y="649" type="line"/>
    </contour>
    <contour>
      <point x="85" y="429" type="line"/>
      <point x="171" y="429" type="line"/>
      <point x="171" y="649" type="line"/>
      <point x="85" y="649" type="line"/>
    </contour>
  </outline>
</glyph>
<glyph name="numbersign" format="2">
  <advance width="580"/>
  <unicode hex="0023"/>
  <outline>
    <contour>
      <point x="119" y="0" type="line"/>
      <point x="185" y="0" type="line"/>
      <point x="224" y="199" type="line"/>
      <point x="308" y="199" type="line"/>
      <point x="269" y="0" type="line"/>
      <point x="335" y="0" type="line"/>
      <point x="374" y="199" type="line"/>
      <point x="520" y="199" type="line"/>
      <point x="520" y="261" type="line"/>
      <point x="386" y="261" type="line"/>
      <point x="411" y="388" type="line"/>
      <point x="520" y="388" type="line"/>
      <point x="520" y="450" type="line"/>
      <point x="424" y="450" type="line"/>
      <point x="461" y="639" type="line"/>
      <point x="395" y="639" type="line"/>
      <point x="358" y="450" type="line"/>
      <point x="274" y="450" type="line"/>
      <point x="311" y="639" type="line"/>
      <point x="245" y="639" type="line"/>
      <point x="208" y="450" type="line"/>
      <point x="60" y="450" type="line"/>
      <point x="60" y="388" type="line"/>
      <point x="196" y="388" type="line"/>
      <point x="170" y="261" type="line"/>
      <point x="60" y="261" type="line"/>
      <point x="60" y="199" type="line"/>
      <point x="158" y="199" type="line"/>
    </contour>
    <contour>
      <point x="236" y="261" type="line"/>
      <point x="261" y="388" type="line"/>
      <point x="346" y="388" type="line"/>
      <point x="320" y="261" type="line"/>
    </contour>
  </outline>
</glyph>
<glyph name="dollar" format="2">
  <advance width="580"/>
  <unicode hex="0024"/>
  <outline>
    <contour>
      <point x="264" y="-140" type="line"/>
      <point x="321" y="-140" type="line"/>
      <point x="321" y="-8" type="line"/>
      <point x="457" y="0"/>
      <point x="524" y="49"/>
      <point x="524" y="173" type="curve" smooth="yes"/>
      <point x="524" y="210" type="line" smooth="yes"/>
      <point x="524" y="315"/>
      <point x="486" y="362"/>
      <point x="351" y="362" type="curve" smooth="yes"/>
      <point x="321" y="362" type="line"/>
      <point x="321" y="572" type="line"/>
      <point x="346" y="571"/>
      <point x="400" y="566"/>
      <point x="482" y="557" type="curve"/>
      <point x="482" y="628" type="line"/>
      <point x="419" y="635"/>
      <point x="365" y="639"/>
      <point x="321" y="639" type="curve"/>
      <point x="321" y="709" type="line"/>
      <point x="264" y="709" type="line"/>
      <point x="264" y="638" type="line"/>
      <point x="111" y="630"/>
      <point x="60" y="581"/>
      <point x="60" y="488" type="curve" smooth="yes"/>
      <point x="60" y="446" type="line" smooth="yes"/>
      <point x="60" y="343"/>
      <point x="104" y="290"/>
      <point x="235" y="290" type="curve" smooth="yes"/>
      <point x="264" y="290" type="line"/>
      <point x="264" y="62" type="line"/>
      <point x="244" y="62"/>
      <point x="224" y="63"/>
      <point x="203" y="65" type="curve" smooth="yes"/>
      <point x="161" y="69"/>
      <point x="156" y="69"/>
      <point x="109" y="78" type="curve" smooth="yes"/>
      <point x="86" y="83"/>
      <point x="74" y="85"/>
      <point x="73" y="85" type="curve"/>
      <point x="73" y="6" type="line"/>
      <point x="152" y="-5"/>
      <point x="215" y="-10"/>
      <point x="264" y="-10" type="curve"/>
    </contour>
    <contour>
      <point x="321" y="64" type="curve"/>
      <point x="321" y="290" type="line"/>
      <point x="402" y="290"/>
      <point x="429" y="269"/>
      <point x="429" y="214" type="curve" smooth="yes"/>
      <point x="429" y="140" type="line" smooth="yes"/>
      <point x="429" y="88"/>
      <point x="390" y="68"/>
    </contour>
    <contour>
      <point x="264" y="362" type="line"/>
      <point x="183" y="362"/>
      <point x="154" y="382"/>
      <point x="154" y="427" type="curve" smooth="yes"/>
      <point x="154" y="491" type="line" smooth="yes"/>
      <point x="154" y="543"/>
      <point x="176" y="566"/>
      <point x="264" y="571" type="curve"/>
    </contour>
  </outline>
</glyph>
<glyph name="percent" format="2">
  <advance width="855"/>
  <unicode hex="0025"/>
  <outline>
    <contour>
      <point x="231" y="-10" type="line"/>
      <point x="308" y="-10" type="line"/>
      <point x="632" y="660" type="line"/>
      <point x="555" y="660" type="line"/>
    </contour>
    <contour>
      <point x="204" y="313" type="curve" smooth="yes"/>
      <point x="252" y="313"/>
      <point x="279" y="316"/>
      <point x="312" y="328" type="curve" smooth="yes"/>
      <point x="344" y="340"/>
      <point x="361" y="368"/>
      <point x="361" y="412" type="curve" smooth="yes"/>
      <point x="361" y="537" type="line"/>
      <point x="361" y="626"/>
      <point x="301" y="649"/>
      <point x="204" y="649" type="curve" smooth="yes"/>
      <point x="107" y="649"/>
      <point x="46" y="626"/>
      <point x="46" y="537" type="curve" smooth="yes"/>
      <point x="46" y="412" type="line" smooth="yes"/>
      <point x="46" y="368"/>
      <point x="63" y="340"/>
      <point x="96" y="328" type="curve" smooth="yes"/>
      <point x="129" y="316"/>
      <point x="156" y="313"/>
    </contour>
    <contour>
      <point x="204" y="365" type="curve" smooth="yes"/>
      <point x="148" y="365"/>
      <point x="124" y="373"/>
      <point x="124" y="416" type="curve" smooth="yes"/>
      <point x="124" y="541" type="line" smooth="yes"/>
      <point x="124" y="589"/>
      <point x="147" y="597"/>
      <point x="204" y="597" type="curve" smooth="yes"/>
      <point x="260" y="597"/>
      <point x="283" y="589"/>
      <point x="283" y="541" type="curve" smooth="yes"/>
      <point x="283" y="416" type="line"/>
      <point x="283" y="373"/>
      <point x="260" y="365"/>
    </contour>
    <contour>
      <point x="652" y="-10" type="curve" smooth="yes"/>
      <point x="700" y="-10"/>
      <point x="727" y="-7"/>
      <point x="760" y="5" type="curve" smooth="yes"/>
      <point x="792" y="17"/>
      <point x="809" y="45"/>
      <point x="809" y="89" type="curve" smooth="yes"/>
      <point x="809" y="214" type="line"/>
      <point x="809" y="303"/>
      <point x="749" y="326"/>
      <point x="652" y="326" type="curve" smooth="yes"/>
      <point x="555" y="326"/>
      <point x="494" y="303"/>
      <point x="494" y="214" type="curve" smooth="yes"/>
      <point x="494" y="89" type="line" smooth="yes"/>
      <point x="494" y="45"/>
      <point x="511" y="17"/>
      <point x="544" y="5" type="curve" smooth="yes"/>
      <point x="577" y="-7"/>
      <point x="604" y="-10"/>
    </contour>
    <contour>
      <point x="652" y="42" type="curve" smooth="yes"/>
      <point x="596" y="42"/>
      <point x="572" y="50"/>
      <point x="572" y="93" type="curve" smooth="yes"/>
      <point x="572" y="218" type="line" smooth="yes"/>
      <point x="572" y="266"/>
      <point x="595" y="274"/>
      <point x="652" y="274" type="curve" smooth="yes"/>
      <point x="708" y="274"/>
      <point x="731" y="266"/>
      <point x="731" y="218" type="curve" smooth="yes"/>
      <point x="731" y="93" type="line"/>
      <point x="731" y="50"/>
      <point x="708" y="42"/>
    </contour>
  </outline>
</glyph>
<glyph name="ampersand" format="2">
  <advance width="636"/>
  <unicode hex="0026"/>
  <outline>
    <contour>
      <point x="278" y="-10" type="curve" smooth="yes"/>
      <point x="366" y="-10"/>
      <point x="431" y="5"/>
      <point x="473" y="34" type="curve"/>
      <point x="499" y="11"/>
      <point x="523" y="0"/>
      <point x="546" y="0" type="curve" smooth="yes"/>
      <point x="610" y="0" type="line"/>
      <point x="610" y="59" type="line"/>
      <point x="584" y="59" type="line" smooth="yes"/>
      <point x="571" y="59"/>
      <point x="551" y="72"/>
      <point x="524" y="97" type="curve"/>
      <point x="538" y="126"/>
      <point x="545" y="164"/>
      <point x="545" y="209" type="curve" smooth="yes"/>
      <point x="545" y="301" type="line"/>
      <point x="469" y="301" type="line"/>
      <point x="469" y="205" type="line" smooth="yes"/>
      <point x="469" y="189"/>
      <point x="468" y="175"/>
      <point x="466" y="163" type="curve"/>
      <point x="224" y="456" type="line" smooth="yes"/>
      <point x="217" y="464"/>
      <point x="214" y="473"/>
      <point x="214" y="483" type="curve" smooth="yes"/>
      <point x="214" y="557" type="line" smooth="yes"/>
      <point x="214" y="586"/>
      <point x="236" y="597"/>
      <point x="293" y="597" type="curve" smooth="yes"/>
      <point x="335" y="597"/>
      <point x="381" y="589"/>
      <point x="431" y="572" type="curve"/>
      <point x="431" y="645" type="line"/>
      <point x="385" y="655"/>
      <point x="340" y="660"/>
      <point x="295" y="660" type="curve" smooth="yes"/>
      <point x="184" y="660"/>
      <point x="129" y="628"/>
      <point x="129" y="565" type="curve" smooth="yes"/>
      <point x="129" y="468" type="line" smooth="yes"/>
      <point x="129" y="446"/>
      <point x="139" y="423"/>
      <point x="160" y="399" type="curve" smooth="yes"/>
      <point x="199" y="353" type="line"/>
      <point x="152" y="331" type="line" smooth="yes"/>
      <point x="91" y="304"/>
      <point x="60" y="265"/>
      <point x="60" y="214" type="curve" smooth="yes"/>
      <point x="60" y="105" type="line" smooth="yes"/>
      <point x="60" y="28"/>
      <point x="133" y="-10"/>
    </contour>
    <contour>
      <point x="285" y="52" type="line" smooth="yes"/>
      <point x="198" y="52"/>
      <point x="154" y="68"/>
      <point x="154" y="101" type="curve" smooth="yes"/>
      <point x="154" y="223" type="line" smooth="yes"/>
      <point x="154" y="251"/>
      <point x="172" y="282"/>
      <point x="200" y="295" type="curve" smooth="yes"/>
      <point x="235" y="310" type="line"/>
      <point x="428" y="80" type="line"/>
      <point x="405" y="61"/>
      <point x="361" y="52"/>
      <point x="296" y="52" type="curve" smooth="yes"/>
    </contour>
  </outline>
</glyph>
<glyph name="quotesingle" format="2">
  <advance width="256"/>
  <unicode hex="0027"/>
  <outline>
    <contour>
      <point x="85" y="429" type="line"/>
      <point x="171" y="429" type="line"/>
      <point x="171" y="649" type="line"/>
      <point x="85" y="649" type="line"/>
    </contour>
  </outline>
</glyph>
<glyph name="parenleft" format="2">
  <advance width="331"/>
  <unicode hex="0028"/>
  <outline>
    <contour>
      <point x="224" y="-127" type="curve"/>
      <point x="305" y="-127" type="line"/>
      <point x="218" y="20"/>
      <point x="166" y="144"/>
      <point x="166" y="276" type="curve" smooth="yes"/>
      <point x="166" y="407"/>
      <point x="217" y="526"/>
      <point x="305" y="679" type="curve"/>
      <point x="224" y="679" type="line"/>
      <point x="131" y="535"/>
      <point x="79" y="417"/>
      <point x="79" y="276" type="curve" smooth="yes"/>
      <point x="79" y="151"/>
      <point x="127" y="17"/>
    </contour>
  </outline>
</glyph>
<glyph name="parenright" format="2">
  <advance width="331"/>
  <unicode hex="0029"/>
  <outline>
    <contour>
      <point x="26" y="-127" type="curve"/>
      <point x="107" y="-127" type="line"/>
      <point x="204" y="17"/>
      <point x="252" y="151"/>
      <point x="252" y="276" type="curve" smooth="yes"/>
      <point x="252" y="417"/>
      <point x="200" y="535"/>
      <point x="107" y="679" type="curve"/>
      <point x="26" y="679" type="line"/>
      <point x="114" y="522"/>
      <point x="165" y="405"/>
      <point x="165" y="276" type="curve" smooth="yes"/>
      <point x="165" y="144"/>
      <point x="113" y="20"/>
    </contour>
  </outline>
</glyph>
<glyph name="asterisk" format="2">
  <advance width="398"/>
  <unicode hex="002A"/>
  <outline>
    <contour>
      <point x="129" y="320" type="line"/>
      <point x="199" y="439" type="line"/>
      <point x="268" y="320" type="line"/>
      <point x="329" y="361" type="line"/>
      <point x="238" y="467" type="line"/>
      <point x="372" y="496" type="line"/>
      <point x="350" y="565" type="line"/>
      <point x="225" y="511" type="line"/>
      <point x="238" y="649" type="line"/>
      <point x="165" y="649" type="line"/>
      <point x="178" y="511" type="line"/>
      <point x="49" y="565" type="line"/>
      <point x="26" y="496" type="line"/>
      <point x="163" y="467" type="line"/>
      <point x="69" y="361" type="line"/>
    </contour>
  </outline>
</glyph>
<glyph name="hyphen" format="2">
  <advance width="358"/>
  <unicode hex="002D"/>
  <outline>
    <contour>
      <point x="40" y="250" type="line"/>
      <point x="318" y="250" type="line"/>
      <point x="318" y="322" type="line"/>
      <point x="40" y="322" type="line"/>
    </contour>
  </outline>
</glyph>
<glyph name="one" format="2">
  <advance width="580"/>
  <unicode hex="0031"/>
  <outline>
    <contour>
      <point x="319" y="0" type="line"/>
      <point x="406" y="0" type="line"/>
      <point x="406" y="649" type="line"/>
      <point x="320" y="649" type="line"/>
      <point x="122" y="512" type="line"/>
      <point x="122" y="430" type="line"/>
      <point x="319" y="559" type="line"/>
    </contour>
  </outline>
</glyph>
<glyph name="two" format="2">
  <advance width="580"/>
  <unicode hex="0032"/>
  <outline>
    <contour>
      <point x="72" y="0" type="line"/>
      <point x="508" y="0" type="line"/>
      <point x="508" y="70" type="line"/>
      <point x="164" y="70" type="line"/>
      <point x="164" y="113" type="line" smooth="yes"/>
      <point x="164" y="152"/>
      <point x="186" y="181"/>
      <point x="230" y="201" type="curve" smooth="yes"/>
      <point x="380" y="270" type="line" smooth="yes"/>
      <point x="476" y="314"/>
      <point x="508" y="341"/>
      <point x="508" y="413" type="curve" smooth="yes"/>
      <point x="508" y="519" type="line" smooth="yes"/>
      <point x="508" y="622"/>
      <point x="447" y="660"/>
      <point x="304" y="660" type="curve" smooth="yes"/>
      <point x="234" y="660"/>
      <point x="164" y="654"/>
      <point x="95" y="641" type="curve"/>
      <point x="95" y="571" type="line"/>
      <point x="176" y="585"/>
      <point x="239" y="592"/>
      <point x="285" y="592" type="curve" smooth="yes"/>
      <point x="374" y="592"/>
      <point x="411" y="578"/>
      <point x="411" y="515" type="curve" smooth="yes"/>
      <point x="411" y="426" type="line" smooth="yes"/>
      <point x="411" y="387"/>
      <point x="390" y="358"/>
      <point x="347" y="339" type="curve" smooth="yes"/>
      <point x="239" y="291" type="line" smooth="yes"/>
      <point x="217" y="282"/>
      <point x="200" y="274"/>
      <point x="189" y="268" type="curve" smooth="yes"/>
      <point x="165" y="256"/>
      <point x="124" y="231"/>
      <point x="106" y="210" type="curve" smooth="yes"/>
      <point x="88" y="189"/>
      <point x="72" y="155"/>
      <point x="72" y="116" type="curve" smooth="yes"/>
    </contour>
  </outline>
</glyph>
<glyph name="three" format="2">
  <advance width="580"/>
  <unicode hex="0033"/>
  <outline>
    <contour>
      <point x="266" y="-10" type="curve" smooth="yes"/>
      <point x="291" y="-10"/>
      <point x="313" y="-9"/>
      <point x="332" y="-8" type="curve" smooth="yes"/>
      <point x="370" y="-5"/>
      <point x="421" y="6"/>
      <point x="450" y="26" type="curve" smooth="yes"/>
      <point x="479" y="45"/>
      <point x="503" y="81"/>
      <point x="503" y="129" type="curve" smooth="yes"/>
      <point x="503" y="259" type="line"/>
      <point x="503" y="288"/>
      <point x="491" y="310"/>
      <point x="468" y="322" type="curve" smooth="yes"/>
      <point x="444" y="334"/>
      <point x="426" y="339"/>
      <point x="395" y="344" type="curve"/>
      <point x="395" y="348" type="line"/>
      <point x="444" y="356"/>
      <point x="484" y="382"/>
      <point x="484" y="426" type="curve" smooth="yes"/>
      <point x="484" y="551" type="line" smooth="yes"/>
      <point x="484" y="632"/>
      <point x="416" y="659"/>
      <point x="272" y="659" type="curve" smooth="yes"/>
      <point x="208" y="659"/>
      <point x="147" y="656"/>
      <point x="90" y="650" type="curve"/>
      <point x="90" y="581" type="line"/>
      <point x="161" y="592"/>
      <point x="222" y="597"/>
      <point x="273" y="597" type="curve" smooth="yes"/>
      <point x="353" y="597"/>
      <point x="393" y="580"/>
      <point x="393" y="546" type="curve" smooth="yes"/>
      <point x="393" y="430" type="line" smooth="yes"/>
      <point x="393" y="401"/>
      <point x="376" y="382"/>
      <point x="347" y="375" type="curve" smooth="yes"/>
      <point x="318" y="367"/>
      <point x="300" y="366"/>
      <point x="268" y="366" type="curve" smooth="yes"/>
      <point x="160" y="366" type="line"/>
      <point x="160" y="304" type="line"/>
      <point x="285" y="304" type="line" smooth="yes"/>
      <point x="317" y="304"/>
      <point x="336" y="303"/>
      <point x="365" y="296" type="curve"/>
      <point x="393" y="288"/>
      <point x="409" y="270"/>
      <point x="409" y="242" type="curve" smooth="yes"/>
      <point x="409" y="131" type="line" smooth="yes"/>
      <point x="409" y="81"/>
      <point x="365" y="56"/>
      <point x="276" y="56" type="curve" smooth="yes"/>
      <point x="224" y="56"/>
      <point x="158" y="64"/>
      <point x="77" y="81" type="curve"/>
      <point x="77" y="9" type="line"/>
      <point x="149" y="-4"/>
      <point x="212" y="-10"/>
    </contour>
  </outline>
</glyph>
<glyph name="four" format="2">
  <advance width="580"/>
  <unicode hex="0034"/>
  <outline>
    <contour>
      <point x="375" y="0" type="line"/>
      <point x="458" y="0" type="line"/>
      <point x="458" y="142" type="line"/>
      <point x="528" y="142" type="line"/>
      <point x="528" y="211" type="line"/>
      <point x="458" y="211" type="line"/>
      <point x="458" y="649" type="line"/>
      <point x="346" y="649" type="line"/>
      <point x="52" y="221" type="line"/>
      <point x="52" y="142" type="line"/>
      <point x="375" y="142" type="line"/>
    </contour>
    <contour>
      <point x="132" y="211" type="line"/>
      <point x="375" y="570" type="line"/>
      <point x="375" y="211" type="line"/>
    </contour>
  </outline>
</glyph>
<glyph name="five" format="2">
  <advance width="580"/>
  <unicode hex="0035"/>
  <outline>
    <contour>
      <point x="278" y="-10" type="curve" smooth="yes"/>
      <point x="301" y="-10"/>
      <point x="322" y="-9"/>
      <point x="340" y="-8" type="curve" smooth="yes"/>
      <point x="375" y="-5"/>
      <point x="420" y="6"/>
      <point x="447" y="26" type="curve" smooth="yes"/>
      <point x="474" y="45"/>
      <point x="493" y="81"/>
      <point x="493" y="129" type="curve" smooth="yes"/>
      <point x="493" y="277" type="line"/>
      <point x="493" y="304"/>
      <point x="485" y="325"/>
      <point x="468" y="342" type="curve" smooth="yes"/>
      <point x="434" y="375"/>
      <point x="391" y="384"/>
      <point x="342" y="384" type="curve" smooth="yes"/>
      <point x="192" y="384" type="line"/>
      <point x="192" y="581" type="line"/>
      <point x="476" y="581" type="line"/>
      <point x="476" y="649" type="line"/>
      <point x="102" y="649" type="line"/>
      <point x="102" y="322" type="line"/>
      <point x="294" y="322" type="line" smooth="yes"/>
      <point x="323" y="322"/>
      <point x="339" y="321"/>
      <point x="363" y="314" type="curve" smooth="yes"/>
      <point x="387" y="306"/>
      <point x="399" y="288"/>
      <point x="399" y="260" type="curve" smooth="yes"/>
      <point x="399" y="131" type="line" smooth="yes"/>
      <point x="399" y="76"/>
      <point x="360" y="56"/>
      <point x="281" y="56" type="curve" smooth="yes"/>
      <point x="229" y="56"/>
      <point x="164" y="64"/>
      <point x="87" y="80" type="curve"/>
      <point x="87" y="8" type="line"/>
      <point x="160" y="-4"/>
      <point x="224" y="-10"/>
    </contour>
  </outline>
</glyph>
<glyph name="six" format="2">
  <advance width="580"/>
  <unicode hex="0036"/>
  <outline>
    <contour>
      <point x="289" y="-10" type="curve" smooth="yes"/>
      <point x="356" y="-10"/>
      <point x="396" y="-5"/>
      <point x="441" y="16" type="curve" smooth="yes"/>
      <point x="486" y="37"/>
      <point x="509" y="84"/>
      <point x="509" y="156" type="curve" smooth="yes"/>
      <point x="509" y="251" type="line"/>
      <point x="509" y="276"/>
      <point x="506" y="297"/>
      <point x="500" y="314" type="curve" smooth="yes"/>
      <point x="488" y="347"/>
      <point x="474" y="365"/>
      <point x="435" y="374" type="curve" smooth="yes"/>
      <point x="396" y="383"/>
      <point x="370" y="384"/>
      <point x="307" y="384" type="curve" smooth="yes"/>
      <point x="160" y="384" type="line"/>
      <point x="160" y="486" type="line" smooth="yes"/>
      <point x="160" y="581"/>
      <point x="197" y="596"/>
      <point x="301" y="596" type="curve" smooth="yes"/>
      <point x="348" y="596"/>
      <point x="407" y="592"/>
      <point x="478" y="583" type="curve"/>
      <point x="478" y="651" type="line"/>
      <point x="409" y="657"/>
      <point x="355" y="660"/>
      <point x="314" y="660" type="curve" smooth="yes"/>
      <point x="287" y="660"/>
      <point x="264" y="659"/>
      <point x="245" y="658" type="curve"/>
      <point x="206" y="654"/>
      <point x="152" y="641"/>
      <point x="123" y="617" type="curve" smooth="yes"/>
      <point x="94" y="592"/>
      <point x="71" y="547"/>
      <point x="71" y="484" type="curve" smooth="yes"/>
      <point x="71" y="156" type="line" smooth="yes"/>
      <point x="71" y="127"/>
      <point x="75" y="102"/>
      <point x="83" y="81" type="curve" smooth="yes"/>
      <point x="99" y="39"/>
      <point x="121" y="17"/>
      <point x="162" y="5" type="curve" smooth="yes"/>
      <point x="203" y="-8"/>
      <point x="234" y="-10"/>
    </contour>
    <contour>
      <point x="291" y="49" type="curve" smooth="yes"/>
      <point x="192" y="49"/>
      <point x="160" y="64"/>
      <point x="160" y="151" type="curve" smooth="yes"/>
      <point x="160" y="326" type="line"/>
      <point x="290" y="326" type="line" smooth="yes"/>
      <point x="398" y="326"/>
      <point x="420" y="312"/>
      <point x="420" y="248" type="curve" smooth="yes"/>
      <point x="420" y="151" type="line"/>
      <point x="420" y="63"/>
      <point x="390" y="49"/>
    </contour>
  </outline>
</glyph>
<glyph name="seven" format="2">
  <advance width="580"/>
  <unicode hex="0037"/>
  <outline>
    <contour>
      <point x="174" y="0" type="line"/>
      <point x="270" y="0" type="line"/>
      <point x="518" y="584" type="line"/>
      <point x="518" y="649" type="line"/>
      <point x="62" y="649" type="line"/>
      <point x="62" y="584" type="line"/>
      <point x="434" y="584" type="line"/>
    </contour>
  </outline>
</glyph>
<glyph name="nine" format="2">
  <advance width="580"/>
  <unicode hex="0039"/>
  <outline>
    <contour>
      <point x="271" y="-10" type="curve" smooth="yes"/>
      <point x="438" y="-10"/>
      <point x="509" y="38"/>
      <point x="509" y="166" type="curve" smooth="yes"/>
      <point x="509" y="494" type="line"/>
      <point x="509" y="523"/>
      <point x="505" y="549"/>
      <point x="497" y="570" type="curve" smooth="yes"/>
      <point x="481" y="612"/>
      <point x="459" y="633"/>
      <point x="418" y="646" type="curve" smooth="yes"/>
      <point x="377" y="658"/>
      <point x="346" y="660"/>
      <point x="291" y="660" type="curve" smooth="yes"/>
      <point x="224" y="660"/>
      <point x="184" y="655"/>
      <point x="139" y="634" type="curve" smooth="yes"/>
      <point x="94" y="613"/>
      <point x="71" y="566"/>
      <point x="71" y="494" type="curve" smooth="yes"/>
      <point x="71" y="398" type="line" smooth="yes"/>
      <point x="71" y="373"/>
      <point x="74" y="352"/>
      <point x="80" y="335" type="curve" smooth="yes"/>
      <point x="92" y="302"/>
      <point x="106" y="284"/>
      <point x="145" y="275" type="curve" smooth="yes"/>
      <point x="184" y="266"/>
      <point x="210" y="265"/>
      <point x="273" y="265" type="curve" smooth="yes"/>
      <point x="420" y="265" type="line"/>
      <point x="420" y="180" type="line" smooth="yes"/>
      <point x="420" y="81"/>
      <point x="383" y="51"/>
      <point x="268" y="51" type="curve" smooth="yes"/>
      <point x="219" y="51"/>
      <point x="164" y="57"/>
      <point x="102" y="68" type="curve"/>
      <point x="102" y="1" type="line"/>
      <point x="158" y="-6"/>
      <point x="214" y="-10"/>
    </contour>
    <contour>
      <point x="290" y="323" type="line" smooth="yes"/>
      <point x="182" y="323"/>
      <point x="160" y="337"/>
      <point x="160" y="401" type="curve" smooth="yes"/>
      <point x="160" y="499" type="line" smooth="yes"/>
      <point x="160" y="587"/>
      <point x="190" y="601"/>
      <point x="289" y="601" type="curve" smooth="yes"/>
      <point x="388" y="601"/>
      <point x="420" y="586"/>
      <point x="420" y="499" type="curve" smooth="yes"/>
      <point x="420" y="323" type="line"/>
    </contour>
  </outline>
</glyph>
<glyph name="colon" format="2">
  <advance width="256"/>
  <unicode hex="003A"/>
  <outline>
    <contour>
      <point x="70" y="376" type="line"/>
      <point x="186" y="376" type="line"/>
      <point x="186" y="484" type="line"/>
      <point x="70" y="484" type="line"/>
    </contour>
    <contour>
      <point x="70" y="0" type="line"/>
      <point x="186" y="0" type="line"/>
      <point x="186" y="108" type="line"/>
      <point x="70" y="108" type="line"/>
    </contour>
  </outline>
</glyph>
<glyph name="semicolon" format="2">
  <advance width="256"/>
  <unicode hex="003B"/>
  <outline>
    <contour>
      <point x="39" y="-112" type="line"/>
      <point x="97" y="-112" type="line"/>
      <point x="191" y="108" type="line"/>
      <point x="85" y="108" type="line"/>
    </contour>
    <contour>
      <point x="70" y="376" type="line"/>
      <point x="186" y="376" type="line"/>
      <point x="186" y="484" type="line"/>
      <point x="70" y="484" type="line"/>
    </contour>
  </outline>
</glyph>
<glyph name="less" format="2">
  <advance width="500"/>
  <unicode hex="003C"/>
  <outline>
    <contour>
      <point x="440" y="62" type="line"/>
      <point x="440" y="143" type="line"/>
      <point x="138" y="308" type="line"/>
      <point x="440" y="479" type="line"/>
      <point x="440" y="560" type="line"/>
      <point x="60" y="347" type="line"/>
      <point x="60" y="275" type="line"/>
    </contour>
  </outline>
</glyph>
<glyph name="equal" format="2">
  <advance width="500"/>
  <unicode hex="003D"/>
  <outline>
    <contour>
      <point x="60" y="362" type="line"/>
      <point x="440" y="362" type="line"/>
      <point x="440" y="429" type="line"/>
      <point x="60" y="429" type="line"/>
    </contour>
    <contour>
      <point x="60" y="202" type="line"/>
      <point x="440" y="202" type="line"/>
      <point x="440" y="269" type="line"/>
      <point x="60" y="269" type="line"/>
    </contour>
  </outline>
</glyph>
<glyph name="greater" format="2">
  <advance width="500"/>
  <unicode hex="003E"/>
  <outline>
    <contour>
      <point x="60" y="62" type="line"/>
      <point x="440" y="275" type="line"/>
      <point x="440" y="347" type="line"/>
      <point x="60" y="560" type="line"/>
      <point x="60" y="479" type="line"/>
      <point x="362" y="308" type="line"/>
      <point x="60" y="143" type="line"/>
    </contour>
  </outline>
</glyph>
<glyph name="question" format="2">
  <advance width="533"/>
  <unicode hex="003F"/>
  <outline>
    <contour>
      <point x="207" y="171" type="line"/>
      <point x="291" y="171" type="line"/>
      <point x="291" y="214" type="line" smooth="yes"/>
      <point x="291" y="246"/>
      <point x="311" y="273"/>
      <point x="338" y="290" type="curve" smooth="yes"/>
      <point x="365" y="306"/>
      <point x="399" y="330"/>
      <point x="426" y="354" type="curve" smooth="yes"/>
      <point x="453" y="377"/>
      <point x="473" y="417"/>
      <point x="473" y="468" type="curve" smooth="yes"/>
      <point x="473" y="518" type="line" smooth="yes"/>
      <point x="473" y="621"/>
      <point x="413" y="659"/>
      <point x="270" y="659" type="curve" smooth="yes"/>
      <point x="200" y="659"/>
      <point x="130" y="653"/>
      <point x="60" y="640" type="curve"/>
      <point x="60" y="567" type="line"/>
      <point x="141" y="581"/>
      <point x="204" y="588"/>
      <point x="251" y="588" type="curve" smooth="yes"/>
      <point x="339" y="588"/>
      <point x="377" y="574"/>
      <point x="377" y="511" type="curve" smooth="yes"/>
      <point x="377" y="481" type="line" smooth="yes"/>
      <point x="377" y="432"/>
      <point x="350" y="399"/>
      <point x="317" y="377" type="curve" smooth="yes"/>
      <point x="300" y="366"/>
      <point x="284" y="354"/>
      <point x="267" y="341" type="curve" smooth="yes"/>
      <point x="234" y="316"/>
      <point x="207" y="267"/>
      <point x="207" y="195" type="curve" smooth="yes"/>
    </contour>
    <contour>
      <point x="190" y="0" type="line"/>
      <point x="306" y="0" type="line"/>
      <point x="306" y="108" type="line"/>
      <point x="190" y="108" type="line"/>
    </contour>
  </outline>
</glyph>
<glyph name="at" format="2">
  <advance width="737"/>
  <unicode hex="0040"/>
  <outline>
    <contour>
      <point x="362" y="-90" type="curve" smooth="yes"/>
      <point x="454" y="-90"/>
      <point x="567" y="-76"/>
      <point x="600" y="-65" type="curve"/>
      <point x="600" y="-7" type="line"/>
      <point x="564" y="-16"/>
      <point x="440" y="-33"/>
      <point x="364" y="-33" type="curve" smooth="yes"/>
      <point x="313" y="-33"/>
      <point x="268" y="-28"/>
      <point x="219" y="-12" type="curve" smooth="yes"/>
      <point x="170" y="3"/>
      <point x="138" y="35"/>
      <point x="138" y="79" type="curve" smooth="yes"/>
      <point x="138" y="406" type="line" smooth="yes"/>
      <point x="138" y="454"/>
      <point x="169" y="489"/>
      <point x="218" y="505" type="curve" smooth="yes"/>
      <point x="266" y="520"/>
      <point x="311" y="526"/>
      <point x="363" y="526" type="curve" smooth="yes"/>
      <point x="415" y="526"/>
      <point x="463" y="520"/>
      <point x="516" y="505" type="curve"/>
      <point x="568" y="489"/>
      <point x="604" y="454"/>
      <point x="604" y="406" type="curve" smooth="yes"/>
      <point x="604" y="129" type="line" smooth="yes"/>
      <point x="604" y="109"/>
      <point x="595" y="105"/>
      <point x="567" y="105" type="curve" smooth="yes"/>
      <point x="539" y="105"/>
      <point x="528" y="110"/>
      <point x="528" y="129" type="curve" smooth="yes"/>
      <point x="528" y="308" type="line" smooth="yes"/>
      <point x="528" y="407"/>
      <point x="500" y="439"/>
      <point x="369" y="439" type="curve" smooth="yes"/>
      <point x="240" y="439"/>
      <point x="200" y="407"/>
      <point x="200" y="308" type="curve" smooth="yes"/>
      <point x="200" y="198" type="line" smooth="yes"/>
      <point x="200" y="82"/>
      <point x="241" y="56"/>
      <point x="349" y="56" type="curve" smooth="yes"/>
      <point x="390" y="56"/>
      <point x="418" y="59"/>
      <point x="432" y="64" type="curve" smooth="yes"/>
      <point x="446" y="69"/>
      <point x="456" y="78"/>
      <point x="463" y="93" type="curve"/>
      <point x="470" y="72"/>
      <point x="502" y="56"/>
      <point x="547" y="56" type="curve" smooth="yes"/>
      <point x="578" y="56" type="line" smooth="yes"/>
      <point x="643" y="56"/>
      <point x="677" y="80"/>
      <point x="677" y="145" type="curve" smooth="yes"/>
      <point x="677" y="394" type="line"/>
      <point x="677" y="470"/>
      <point x="632" y="524"/>
      <point x="562" y="548" type="curve" smooth="yes"/>
      <point x="492" y="572"/>
      <point x="433" y="579"/>
      <point x="362" y="579" type="curve" smooth="yes"/>
      <point x="295" y="579"/>
      <point x="238" y="571"/>
      <point x="171" y="547" type="curve" smooth="yes"/>
      <point x="103" y="523"/>
      <point x="60" y="469"/>
      <point x="60" y="393" type="curve" smooth="yes"/>
      <point x="60" y="86" type="line" smooth="yes"/>
      <point x="60" y="57"/>
      <point x="67" y="32"/>
      <point x="81" y="10" type="curve" smooth="yes"/>
      <point x="108" y="-34"/>
      <point x="148" y="-56"/>
      <point x="205" y="-71" type="curve"/>
      <point x="261" y="-87"/>
      <point x="307" y="-90"/>
    </contour>
    <contour>
      <point x="366" y="107" type="curve" smooth="yes"/>
      <point x="290" y="107"/>
      <point x="278" y="116"/>
      <point x="278" y="184" type="curve" smooth="yes"/>
      <point x="278" y="304" type="line" smooth="yes"/>
      <point x="278" y="379"/>
      <point x="289" y="387"/>
      <point x="366" y="387" type="curve" smooth="yes"/>
      <point x="446" y="387"/>
      <point x="455" y="380"/>
      <point x="455" y="304" type="curve" smooth="yes"/>
      <point x="455" y="184" type="line"/>
      <point x="455" y="119"/>
      <point x="442" y="107"/>
    </contour>
  </outline>
</glyph>
<glyph name="A" format="2">
  <advance width="652"/>
  <unicode hex="0041"/>
  <anchor x="326" y="0" name="bottom"/>
  <anchor x="587" y="10" name="ogonek"/>
  <anchor x="326" y="649" name="top"/>
  <outline>
    <contour>
      <point x="15" y="0" type="line"/>
      <point x="111" y="0" type="line"/>
      <point x="184" y="197" type="line"/>
      <point x="462" y="197" type="line"/>
      <point x="536" y="0" type="line"/>
      <point x="637" y="0" type="line"/>
      <point x="385" y="649" type="line"/>
      <point x="273" y="649" type="line"/>
    </contour>
    <contour>
      <point x="209" y="264" type="line"/>
      <point x="319" y="557" type="line"/>
      <point x="328" y="557" type="line"/>
      <point x="438" y="264" type="line"/>
    </contour>
  </outline>
</glyph>
<glyph name="D" format="2">
  <advance width="679"/>
  <unicode hex="0044"/>
  <outline>
    <contour>
      <point x="84" y="0" type="line"/>
      <point x="343" y="0" type="line" smooth="yes"/>
      <point x="524" y="0"/>
      <point x="615" y="59"/>
      <point x="615" y="176" type="curve" smooth="yes"/>
      <point x="615" y="463" type="line"/>
      <point x="615" y="587"/>
      <point x="524" y="649"/>
      <point x="342" y="649" type="curve" smooth="yes"/>
      <point x="84" y="649" type="line"/>
    </contour>
    <contour>
      <point x="181" y="66" type="line"/>
      <point x="181" y="582" type="line"/>
      <point x="341" y="582" type="line" smooth="yes"/>
      <point x="392" y="582"/>
      <point x="428" y="577"/>
      <point x="465" y="562" type="curve"/>
      <point x="501" y="546"/>
      <point x="522" y="513"/>
      <point x="522" y="464" type="curve" smooth="yes"/>
      <point x="522" y="178" type="line"/>
      <point x="522" y="103"/>
      <point x="460" y="66"/>
      <point x="336" y="66" type="curve" smooth="yes"/>
    </contour>
  </outline>
</glyph>
<glyph name="E" format="2">
  <advance width="580"/>
  <unicode hex="0045"/>
  <anchor x="290" y="0" name="bottom"/>
  <anchor x="522" y="10" name="ogonek"/>
  <anchor x="290" y="649" name="top"/>
  <anchor x="20" y="649" name="topleft"/>
  <outline>
    <contour>
      <point x="84" y="0" type="line"/>
      <point x="530" y="0" type="line"/>
      <point x="530" y="68" type="line"/>
      <point x="181" y="68" type="line"/>
      <point x="181" y="301" type="line"/>
      <point x="487" y="301" type="line"/>
      <point x="487" y="369" type="line"/>
      <point x="181" y="369" type="line"/>
      <point x="181" y="581" type="line"/>
      <point x="520" y="581" type="line"/>
      <point x="520" y="649" type="line"/>
      <point x="84" y="649" type="line"/>
    </contour>
  </outline>
</glyph>
<glyph name="F" format="2">
  <advance width="560"/>
  <unicode hex="0046"/>
  <outline>
    <contour>
      <point x="84" y="0" type="line"/>
      <point x="181" y="0" type="line"/>
      <point x="181" y="301" type="line"/>
      <point x="497" y="301" type="line"/>
      <point x="497" y="369" type="line"/>
      <point x="181" y="369" type="line"/>
      <point x="181" y="581" type="line"/>
      <point x="530" y="581" type="line"/>
      <point x="530" y="649" type="line"/>
      <point x="84" y="649" type="line"/>
    </contour>
  </outline>
</glyph>
<glyph name="H" format="2">
  <advance width="707"/>
  <unicode hex="0048"/>
  <outline>
    <contour>
      <point x="84" y="0" type="line"/>
      <point x="181" y="0" type="line"/>
      <point x="181" y="301" type="line"/>
      <point x="526" y="301" type="line"/>
      <point x="526" y="0" type="line"/>
      <point x="623" y="0" type="line"/>
      <point x="623" y="649" type="line"/>
      <point x="526" y="649" type="line"/>
      <point x="526" y="369" type="line"/>
      <point x="181" y="369" type="line"/>
      <point x="181" y="649" type="line"/>
      <point x="84" y="649" type="line"/>
    </contour>
  </outline>
</glyph>
<glyph name="I" format="2">
  <advance width="265"/>
  <unicode hex="0049"/>
  <anchor x="133" y="0" name="bottom"/>
  <anchor x="148" y="10" name="ogonek"/>
  <anchor x="133" y="649" name="top"/>
  <anchor x="20" y="649" name="topleft"/>
  <outline>
    <contour>
      <point x="84" y="0" type="line"/>
      <point x="181" y="0" type="line"/>
      <point x="181" y="649" type="line"/>
      <point x="84" y="649" type="line"/>
    </contour>
  </outline>
</glyph>
<glyph name="K" format="2">
  <advance width="609"/>
  <unicode hex="004B"/>
  <outline>
    <contour>
      <point x="493" y="0" type="line"/>
      <point x="619" y="0" type="line"/>
      <point x="298" y="349" type="line"/>
      <point x="590" y="649" type="line"/>
      <point x="473" y="649" type="line"/>
      <point x="183" y="345" type="line"/>
    </contour>
    <contour>
      <point x="84" y="0" type="line"/>
      <point x="181" y="0" type="line"/>
      <point x="181" y="649" type="line"/>
      <point x="84" y="649" type="line"/>
    </contour>
  </outline>
</glyph>
<glyph name="L" format="2">
  <advance width="520"/>
  <unicode hex="004C"/>
  <outline>
    <contour>
      <point x="84" y="0" type="line"/>
      <point x="500" y="0" type="line"/>
      <point x="500" y="68" type="line"/>
      <point x="181" y="68" type="line"/>
      <point x="181" y="649" type="line"/>
      <point x="84" y="649" type="line"/>
    </contour>
  </outline>
</glyph>
<glyph name="M" format="2">
  <advance width="861"/>
  <unicode hex="004D"/>
  <outline>
    <contour>
      <point x="84" y="0" type="line"/>
      <point x="171" y="0" type="line"/>
      <point x="171" y="549" type="line"/>
      <point x="176" y="549" type="line"/>
      <point x="391" y="0" type="line"/>
      <point x="478" y="0" type="line"/>
      <point x="687" y="549" type="line"/>
      <point x="692" y="549" type="line"/>
      <point x="692" y="0" type="line"/>
      <point x="777" y="0" type="line"/>
      <point x="777" y="649" type="line"/>
      <point x="637" y="649" type="line"/>
      <point x="440" y="108" type="line"/>
      <point x="437" y="109" type="line"/>
      <point x="229" y="649" type="line"/>
      <point x="84" y="649" type="line"/>
    </contour>
  </outline>
</glyph>
<glyph name="N" format="2">
  <advance width="723"/>
  <unicode hex="004E"/>
  <outline>
    <contour>
      <point x="84" y="0" type="line"/>
      <point x="169" y="0" type="line"/>
      <point x="169" y="545" type="line"/>
      <point x="522" y="0" type="line"/>
      <point x="639" y="0" type="line"/>
      <point x="639" y="649" type="line"/>
      <point x="554" y="649" type="line"/>
      <point x="554" y="113" type="line"/>
      <point x="201" y="649" type="line"/>
      <point x="84" y="649" type="line"/>
    </contour>
  </outline>
</glyph>
<glyph name="O" format="2">
  <advance width="679"/>
  <unicode hex="004F"/>
  <anchor x="340" y="0" name="bottom"/>
  <anchor x="340" y="325" name="center"/>
  <anchor x="611" y="10" name="ogonek"/>
  <anchor x="340" y="649" name="top"/>
  <anchor x="20" y="649" name="topleft"/>
  <anchor x="536" y="649" name="topright"/>
  <outline>
    <contour>
      <point x="338" y="-10" type="curve" smooth="yes"/>
      <point x="485" y="-10"/>
      <point x="613" y="32"/>
      <point x="613" y="166" type="curve" smooth="yes"/>
      <point x="613" y="474" type="line"/>
      <point x="613" y="597"/>
      <point x="521" y="659"/>
      <point x="338" y="659" type="curve" smooth="yes"/>
      <point x="157" y="659"/>
      <point x="66" y="597"/>
      <point x="66" y="473" type="curve" smooth="yes"/>
      <point x="66" y="166" type="line" smooth="yes"/>
      <point x="66" y="49"/>
      <point x="157" y="-10"/>
    </contour>
    <contour>
      <point x="340" y="55" type="curve" smooth="yes"/>
      <point x="219" y="55"/>
      <point x="159" y="92"/>
      <point x="159" y="167" type="curve" smooth="yes"/>
      <point x="159" y="476" type="line" smooth="yes"/>
      <point x="159" y="570"/>
      <point x="233" y="596"/>
      <point x="339" y="596" type="curve" smooth="yes"/>
      <point x="459" y="596"/>
      <point x="519" y="556"/>
      <point x="519" y="476" type="curve" smooth="yes"/>
      <point x="519" y="167" type="line"/>
      <point x="519" y="92"/>
      <point x="459" y="55"/>
    </contour>
  </outline>
</glyph>
<glyph name="T" format="2">
  <advance width="585"/>
  <unicode hex="0054"/>
  <outline>
    <contour>
      <point x="244" y="0" type="line"/>
      <point x="342" y="0" type="line"/>
      <point x="342" y="581" type="line"/>
      <point x="561" y="581" type="line"/>
      <point x="561" y="649" type="line"/>
      <point x="24" y="649" type="line"/>
      <point x="24" y="581" type="line"/>
      <point x="244" y="581" type="line"/>
    </contour>
  </outline>
</glyph>
<glyph name="U" format="2">
  <advance width="676"/>
  <unicode hex="0055"/>
  <anchor x="338" y="0" name="bottom"/>
  <anchor x="608" y="10" name="ogonek"/>
  <anchor x="338" y="649" name="top"/>
  <anchor x="605" y="649" name="topright"/>
  <outline>
    <contour>
      <point x="337" y="-10" type="curve" smooth="yes"/>
      <point x="506" y="-10"/>
      <point x="591" y="49"/>
      <point x="591" y="166" type="curve" smooth="yes"/>
      <point x="591" y="649" type="line"/>
      <point x="498" y="649" type="line"/>
      <point x="498" y="167" type="line" smooth="yes"/>
      <point x="498" y="82"/>
      <point x="440" y="55"/>
      <point x="339" y="55" type="curve" smooth="yes"/>
      <point x="238" y="55"/>
      <point x="177" y="82"/>
      <point x="177" y="167" type="curve" smooth="yes"/>
      <point x="177" y="649" type="line"/>
      <point x="84" y="649" type="line"/>
      <point x="84" y="166" type="line" smooth="yes"/>
      <point x="84" y="94"/>
      <point x="115" y="44"/>
      <point x="167" y="21" type="curve" smooth="yes"/>
      <point x="219" y="-3"/>
      <point x="269" y="-10"/>
    </contour>
  </outline>
</glyph>
<glyph name="V" format="2">
  <advance width="652"/>
  <unicode hex="0056"/>
  <outline>
    <contour>
      <point x="267" y="0" type="line"/>
      <point x="379" y="0" type="line"/>
      <point x="637" y="649" type="line"/>
      <point x="541" y="649" type="line"/>
      <point x="333" y="92" type="line"/>
      <point x="324" y="92" type="line"/>
      <point x="116" y="649" type="line"/>
      <point x="15" y="649" type="line"/>
    </contour>
  </outline>
</glyph>
<glyph name="X" format="2">
  <advance width="604"/>
  <unicode hex="0058"/>
  <outline>
    <contour>
      <point x="8" y="0" type="line"/>
      <point x="119" y="0" type="line"/>
      <point x="302" y="264" type="line"/>
      <point x="485" y="0" type="line"/>
      <point x="596" y="0" type="line"/>
      <point x="357" y="331" type="line"/>
      <point x="586" y="649" type="line"/>
      <point x="475" y="649" type="line"/>
      <point x="302" y="398" type="line"/>
      <point x="129" y="649" type="line"/>
      <point x="18" y="649" type="line"/>
      <point x="247" y="331" type="line"/>
    </contour>
  </outline>
</glyph>
<glyph name="Y" format="2">
  <advance width="584"/>
  <unicode hex="0059"/>
  <anchor x="292" y="0" name="bottom"/>
  <anchor x="292" y="649" name="top"/>
  <anchor x="20" y="649" name="topleft"/>
  <outline>
    <contour>
      <point x="243" y="0" type="line"/>
      <point x="340" y="0" type="line"/>
      <point x="340" y="265" type="line"/>
      <point x="576" y="649" type="line"/>
      <point x="465" y="649" type="line"/>
      <point x="292" y="344" type="line"/>
      <point x="119" y="649" type="line"/>
      <point x="8" y="649" type="line"/>
      <point x="243" y="262" type="line"/>
    </contour>
  </outline>
</glyph>
<glyph name="bracketleft" format="2">
  <advance width="330"/>
  <unicode hex="005B"/>
  <outline>
    <contour>
      <point x="84" y="-190" type="line"/>
      <point x="310" y="-190" type="line"/>
      <point x="310" y="-142" type="line"/>
      <point x="171" y="-142" type="line"/>
      <point x="171" y="688" type="line"/>
      <point x="310" y="688" type="line"/>
      <point x="310" y="736" type="line"/>
      <point x="84" y="736" type="line"/>
    </contour>
  </outline>
</glyph>
<glyph name="backslash" format="2">
  <advance width="421"/>
  <unicode hex="005C"/>
  <outline>
    <contour>
      <point x="334" y="-10" type="line"/>
      <point x="411" y="-10" type="line"/>
      <point x="87" y="659" type="line"/>
      <point x="10" y="659" type="line"/>
    </contour>
  </outline>
</glyph>
<glyph name="bracketright" format="2">
  <advance width="330"/>
  <unicode hex="005D"/>
  <outline>
    <contour>
      <point x="20" y="-190" type="line"/>
      <point x="246" y="-190" type="line"/>
      <point x="246" y="736" type="line"/>
      <point x="20" y="736" type="line"/>
      <point x="20" y="688" type="line"/>
      <point x="159" y="688" type="line"/>
      <point x="159" y="-142" type="line"/>
      <point x="20" y="-142" type="line"/>
    </contour>
  </outline>
</glyph>
<glyph name="asciicircum" format="2">
  <advance width="321"/>
  <unicode hex="005E"/>
  <outline>
    <contour>
      <point x="20" y="453" type="line"/>
      <point x="88" y="453" type="line"/>
      <point x="160" y="640" type="line"/>
      <point x="233" y="453" type="line"/>
      <point x="301" y="453" type="line"/>
      <point x="223" y="680" type="line"/>
      <point x="96" y="680" type="line"/>
    </contour>
  </outline>
</glyph>
<glyph name="underscore" format="2">
  <advance width="580"/>
  <unicode hex="005F"/>
  <outline>
    <contour>
      <point x="71" y="-141" type="line"/>
      <point x="509" y="-141" type="line"/>
      <point x="509" y="-70" type="line"/>
      <point x="71" y="-70" type="line"/>
    </contour>
  </outline>
</glyph>
<glyph name="grave" format="2">
  <advance width="399"/>
  <unicode hex="0060"/>
  <outline>
    <contour>
      <point x="225" y="553" type="line"/>
      <point x="299" y="553" type="line"/>
      <point x="209" y="680" type="line"/>
      <point x="100" y="680" type="line"/>
    </contour>
  </outline>
</glyph>
<glyph name="b" format="2">
  <advance width="579"/>
  <unicode hex="0062"/>
  <outline>
    <contour>
      <point x="294" y="-10" type="curve" smooth="yes"/>
      <point x="321" y="-10"/>
      <point x="343" y="-9"/>
      <point x="362" y="-7" type="curve" smooth="yes"/>
      <point x="399" y="-4"/>
      <point x="448" y="9"/>
      <point x="474" y="33" type="curve" smooth="yes"/>
      <point x="500" y="56"/>
      <point x="519" y="99"/>
      <point x="519" y="158" type="curve" smooth="yes"/>
      <point x="519" y="357" type="line"/>
      <point x="519" y="448"/>
      <point x="452" y="494"/>
      <point x="319" y="494" type="curve" smooth="yes"/>
      <point x="270" y="494"/>
      <point x="234" y="489"/>
      <point x="209" y="479" type="curve" smooth="yes"/>
      <point x="184" y="468"/>
      <point x="170" y="455"/>
      <point x="167" y="440" type="curve"/>
      <point x="167" y="453"/>
      <point x="167" y="472"/>
      <point x="168" y="498" type="curve" smooth="yes"/>
      <point x="168" y="523"/>
      <point x="168" y="542"/>
      <point x="168" y="555" type="curve" smooth="yes"/>
      <point x="168" y="700" type="line"/>
      <point x="78" y="700" type="line"/>
      <point x="78" y="158" type="line" smooth="yes"/>
      <point x="78" y="85"/>
      <point x="99" y="37"/>
      <point x="143" y="16" type="curve" smooth="yes"/>
      <point x="187" y="-5"/>
      <point x="225" y="-10"/>
    </contour>
    <contour>
      <point x="296" y="49" type="curve" smooth="yes"/>
      <point x="199" y="49"/>
      <point x="168" y="64"/>
      <point x="168" y="145" type="curve" smooth="yes"/>
      <point x="168" y="335" type="line" smooth="yes"/>
      <point x="168" y="411"/>
      <point x="200" y="430"/>
      <point x="295" y="430" type="curve" smooth="yes"/>
      <point x="394" y="430"/>
      <point x="427" y="418"/>
      <point x="427" y="335" type="curve" smooth="yes"/>
      <point x="427" y="145" type="line"/>
      <point x="427" y="64"/>
      <point x="395" y="49"/>
    </contour>
  </outline>
</glyph>
<glyph name="d" format="2">
  <advance width="571"/>
  <unicode hex="0064"/>
  <anchor x="286" y="0" name="bottom"/>
  <anchor x="393" y="590" name="center"/>
  <anchor x="286" y="484" name="top"/>
  <anchor x="551" y="484" name="topright"/>
  <outline>
    <contour>
      <point x="251" y="-10" type="curve" smooth="yes"/>
      <point x="301" y="-10"/>
      <point x="341" y="-3"/>
      <point x="370" y="11" type="curve" smooth="yes"/>
      <point x="399" y="24"/>
      <point x="413" y="40"/>
      <point x="413" y="57" type="curve" smooth="yes"/>
      <point x="413" y="0" type="line"/>
      <point x="501" y="0" type="line"/>
      <point x="501" y="700" type="line"/>
      <point x="411" y="700" type="line"/>
      <point x="411" y="555" type="line" smooth="yes"/>
      <point x="411" y="528"/>
      <point x="412" y="487"/>
      <point x="413" y="432" type="curve"/>
      <point x="411" y="432" type="line"/>
      <point x="410" y="475"/>
      <point x="332" y="494"/>
      <point x="256" y="494" type="curve" smooth="yes"/>
      <point x="115" y="494"/>
      <point x="60" y="454"/>
      <point x="60" y="357" type="curve" smooth="yes"/>
      <point x="60" y="144" type="line" smooth="yes"/>
      <point x="60" y="27"/>
      <point x="111" y="-10"/>
    </contour>
    <contour>
      <point x="270" y="52" type="curve" smooth="yes"/>
      <point x="182" y="52"/>
      <point x="149" y="72"/>
      <point x="149" y="127" type="curve" smooth="yes"/>
      <point x="149" y="366" type="line" smooth="yes"/>
      <point x="149" y="393"/>
      <point x="157" y="411"/>
      <point x="174" y="419" type="curve" smooth="yes"/>
      <point x="190" y="427"/>
      <point x="225" y="431"/>
      <point x="278" y="431" type="curve" smooth="yes"/>
      <point x="367" y="431"/>
      <point x="411" y="409"/>
      <point x="411" y="366" type="curve" smooth="yes"/>
      <point x="411" y="127" type="line"/>
      <point x="411" y="72"/>
      <point x="369" y="52"/>
    </contour>
  </outline>
</glyph>
<glyph name="f" format="2">
  <advance width="380"/>
  <unicode hex="0066"/>
  <outline>
    <contour>
      <point x="121" y="0" type="line"/>
      <point x="211" y="0" type="line"/>
      <point x="211" y="425" type="line"/>
      <point x="372" y="425" type="line"/>
      <point x="372" y="484" type="line"/>
      <point x="211" y="484" type="line"/>
      <point x="211" y="568" type="line" smooth="yes"/>
      <point x="211" y="633"/>
      <point x="239" y="651"/>
      <point x="304" y="651" type="curve" smooth="yes"/>
      <point x="333" y="651"/>
      <point x="359" y="649"/>
      <point x="382" y="646" type="curve"/>
      <point x="382" y="705" type="line"/>
      <point x="354" y="708"/>
      <point x="327" y="710"/>
      <point x="301" y="710" type="curve" smooth="yes"/>
      <point x="184" y="710"/>
      <point x="121" y="671"/>
      <point x="121" y="562" type="curve" smooth="yes"/>
      <point x="121" y="484" type="line"/>
      <point x="10" y="484" type="line"/>
      <point x="10" y="425" type="line"/>
      <point x="121" y="425" type="line"/>
    </contour>
  </outline>
</glyph>
<glyph name="h" format="2">
  <advance width="573"/>
  <unicode hex="0068"/>
  <outline>
    <contour>
      <point x="78" y="0" type="line"/>
      <point x="168" y="0" type="line"/>
      <point x="168" y="349" type="line" smooth="yes"/>
      <point x="168" y="408"/>
      <point x="190" y="429"/>
      <point x="301" y="429" type="curve" smooth="yes"/>
      <point x="346" y="429"/>
      <point x="377" y="420"/>
      <point x="390" y="404" type="curve"/>
      <point x="402" y="387"/>
      <point x="405" y="373"/>
      <point x="405" y="349" type="curve" smooth="yes"/>
      <point x="405" y="0" type="line"/>
      <point x="495" y="0" type="line"/>
      <point x="495" y="355" type="line"/>
      <point x="495" y="448"/>
      <point x="455" y="494"/>
      <point x="327" y="494" type="curve" smooth="yes"/>
      <point x="230" y="494"/>
      <point x="177" y="471"/>
      <point x="168" y="425" type="curve"/>
      <point x="168" y="700" type="line"/>
      <point x="78" y="700" type="line"/>
    </contour>
  </outline>
</glyph>
<glyph name="i" format="2">
  <advance width="246"/>
  <unicode hex="0069"/>
  <anchor x="123" y="0" name="bottom"/>
  <outline>
    <contour>
      <point x="78" y="0" type="line"/>
      <point x="168" y="0" type="line"/>
      <point x="168" y="484" type="line"/>
      <point x="78" y="484" type="line"/>
    </contour>
    <contour>
      <point x="78" y="565" type="line"/>
      <point x="168" y="565" type="line"/>
      <point x="168" y="659" type="line"/>
      <point x="78" y="659" type="line"/>
    </contour>
  </outline>
</glyph>
<glyph name="j" format="2">
  <advance width="247"/>
  <unicode hex="006A"/>
  <outline>
    <contour>
      <point x="8" y="-220" type="curve" smooth="yes"/>
      <point x="119" y="-220"/>
      <point x="169" y="-184"/>
      <point x="169" y="-73" type="curve" smooth="yes"/>
      <point x="169" y="484" type="line"/>
      <point x="79" y="484" type="line"/>
      <point x="79" y="-80" type="line" smooth="yes"/>
      <point x="79" y="-144"/>
      <point x="51" y="-161"/>
      <point x="-5" y="-161" type="curve" smooth="yes"/>
      <point x="-14" y="-161"/>
      <point x="-27" y="-160"/>
      <point x="-43" y="-157" type="curve"/>
      <point x="-43" y="-216" type="line"/>
      <point x="-26" y="-219"/>
      <point x="-9" y="-220"/>
    </contour>
    <contour>
      <point x="79" y="565" type="line"/>
      <point x="169" y="565" type="line"/>
      <point x="169" y="659" type="line"/>
      <point x="79" y="659" type="line"/>
    </contour>
  </outline>
</glyph>
<glyph name="k" format="2">
  <advance width="514"/>
  <unicode hex="006B"/>
  <outline>
    <contour>
      <point x="400" y="0" type="line"/>
      <point x="512" y="0" type="line"/>
      <point x="283" y="265" type="line"/>
      <point x="493" y="484" type="line"/>
      <point x="383" y="484" type="line"/>
      <point x="179" y="265" type="line"/>
    </contour>
    <contour>
      <point x="78" y="0" type="line"/>
      <point x="168" y="0" type="line"/>
      <point x="168" y="700" type="line"/>
      <point x="78" y="700" type="line"/>
    </contour>
  </outline>
</glyph>
<glyph name="m" format="2">
  <advance width="890"/>
  <unicode hex="006D"/>
  <outline>
    <contour>
      <point x="78" y="0" type="line"/>
      <point x="168" y="0" type="line"/>
      <point x="168" y="349" type="line" smooth="yes"/>
      <point x="168" y="412"/>
      <point x="194" y="429"/>
      <point x="301" y="429" type="curve" smooth="yes"/>
      <point x="346" y="429"/>
      <point x="376" y="420"/>
      <point x="389" y="404" type="curve"/>
      <point x="401" y="387"/>
      <point x="404" y="373"/>
      <point x="404" y="349" type="curve" smooth="yes"/>
      <point x="404" y="0" type="line"/>
      <point x="494" y="0" type="line"/>
      <point x="494" y="349" type="line" smooth="yes"/>
      <point x="494" y="410"/>
      <point x="513" y="429"/>
      <point x="618" y="429" type="curve" smooth="yes"/>
      <point x="663" y="429"/>
      <point x="694" y="420"/>
      <point x="707" y="404" type="curve"/>
      <point x="719" y="387"/>
      <point x="722" y="373"/>
      <point x="722" y="349" type="curve" smooth="yes"/>
      <point x="722" y="0" type="line"/>
      <point x="812" y="0" type="line"/>
      <point x="812" y="355" type="line"/>
      <point x="812" y="448"/>
      <point x="772" y="494"/>
      <point x="648" y="494" type="curve" smooth="yes"/>
      <point x="564" y="494"/>
      <point x="495" y="473"/>
      <point x="482" y="428" type="curve"/>
      <point x="462" y="472"/>
      <point x="412" y="494"/>
      <point x="331" y="494" type="curve" smooth="yes"/>
      <point x="232" y="494"/>
      <point x="177" y="471"/>
      <point x="168" y="425" type="curve"/>
      <point x="168" y="484" type="line"/>
      <point x="78" y="484" type="line"/>
    </contour>
  </outline>
</glyph>
<glyph name="r" format="2">
  <advance width="351"/>
  <unicode hex="0072"/>
  <outline>
    <contour>
      <point x="78" y="0" type="line"/>
      <point x="168" y="0" type="line"/>
      <point x="168" y="341" type="line" smooth="yes"/>
      <point x="168" y="400"/>
      <point x="206" y="417"/>
      <point x="289" y="417" type="curve" smooth="yes"/>
      <point x="339" y="417" type="line"/>
      <point x="339" y="494" type="line"/>
      <point x="295" y="494" type="line" smooth="yes"/>
      <point x="235" y="494"/>
      <point x="163" y="452"/>
      <point x="163" y="405" type="curve" smooth="yes"/>
      <point x="163" y="484" type="line"/>
      <point x="78" y="484" type="line"/>
    </contour>
  </outline>
</glyph>
<glyph name="t" format="2">
  <advance width="402"/>
  <unicode hex="0074"/>
  <outline>
    <contour>
      <point x="281" y="-10" type="curve" smooth="yes"/>
      <point x="316" y="-10"/>
      <point x="350" y="-7"/>
      <point x="382" y="-2" type="curve"/>
      <point x="382" y="57" type="line"/>
      <point x="345" y="52"/>
      <point x="321" y="49"/>
      <point x="310" y="49" type="curve" smooth="yes"/>
      <point x="229" y="49"/>
      <point x="209" y="67"/>
      <point x="209" y="136" type="curve" smooth="yes"/>
      <point x="209" y="425" type="line"/>
      <point x="382" y="425" type="line"/>
      <point x="382" y="484" type="line"/>
      <point x="209" y="484" type="line"/>
      <point x="209" y="634" type="line"/>
      <point x="118" y="634" type="line"/>
      <point x="118" y="484" type="line"/>
      <point x="10" y="484" type="line"/>
      <point x="10" y="425" type="line"/>
      <point x="118" y="425" type="line"/>
      <point x="118" y="141" type="line" smooth="yes"/>
      <point x="118" y="24"/>
      <point x="160" y="-10"/>
    </contour>
  </outline>
</glyph>
<glyph name="v" format="2">
  <advance width="463"/>
  <unicode hex="0076"/>
  <outline>
    <contour>
      <point x="180" y="0" type="line"/>
      <point x="288" y="0" type="line"/>
      <point x="457" y="484" type="line"/>
      <point x="370" y="484" type="line"/>
      <point x="240" y="78" type="line"/>
      <point x="235" y="78" type="line"/>
      <point x="101" y="484" type="line"/>
      <point x="6" y="484" type="line"/>
    </contour>
  </outline>
</glyph>
<glyph name="x" format="2">
  <advance width="479"/>
  <unicode hex="0078"/>
  <outline>
    <contour>
      <point x="10" y="0" type="line"/>
      <point x="109" y="0" type="line"/>
      <point x="239" y="191" type="line"/>
      <point x="370" y="0" type="line"/>
      <point x="469" y="0" type="line"/>
      <point x="289" y="249" type="line"/>
      <point x="459" y="484" type="line"/>
      <point x="360" y="484" type="line"/>
      <point x="239" y="307" type="line"/>
      <point x="119" y="484" type="line"/>
      <point x="20" y="484" type="line"/>
      <point x="190" y="249" type="line"/>
    </contour>
  </outline>
</glyph>
<glyph name="y" format="2">
  <advance width="460"/>
  <unicode hex="0079"/>
  <anchor x="354" y="0" name="bottom"/>
  <anchor x="230" y="484" name="top"/>
  <outline>
    <contour>
      <point x="117" y="-208" type="line"/>
      <point x="211" y="-208" type="line"/>
      <point x="454" y="484" type="line"/>
      <point x="363" y="484" type="line"/>
      <point x="241" y="89" type="line"/>
      <point x="239" y="89" type="line"/>
      <point x="104" y="484" type="line"/>
      <point x="6" y="484" type="line"/>
      <point x="193" y="-7" type="line"/>
    </contour>
  </outline>
</glyph>
<glyph name="braceleft" format="2">
  <advance width="330"/>
  <unicode hex="007B"/>
  <outline>
    <contour>
      <point x="267" y="-190" type="curve" smooth="yes"/>
      <point x="286" y="-190" type="line"/>
      <point x="286" y="-142" type="line"/>
      <point x="276" y="-142" type="line" smooth="yes"/>
      <point x="243" y="-142"/>
      <point x="215" y="-118"/>
      <point x="215" y="-77" type="curve" smooth="yes"/>
      <point x="215" y="157" type="line" smooth="yes"/>
      <point x="215" y="240"/>
      <point x="197" y="277"/>
      <point x="136" y="297" type="curve"/>
      <point x="136" y="301" type="line"/>
      <point x="197" y="322"/>
      <point x="215" y="360"/>
      <point x="215" y="441" type="curve" smooth="yes"/>
      <point x="215" y="623" type="line" smooth="yes"/>
      <point x="215" y="664"/>
      <point x="243" y="688"/>
      <point x="276" y="688" type="curve" smooth="yes"/>
      <point x="286" y="688" type="line"/>
      <point x="286" y="736" type="line"/>
      <point x="267" y="736" type="line" smooth="yes"/>
      <point x="253" y="736"/>
      <point x="243" y="736"/>
      <point x="236" y="736" type="curve" smooth="yes"/>
      <point x="222" y="735"/>
      <point x="193" y="731"/>
      <point x="181" y="724" type="curve" smooth="yes"/>
      <point x="168" y="716"/>
      <point x="149" y="701"/>
      <point x="141" y="680" type="curve" smooth="yes"/>
      <point x="133" y="659"/>
      <point x="126" y="627"/>
      <point x="126" y="584" type="curve" smooth="yes"/>
      <point x="126" y="406" type="line" smooth="yes"/>
      <point x="126" y="331"/>
      <point x="123" y="325"/>
      <point x="64" y="325" type="curve"/>
      <point x="64" y="273" type="line"/>
      <point x="123" y="273"/>
      <point x="126" y="267"/>
      <point x="126" y="192" type="curve" smooth="yes"/>
      <point x="126" y="-38" type="line" smooth="yes"/>
      <point x="126" y="-59"/>
      <point x="128" y="-78"/>
      <point x="131" y="-94" type="curve" smooth="yes"/>
      <point x="137" y="-126"/>
      <point x="143" y="-146"/>
      <point x="159" y="-161" type="curve" smooth="yes"/>
      <point x="175" y="-176"/>
      <point x="184" y="-182"/>
      <point x="208" y="-186" type="curve" smooth="yes"/>
      <point x="231" y="-190"/>
      <point x="239" y="-190"/>
    </contour>
  </outline>
</glyph>
<glyph name="bar" format="2">
  <advance width="335"/>
  <unicode hex="007C"/>
  <outline>
    <contour>
      <point x="140" y="-10" type="line"/>
      <point x="195" y="-10" type="line"/>
      <point x="195" y="659" type="line"/>
      <point x="140" y="659" type="line"/>
    </contour>
  </outline>
</glyph>
<glyph name="braceright" format="2">
  <advance width="330"/>
  <unicode hex="007D"/>
  <outline>
    <contour>
      <point x="44" y="-190" type="line"/>
      <point x="63" y="-190" type="line"/>
      <point x="77" y="-190"/>
      <point x="88" y="-190"/>
      <point x="95" y="-189" type="curve"/>
      <point x="109" y="-189"/>
      <point x="137" y="-185"/>
      <point x="150" y="-177" type="curve" smooth="yes"/>
      <point x="162" y="-170"/>
      <point x="181" y="-155"/>
      <point x="189" y="-134" type="curve" smooth="yes"/>
      <point x="197" y="-113"/>
      <point x="204" y="-81"/>
      <point x="204" y="-38" type="curve" smooth="yes"/>
      <point x="204" y="192" type="line" smooth="yes"/>
      <point x="204" y="267"/>
      <point x="207" y="273"/>
      <point x="266" y="273" type="curve"/>
      <point x="266" y="325" type="line"/>
      <point x="207" y="325"/>
      <point x="204" y="331"/>
      <point x="204" y="406" type="curve" smooth="yes"/>
      <point x="204" y="584" type="line" smooth="yes"/>
      <point x="204" y="605"/>
      <point x="203" y="624"/>
      <point x="200" y="640" type="curve" smooth="yes"/>
      <point x="194" y="672"/>
      <point x="187" y="692"/>
      <point x="171" y="707" type="curve" smooth="yes"/>
      <point x="155" y="722"/>
      <point x="146" y="728"/>
      <point x="123" y="732" type="curve" smooth="yes"/>
      <point x="99" y="736"/>
      <point x="91" y="736"/>
      <point x="63" y="736" type="curve" smooth="yes"/>
      <point x="44" y="736" type="line"/>
      <point x="44" y="688" type="line"/>
      <point x="54" y="688" type="line" smooth="yes"/>
      <point x="87" y="688"/>
      <point x="115" y="664"/>
      <point x="115" y="623" type="curve" smooth="yes"/>
      <point x="115" y="441" type="line" smooth="yes"/>
      <point x="115" y="360"/>
      <point x="133" y="322"/>
      <point x="194" y="301" type="curve"/>
      <point x="194" y="297" type="line"/>
      <point x="133" y="277"/>
      <point x="115" y="240"/>
      <point x="115" y="157" type="curve" smooth="yes"/>
      <point x="115" y="-77" type="line" smooth="yes"/>
      <point x="115" y="-118"/>
      <point x="87" y="-142"/>
      <point x="54" y="-142" type="curve" smooth="yes"/>
      <point x="44" y="-142" type="line"/>
    </contour>
  </outline>
</glyph>
<glyph name="asciitilde" format="2">
  <advance width="580"/>
  <unicode hex="007E"/>
  <outline>
    <contour>
      <point x="68" y="235" type="line"/>
      <point x="96" y="278"/>
      <point x="130" y="296"/>
      <point x="186" y="296" type="curve" smooth="yes"/>
      <point x="206" y="296"/>
      <point x="240" y="286"/>
      <point x="287" y="267" type="curve" smooth="yes"/>
      <point x="334" y="247"/>
      <point x="368" y="237"/>
      <point x="389" y="237" type="curve" smooth="yes"/>
      <point x="447" y="237"/>
      <point x="488" y="252"/>
      <point x="512" y="283" type="curve"/>
      <point x="512" y="364" type="line"/>
      <point x="487" y="323"/>
      <point x="447" y="302"/>
      <point x="393" y="302" type="curve" smooth="yes"/>
      <point x="377" y="302"/>
      <point x="346" y="312"/>
      <point x="299" y="332" type="curve" smooth="yes"/>
      <point x="252" y="351"/>
      <point x="215" y="361"/>
      <point x="190" y="361" type="curve" smooth="yes"/>
      <point x="133" y="361"/>
      <point x="93" y="346"/>
      <point x="68" y="316" type="curve"/>
    </contour>
  </outline>
</glyph>
<glyph name="exclamdown" format="2">
  <advance width="280"/>
  <unicode hex="00A1"/>
  <outline>
    <contour>
      <point x="80" y="-165" type="line"/>
      <point x="200" y="-165" type="line"/>
      <point x="165" y="305" type="line"/>
      <point x="115" y="305" type="line"/>
    </contour>
    <contour>
      <point x="82" y="376" type="line"/>
      <point x="198" y="376" type="line"/>
      <point x="198" y="484" type="line"/>
      <point x="82" y="484" type="line"/>
    </contour>
  </outline>
</glyph>
<glyph name="cent" format="2">
  <advance width="580"/>
  <unicode hex="00A2"/>
  <outline>
    <contour>
      <point x="295" y="-10" type="line"/>
      <point x="352" y="-10" type="line"/>
      <point x="352" y="73" type="line"/>
      <point x="404" y="74"/>
      <point x="446" y="79"/>
      <point x="479" y="87" type="curve"/>
      <point x="479" y="155" type="line"/>
      <point x="429" y="142"/>
      <point x="380" y="136"/>
      <point x="333" y="136" type="curve" smooth="yes"/>
      <point x="226" y="136"/>
      <point x="203" y="150"/>
      <point x="203" y="222" type="curve" smooth="yes"/>
      <point x="203" y="422" type="line" smooth="yes"/>
      <point x="203" y="503"/>
      <point x="222" y="516"/>
      <point x="323" y="516" type="curve" smooth="yes"/>
      <point x="366" y="516"/>
      <point x="415" y="509"/>
      <point x="472" y="496" type="curve"/>
      <point x="472" y="562" type="line"/>
      <point x="435" y="569"/>
      <point x="395" y="574"/>
      <point x="352" y="576" type="curve"/>
      <point x="352" y="659" type="line"/>
      <point x="295" y="659" type="line"/>
      <point x="295" y="576" type="line"/>
      <point x="235" y="575"/>
      <point x="201" y="568"/>
      <point x="165" y="546" type="curve" smooth="yes"/>
      <point x="128" y="524"/>
      <point x="111" y="478"/>
      <point x="111" y="409" type="curve" smooth="yes"/>
      <point x="111" y="231" type="line" smooth="yes"/>
      <point x="111" y="163"/>
      <point x="129" y="120"/>
      <point x="166" y="100" type="curve"/>
      <point x="202" y="79"/>
      <point x="236" y="73"/>
      <point x="295" y="73" type="curve"/>
    </contour>
  </outline>
</glyph>
<glyph name="sterling" format="2">
  <advance width="580"/>
  <unicode hex="00A3"/>
  <outline>
    <contour>
      <point x="76" y="0" type="line"/>
      <point x="536" y="0" type="line"/>
      <point x="536" y="65" type="line"/>
      <point x="277" y="65" type="line"/>
      <point x="277" y="317" type="line"/>
      <point x="448" y="317" type="line"/>
      <point x="448" y="379" type="line"/>
      <point x="277" y="379" type="line"/>
      <point x="277" y="477" type="line" smooth="yes"/>
      <point x="277" y="580"/>
      <point x="300" y="599"/>
      <point x="411" y="599" type="curve" smooth="yes"/>
      <point x="420" y="599" type="line" smooth="yes"/>
      <point x="442" y="599"/>
      <point x="465" y="597"/>
      <point x="488" y="594" type="curve"/>
      <point x="488" y="654" type="line"/>
      <point x="460" y="657"/>
      <point x="426" y="659"/>
      <point x="387" y="659" type="curve" smooth="yes"/>
      <point x="315" y="659"/>
      <point x="274" y="653"/>
      <point x="238" y="626" type="curve" smooth="yes"/>
      <point x="202" y="599"/>
      <point x="187" y="551"/>
      <point x="187" y="471" type="curve" smooth="yes"/>
      <point x="187" y="379" type="line"/>
      <point x="76" y="379" type="line"/>
      <point x="76" y="317" type="line"/>
      <point x="187" y="317" type="line"/>
      <point x="187" y="65" type="line"/>
      <point x="76" y="65" type="line"/>
    </contour>
  </outline>
</glyph>
<glyph name="currency" format="2">
  <advance width="580"/>
  <unicode hex="00A4"/>
  <outline>
    <contour>
      <point x="288" y="89" type="curve" smooth="yes"/>
      <point x="345" y="89"/>
      <point x="399" y="109"/>
      <point x="451" y="150" type="curve"/>
      <point x="505" y="96" type="line"/>
      <point x="531" y="122" type="line"/>
      <point x="477" y="176" type="line"/>
      <point x="518" y="227"/>
      <point x="539" y="282"/>
      <point x="539" y="339" type="curve" smooth="yes"/>
      <point x="539" y="396"/>
      <point x="518" y="451"/>
      <point x="477" y="502" type="curve"/>
      <point x="531" y="556" type="line"/>
      <point x="505" y="582" type="line"/>
      <point x="451" y="528" type="line"/>
      <point x="402" y="566"/>
      <point x="348" y="585"/>
      <point x="288" y="585" type="curve" smooth="yes"/>
      <point x="233" y="585"/>
      <point x="181" y="565"/>
      <point x="130" y="526" type="curve"/>
      <point x="76" y="580" type="line"/>
      <point x="50" y="554" type="line"/>
      <point x="104" y="500" type="line"/>
      <point x="63" y="449"/>
      <point x="42" y="394"/>
      <point x="42" y="337" type="curve" smooth="yes"/>
      <point x="42" y="280"/>
      <point x="63" y="225"/>
      <point x="104" y="174" type="curve"/>
      <point x="50" y="120" type="line"/>
      <point x="76" y="94" type="line"/>
      <point x="130" y="148" type="line"/>
      <point x="181" y="109"/>
      <point x="233" y="89"/>
    </contour>
    <contour>
      <point x="292" y="129" type="curve" smooth="yes"/>
      <point x="176" y="129"/>
      <point x="82" y="221"/>
      <point x="82" y="337" type="curve" smooth="yes"/>
      <point x="82" y="456"/>
      <point x="176" y="545"/>
      <point x="293" y="545" type="curve" smooth="yes"/>
      <point x="406" y="545"/>
      <point x="499" y="451"/>
      <point x="499" y="339" type="curve" smooth="yes"/>
      <point x="499" y="224"/>
      <point x="407" y="129"/>
    </contour>
  </outline>
</glyph>
<glyph name="yen" format="2">
  <advance width="580"/>
  <unicode hex="00A5"/>
  <outline>
    <contour>
      <point x="243" y="0" type="line"/>
      <point x="340" y="0" type="line"/>
      <point x="340" y="113" type="line"/>
      <point x="509" y="113" type="line"/>
      <point x="509" y="184" type="line"/>
      <point x="340" y="184" type="line"/>
      <point x="340" y="265" type="line"/>
      <point x="346" y="275" type="line"/>
      <point x="509" y="275" type="line"/>
      <point x="509" y="346" type="line"/>
      <point x="390" y="346" type="line"/>
      <point x="576" y="649" type="line"/>
      <point x="465" y="649" type="line"/>
      <point x="293" y="346" type="line"/>
      <point x="291" y="346" type="line"/>
      <point x="119" y="649" type="line"/>
      <point x="8" y="649" type="line"/>
      <point x="192" y="346" type="line"/>
      <point x="71" y="346" type="line"/>
      <point x="71" y="275" type="line"/>
      <point x="235" y="275" type="line"/>
      <point x="243" y="262" type="line"/>
      <point x="243" y="184" type="line"/>
      <point x="71" y="184" type="line"/>
      <point x="71" y="113" type="line"/>
      <point x="243" y="113" type="line"/>
    </contour>
  </outline>
</glyph>
<glyph name="brokenbar" format="2">
  <advance width="265"/>
  <unicode hex="00A6"/>
  <outline>
    <contour>
      <point x="105" y="298" type="line"/>
      <point x="160" y="298" type="line"/>
      <point x="160" y="649" type="line"/>
      <point x="105" y="649" type="line"/>
    </contour>
    <contour>
      <point x="105" y="-190" type="line"/>
      <point x="160" y="-190" type="line"/>
      <point x="160" y="161" type="line"/>
      <point x="105" y="161" type="line"/>
    </contour>
  </outline>
</glyph>
<glyph name="section" format="2">
  <advance width="580"/>
  <unicode hex="00A7"/>
  <outline>
    <contour>
      <point x="272" y="-115" type="curve" smooth="yes"/>
      <point x="411" y="-115"/>
      <point x="494" y="-81"/>
      <point x="494" y="23" type="curve" smooth="yes"/>
      <point x="494" y="74" type="line"/>
      <point x="494" y="106"/>
      <point x="479" y="133"/>
      <point x="448" y="154" type="curve"/>
      <point x="485" y="165"/>
      <point x="514" y="202"/>
      <point x="514" y="253" type="curve" smooth="yes"/>
      <point x="514" y="315" type="line" smooth="yes"/>
      <point x="514" y="391"/>
      <point x="463" y="429"/>
      <point x="360" y="429" type="curve" smooth="yes"/>
      <point x="265" y="429" type="line" smooth="yes"/>
      <point x="205" y="429"/>
      <point x="175" y="445"/>
      <point x="175" y="478" type="curve" smooth="yes"/>
      <point x="175" y="517" type="line" smooth="yes"/>
      <point x="175" y="538"/>
      <point x="185" y="554"/>
      <point x="205" y="564" type="curve" smooth="yes"/>
      <point x="225" y="573"/>
      <point x="259" y="578"/>
      <point x="308" y="578" type="curve" smooth="yes"/>
      <point x="363" y="578"/>
      <point x="417" y="573"/>
      <point x="469" y="562" type="curve"/>
      <point x="469" y="626" type="line"/>
      <point x="422" y="635"/>
      <point x="369" y="639"/>
      <point x="312" y="639" type="curve" smooth="yes"/>
      <point x="161" y="639"/>
      <point x="86" y="601"/>
      <point x="86" y="525" type="curve" smooth="yes"/>
      <point x="86" y="470" type="line" smooth="yes"/>
      <point x="86" y="433"/>
      <point x="101" y="407"/>
      <point x="132" y="390" type="curve"/>
      <point x="88" y="372"/>
      <point x="66" y="344"/>
      <point x="66" y="305" type="curve" smooth="yes"/>
      <point x="66" y="230" type="line" smooth="yes"/>
      <point x="66" y="157"/>
      <point x="126" y="112"/>
      <point x="229" y="112" type="curve" smooth="yes"/>
      <point x="316" y="112" type="line" smooth="yes"/>
      <point x="379" y="112"/>
      <point x="405" y="96"/>
      <point x="405" y="55" type="curve" smooth="yes"/>
      <point x="405" y="8" type="line" smooth="yes"/>
      <point x="405" y="-40"/>
      <point x="357" y="-51"/>
      <point x="274" y="-51" type="curve" smooth="yes"/>
      <point x="217" y="-51"/>
      <point x="157" y="-45"/>
      <point x="96" y="-34" type="curve"/>
      <point x="96" y="-103" type="line"/>
      <point x="156" y="-111"/>
      <point x="215" y="-115"/>
    </contour>
    <contour>
      <point x="265" y="179" type="line" smooth="yes"/>
      <point x="192" y="179"/>
      <point x="155" y="195"/>
      <point x="155" y="228" type="curve" smooth="yes"/>
      <point x="155" y="307" type="line"/>
      <point x="155" y="348"/>
      <point x="178" y="362"/>
      <point x="241" y="362" type="curve" smooth="yes"/>
      <point x="326" y="362" type="line" smooth="yes"/>
      <point x="392" y="362"/>
      <point x="425" y="343"/>
      <point x="425" y="305" type="curve" smooth="yes"/>
      <point x="425" y="238" type="line" smooth="yes"/>
      <point x="425" y="194"/>
      <point x="398" y="179"/>
      <point x="342" y="179" type="curve" smooth="yes"/>
    </contour>
  </outline>
</glyph>
<glyph name="dieresis" format="2">
  <advance width="460"/>
  <unicode hex="00A8"/>
  <outline>
    <contour>
      <point x="270" y="565" type="line"/>
      <point x="360" y="565" type="line"/>
      <point x="360" y="659" type="line"/>
      <point x="270" y="659" type="line"/>
    </contour>
    <contour>
      <point x="100" y="565" type="line"/>
      <point x="190" y="565" type="line"/>
      <point x="190" y="659" type="line"/>
      <point x="100" y="659" type="line"/>
    </contour>
  </outline>
</glyph>
<glyph name="copyright" format="2">
  <advance width="717"/>
  <unicode hex="00A9"/>
  <outline>
    <contour>
      <point x="372" y="-10" type="curve" smooth="yes"/>
      <point x="440" y="-10"/>
      <point x="500" y="-2"/>
      <point x="567" y="22" type="curve" smooth="yes"/>
      <point x="634" y="45"/>
      <point x="677" y="95"/>
      <point x="677" y="166" type="curve" smooth="yes"/>
      <point x="677" y="474" type="line"/>
      <point x="677" y="505"/>
      <point x="670" y="532"/>
      <point x="656" y="555" type="curve" smooth="yes"/>
      <point x="628" y="602"/>
      <point x="588" y="624"/>
      <point x="530" y="640" type="curve" smooth="yes"/>
      <point x="472" y="656"/>
      <point x="425" y="659"/>
      <point x="372" y="659" type="curve" smooth="yes"/>
      <point x="304" y="659"/>
      <point x="246" y="651"/>
      <point x="176" y="627" type="curve" smooth="yes"/>
      <point x="106" y="603"/>
      <point x="60" y="549"/>
      <point x="60" y="473" type="curve" smooth="yes"/>
      <point x="60" y="166" type="line" smooth="yes"/>
      <point x="60" y="137"/>
      <point x="67" y="112"/>
      <point x="82" y="90" type="curve" smooth="yes"/>
      <point x="110" y="46"/>
      <point x="152" y="24"/>
      <point x="211" y="9" type="curve" smooth="yes"/>
      <point x="270" y="-7"/>
      <point x="317" y="-10"/>
    </contour>
    <contour>
      <point x="374" y="52" type="curve" smooth="yes"/>
      <point x="323" y="52"/>
      <point x="276" y="57"/>
      <point x="224" y="73" type="curve" smooth="yes"/>
      <point x="172" y="88"/>
      <point x="138" y="120"/>
      <point x="138" y="164" type="curve" smooth="yes"/>
      <point x="138" y="481" type="line" smooth="yes"/>
      <point x="138" y="529"/>
      <point x="171" y="564"/>
      <point x="223" y="580" type="curve" smooth="yes"/>
      <point x="274" y="595"/>
      <point x="321" y="601"/>
      <point x="373" y="601" type="curve" smooth="yes"/>
      <point x="424" y="601"/>
      <point x="469" y="595"/>
      <point x="518" y="580" type="curve"/>
      <point x="566" y="564"/>
      <point x="598" y="529"/>
      <point x="598" y="481" type="curve" smooth="yes"/>
      <point x="598" y="164" type="line"/>
      <point x="598" y="117"/>
      <point x="564" y="85"/>
      <point x="513" y="71" type="curve" smooth="yes"/>
      <point x="462" y="57"/>
      <point x="421" y="52"/>
    </contour>
    <contour>
      <point x="372" y="142" type="curve" smooth="yes"/>
      <point x="488" y="142"/>
      <point x="521" y="177"/>
      <point x="521" y="253" type="curve" smooth="yes"/>
      <point x="521" y="281" type="line"/>
      <point x="448" y="281" type="line"/>
      <point x="448" y="261" type="line" smooth="yes"/>
      <point x="448" y="205"/>
      <point x="442" y="198"/>
      <point x="369" y="198" type="curve" smooth="yes"/>
      <point x="305" y="198"/>
      <point x="291" y="208"/>
      <point x="291" y="271" type="curve" smooth="yes"/>
      <point x="291" y="391" type="line" smooth="yes"/>
      <point x="291" y="451"/>
      <point x="306" y="464"/>
      <point x="369" y="464" type="curve" smooth="yes"/>
      <point x="436" y="464"/>
      <point x="448" y="454"/>
      <point x="448" y="401" type="curve" smooth="yes"/>
      <point x="448" y="382" type="line"/>
      <point x="521" y="382" type="line"/>
      <point x="521" y="409" type="line" smooth="yes"/>
      <point x="521" y="486"/>
      <point x="484" y="520"/>
      <point x="372" y="520" type="curve" smooth="yes"/>
      <point x="260" y="520"/>
      <point x="213" y="480"/>
      <point x="213" y="399" type="curve" smooth="yes"/>
      <point x="213" y="263" type="line"/>
      <point x="213" y="170"/>
      <point x="253" y="142"/>
    </contour>
  </outline>
</glyph>
<glyph name="ordfeminine" format="2">
  <advance width="318"/>
  <unicode hex="00AA"/>
  <outline>
    <contour>
      <point x="143" y="371" type="curve" smooth="yes"/>
      <point x="180" y="371"/>
      <point x="205" y="382"/>
      <point x="218" y="403" type="curve"/>
      <point x="218" y="376" type="line"/>
      <point x="283" y="376" type="line"/>
      <point x="283" y="570" type="line"/>
      <point x="283" y="643"/>
      <point x="264" y="660"/>
      <point x="165" y="660" type="curve" smooth="yes"/>
      <point x="134" y="660"/>
      <point x="97" y="658"/>
      <point x="56" y="655" type="curve"/>
      <point x="56" y="610" type="line"/>
      <point x="91" y="614"/>
      <point x="125" y="616"/>
      <point x="158" y="616" type="curve" smooth="yes"/>
      <point x="202" y="616"/>
      <point x="216" y="607"/>
      <point x="216" y="582" type="curve" smooth="yes"/>
      <point x="216" y="544" type="line"/>
      <point x="142" y="544" type="line" smooth="yes"/>
      <point x="59" y="544"/>
      <point x="35" y="523"/>
      <point x="35" y="460" type="curve" smooth="yes"/>
      <point x="35" y="388"/>
      <point x="63" y="371"/>
    </contour>
    <contour>
      <point x="35" y="273" type="line"/>
      <point x="283" y="273" type="line"/>
      <point x="283" y="329" type="line"/>
      <point x="35" y="329" type="line"/>
    </contour>
    <contour>
      <point x="141" y="411" type="line" smooth="yes"/>
      <point x="110" y="411"/>
      <point x="103" y="423"/>
      <point x="103" y="458" type="curve" smooth="yes"/>
      <point x="103" y="497"/>
      <point x="109" y="505"/>
      <point x="145" y="505" type="curve" smooth="yes"/>
      <point x="216" y="505" type="line"/>
      <point x="216" y="433" type="line"/>
      <point x="216" y="418"/>
      <point x="195" y="411"/>
      <point x="152" y="411" type="curve" smooth="yes"/>
    </contour>
  </outline>
</glyph>
<glyph name="guillemetleft" format="2">
  <advance width="426"/>
  <unicode hex="00AB"/>
  <outline>
    <contour>
      <point x="310" y="70" type="line"/>
      <point x="386" y="70" type="line"/>
      <point x="294" y="262" type="line"/>
      <point x="386" y="454" type="line"/>
      <point x="310" y="454" type="line"/>
      <point x="210" y="262" type="line"/>
    </contour>
    <contour>
      <point x="140" y="70" type="line"/>
      <point x="216" y="70" type="line"/>
      <point x="124" y="262" type="line"/>
      <point x="216" y="454" type="line"/>
      <point x="140" y="454" type="line"/>
      <point x="40" y="262" type="line"/>
    </contour>
  </outline>
</glyph>
<glyph name="logicalnot" format="2">
  <advance width="500"/>
  <unicode hex="00AC"/>
  <outline>
    <contour>
      <point x="373" y="115" type="line"/>
      <point x="440" y="115" type="line"/>
      <point x="440" y="349" type="line"/>
      <point x="60" y="349" type="line"/>
      <point x="60" y="282" type="line"/>
      <point x="373" y="282" type="line"/>
    </contour>
  </outline>
</glyph>
<glyph name="registered" format="2">
  <advance width="717"/>
  <unicode hex="00AE"/>
  <outline>
    <contour>
      <point x="372" y="-10" type="curve" smooth="yes"/>
      <point x="440" y="-10"/>
      <point x="500" y="-2"/>
      <point x="567" y="22" type="curve" smooth="yes"/>
      <point x="634" y="45"/>
      <point x="677" y="95"/>
      <point x="677" y="166" type="curve" smooth="yes"/>
      <point x="677" y="474" type="line"/>
      <point x="677" y="505"/>
      <point x="670" y="532"/>
      <point x="656" y="555" type="curve" smooth="yes"/>
      <point x="628" y="602"/>
      <point x="588" y="624"/>
      <point x="530" y="640" type="curve" smooth="yes"/>
      <point x="472" y="656"/>
      <point x="425" y="659"/>
      <point x="372" y="659" type="curve" smooth="yes"/>
      <point x="304" y="659"/>
      <point x="246" y="651"/>
      <point x="176" y="627" type="curve" smooth="yes"/>
      <point x="106" y="603"/>
      <point x="60" y="549"/>
      <point x="60" y="473" type="curve" smooth="yes"/>
      <point x="60" y="166" type="line" smooth="yes"/>
      <point x="60" y="137"/>
      <point x="67" y="112"/>
      <point x="82" y="90" type="curve" smooth="yes"/>
      <point x="110" y="46"/>
      <point x="152" y="24"/>
      <point x="211" y="9" type="curve" smooth="yes"/>
      <point x="270" y="-7"/>
      <point x="317" y="-10"/>
    </contour>
    <contour>
      <point x="374" y="52" type="curve" smooth="yes"/>
      <point x="323" y="52"/>
      <point x="276" y="57"/>
      <point x="224" y="73" type="curve" smooth="yes"/>
      <point x="172" y="88"/>
      <point x="138" y="120"/>
      <point x="138" y="164" type="curve" smooth="yes"/>
      <point x="138" y="481" type="line" smooth="yes"/>
      <point x="138" y="529"/>
      <point x="171" y="564"/>
      <point x="223" y="580" type="curve" smooth="yes"/>
      <point x="274" y="595"/>
      <point x="321" y="601"/>
      <point x="373" y="601" type="curve" smooth="yes"/>
      <point x="424" y="601"/>
      <point x="469" y="595"/>
      <point x="518" y="580" type="curve"/>
      <point x="566" y="564"/>
      <point x="598" y="529"/>
      <point x="598" y="481" type="curve" smooth="yes"/>
      <point x="598" y="164" type="line"/>
      <point x="598" y="117"/>
      <point x="564" y="85"/>
      <point x="513" y="71" type="curve" smooth="yes"/>
      <point x="462" y="57"/>
      <point x="421" y="52"/>
    </contour>
    <contour>
      <point x="241" y="130" type="line"/>
      <point x="309" y="130" type="line"/>
      <point x="309" y="286" type="line"/>
      <point x="356" y="286" type="line"/>
      <point x="457" y="130" type="line"/>
      <point x="539" y="130" type="line"/>
      <point x="424" y="293" type="line"/>
      <point x="477" y="293"/>
      <point x="515" y="319"/>
      <point x="515" y="368" type="curve" smooth="yes"/>
      <point x="515" y="443" type="line" smooth="yes"/>
      <point x="515" y="504"/>
      <point x="479" y="519"/>
      <point x="378" y="519" type="curve" smooth="yes"/>
      <point x="241" y="519" type="line"/>
    </contour>
    <contour>
      <point x="309" y="334" type="line"/>
      <point x="309" y="471" type="line"/>
      <point x="381" y="471" type="line" smooth="yes"/>
      <point x="433" y="471"/>
      <point x="446" y="465"/>
      <point x="446" y="437" type="curve" smooth="yes"/>
      <point x="446" y="373" type="line"/>
      <point x="446" y="338"/>
      <point x="433" y="334"/>
      <point x="376" y="334" type="curve" smooth="yes"/>
    </contour>
  </outline>
</glyph>
<glyph name="macron" format="2">
  <advance width="418"/>
  <unicode hex="00AF"/>
  <outline>
    <contour>
      <point x="100" y="590" type="line"/>
      <point x="318" y="590" type="line"/>
      <point x="318" y="649" type="line"/>
      <point x="100" y="649" type="line"/>
    </contour>
  </outline>
</glyph>
<glyph name="degree" format="2">
  <advance width="407"/>
  <unicode hex="00B0"/>
  <outline>
    <contour>
      <point x="204" y="373" type="curve" smooth="yes"/>
      <point x="223" y="373"/>
      <point x="239" y="373"/>
      <point x="251" y="374" type="curve" smooth="yes"/>
      <point x="274" y="375"/>
      <point x="305" y="383"/>
      <point x="321" y="396" type="curve" smooth="yes"/>
      <point x="336" y="409"/>
      <point x="347" y="434"/>
      <point x="347" y="470" type="curve" smooth="yes"/>
      <point x="347" y="549" type="line"/>
      <point x="347" y="640"/>
      <point x="299" y="659"/>
      <point x="204" y="659" type="curve" smooth="yes"/>
      <point x="109" y="659"/>
      <point x="60" y="640"/>
      <point x="60" y="549" type="curve" smooth="yes"/>
      <point x="60" y="470" type="line" smooth="yes"/>
      <point x="60" y="452"/>
      <point x="63" y="437"/>
      <point x="68" y="425" type="curve" smooth="yes"/>
      <point x="79" y="400"/>
      <point x="91" y="388"/>
      <point x="119" y="381" type="curve" smooth="yes"/>
      <point x="147" y="373"/>
      <point x="165" y="373"/>
    </contour>
    <contour>
      <point x="204" y="421" type="curve" smooth="yes"/>
      <point x="185" y="421"/>
      <point x="172" y="422"/>
      <point x="163" y="423" type="curve" smooth="yes"/>
      <point x="145" y="426"/>
      <point x="130" y="439"/>
      <point x="130" y="470" type="curve" smooth="yes"/>
      <point x="130" y="557" type="line" smooth="yes"/>
      <point x="130" y="605"/>
      <point x="148" y="611"/>
      <point x="204" y="611" type="curve" smooth="yes"/>
      <point x="260" y="611"/>
      <point x="277" y="605"/>
      <point x="277" y="557" type="curve" smooth="yes"/>
      <point x="277" y="470" type="line"/>
      <point x="277" y="455"/>
      <point x="274" y="443"/>
      <point x="268" y="436" type="curve" smooth="yes"/>
      <point x="255" y="421"/>
      <point x="241" y="421"/>
    </contour>
  </outline>
</glyph>
<glyph name="plusminus" format="2">
  <advance width="500"/>
  <unicode hex="00B1"/>
  <outline>
    <contour>
      <point x="216" y="115" type="line"/>
      <point x="283" y="115" type="line"/>
      <point x="283" y="282" type="line"/>
      <point x="440" y="282" type="line"/>
      <point x="440" y="349" type="line"/>
      <point x="283" y="349" type="line"/>
      <point x="283" y="515" type="line"/>
      <point x="216" y="515" type="line"/>
      <point x="216" y="349" type="line"/>
      <point x="60" y="349" type="line"/>
      <point x="60" y="282" type="line"/>
      <point x="216" y="282" type="line"/>
    </contour>
    <contour>
      <point x="60" y="0" type="line"/>
      <point x="440" y="0" type="line"/>
      <point x="440" y="67" type="line"/>
      <point x="60" y="67" type="line"/>
    </contour>
  </outline>
</glyph>
<glyph name="acute" format="2">
  <advance width="399"/>
  <unicode hex="00B4"/>
  <outline>
    <contour>
      <point x="100" y="553" type="line"/>
      <point x="174" y="553" type="line"/>
      <point x="299" y="680" type="line"/>
      <point x="190" y="680" type="line"/>
    </contour>
  </outline>
</glyph>
<glyph name="micro" format="2">
  <advance width="573"/>
  <unicode hex="00B5"/>
  <outline>
    <contour>
      <point x="78" y="-209" type="line"/>
      <point x="168" y="-209" type="line"/>
      <point x="168" y="-2" type="line"/>
      <point x="191" y="-7"/>
      <point x="217" y="-10"/>
      <point x="246" y="-10" type="curve" smooth="yes"/>
      <point x="342" y="-10"/>
      <point x="396" y="13"/>
      <point x="407" y="59" type="curve"/>
      <point x="407" y="0" type="line"/>
      <point x="495" y="0" type="line"/>
      <point x="495" y="484" type="line"/>
      <point x="405" y="484" type="line"/>
      <point x="405" y="119" type="line" smooth="yes"/>
      <point x="405" y="94"/>
      <point x="395" y="77"/>
      <point x="376" y="68" type="curve" smooth="yes"/>
      <point x="357" y="59"/>
      <point x="322" y="54"/>
      <point x="272" y="54" type="curve" smooth="yes"/>
      <point x="227" y="54"/>
      <point x="196" y="63"/>
      <point x="184" y="80" type="curve"/>
      <point x="171" y="96"/>
      <point x="168" y="110"/>
      <point x="168" y="134" type="curve" smooth="yes"/>
      <point x="168" y="484" type="line"/>
      <point x="78" y="484" type="line"/>
    </contour>
  </outline>
</glyph>
<glyph name="paragraph" format="2">
  <advance width="573"/>
  <unicode hex="00B6"/>
  <outline>
    <contour>
      <point x="199" y="-186" type="line"/>
      <point x="252" y="-186" type="line"/>
      <point x="252" y="606" type="line"/>
      <point x="402" y="606" type="line"/>
      <point x="402" y="-186" type="line"/>
      <point x="455" y="-186" type="line"/>
      <point x="455" y="579" type="line" smooth="yes"/>
      <point x="455" y="593"/>
      <point x="462" y="605"/>
      <point x="476" y="616" type="curve" smooth="yes"/>
      <point x="499" y="633" type="line"/>
      <point x="499" y="649" type="line"/>
      <point x="147" y="649" type="line" smooth="yes"/>
      <point x="64" y="649"/>
      <point x="40" y="616"/>
      <point x="40" y="501" type="curve" smooth="yes"/>
      <point x="40" y="376"/>
      <point x="66" y="352"/>
      <point x="199" y="352" type="curve"/>
    </contour>
  </outline>
</glyph>
<glyph name="periodcentered" format="2">
  <advance width="256"/>
  <unicode hex="00B7"/>
  <outline>
    <contour>
      <point x="70" y="280" type="line"/>
      <point x="186" y="280" type="line"/>
      <point x="186" y="388" type="line"/>
      <point x="70" y="388" type="line"/>
    </contour>
  </outline>
</glyph>
<glyph name="cedilla" format="2">
  <advance width="394"/>
  <unicode hex="00B8"/>
  <outline>
    <contour>
      <point x="181" y="-220" type="curve" smooth="yes"/>
      <point x="241" y="-220"/>
      <point x="294" y="-189"/>
      <point x="294" y="-130" type="curve" smooth="yes"/>
      <point x="294" y="-79"/>
      <point x="250" y="-53"/>
      <point x="201" y="-52" type="curve"/>
      <point x="227" y="0" type="line"/>
      <point x="164" y="0" type="line"/>
      <point x="147" y="-35"/>
      <point x="130" y="-66"/>
      <point x="115" y="-92" type="curve"/>
      <point x="148" y="-92" type="line" smooth="yes"/>
      <point x="193" y="-92"/>
      <point x="226" y="-108"/>
      <point x="226" y="-133" type="curve" smooth="yes"/>
      <point x="226" y="-160"/>
      <point x="210" y="-173"/>
      <point x="179" y="-173" type="curve" smooth="yes"/>
      <point x="160" y="-173"/>
      <point x="141" y="-167"/>
      <point x="121" y="-156" type="curve"/>
      <point x="100" y="-201" type="line"/>
      <point x="121" y="-214"/>
      <point x="148" y="-220"/>
    </contour>
  </outline>
</glyph>
<glyph name="onesuperior" format="2">
  <advance width="378"/>
  <unicode hex="00B9"/>
  <outline>
    <contour>
      <point x="186" y="273" type="line"/>
      <point x="257" y="273" type="line"/>
      <point x="257" y="649" type="line"/>
      <point x="195" y="649" type="line"/>
      <point x="75" y="568" type="line"/>
      <point x="75" y="500" type="line"/>
      <point x="186" y="571" type="line"/>
    </contour>
  </outline>
</glyph>
<glyph name="ordmasculine" format="2">
  <advance width="336"/>
  <unicode hex="00BA"/>
  <outline>
    <contour>
      <point x="168" y="371" type="curve" smooth="yes"/>
      <point x="215" y="371"/>
      <point x="236" y="373"/>
      <point x="264" y="385" type="curve" smooth="yes"/>
      <point x="291" y="396"/>
      <point x="302" y="422"/>
      <point x="302" y="465" type="curve" smooth="yes"/>
      <point x="302" y="558" type="line"/>
      <point x="302" y="605"/>
      <point x="291" y="633"/>
      <point x="264" y="646" type="curve"/>
      <point x="236" y="658"/>
      <point x="215" y="660"/>
      <point x="168" y="660" type="curve" smooth="yes"/>
      <point x="121" y="660"/>
      <point x="100" y="658"/>
      <point x="73" y="646" type="curve" smooth="yes"/>
      <point x="45" y="633"/>
      <point x="34" y="605"/>
      <point x="34" y="558" type="curve" smooth="yes"/>
      <point x="34" y="465" type="line" smooth="yes"/>
      <point x="34" y="448"/>
      <point x="36" y="433"/>
      <point x="41" y="421" type="curve" smooth="yes"/>
      <point x="50" y="397"/>
      <point x="62" y="386"/>
      <point x="87" y="379" type="curve" smooth="yes"/>
      <point x="112" y="371"/>
      <point x="131" y="371"/>
    </contour>
    <contour>
      <point x="35" y="273" type="line"/>
      <point x="302" y="273" type="line"/>
      <point x="302" y="329" type="line"/>
      <point x="35" y="329" type="line"/>
    </contour>
    <contour>
      <point x="168" y="412" type="curve" smooth="yes"/>
      <point x="117" y="412"/>
      <point x="102" y="417"/>
      <point x="102" y="458" type="curve" smooth="yes"/>
      <point x="102" y="567" type="line" smooth="yes"/>
      <point x="102" y="614"/>
      <point x="116" y="619"/>
      <point x="168" y="619" type="curve" smooth="yes"/>
      <point x="217" y="619"/>
      <point x="232" y="614"/>
      <point x="232" y="567" type="curve" smooth="yes"/>
      <point x="232" y="458" type="line"/>
      <point x="232" y="417"/>
      <point x="217" y="412"/>
    </contour>
  </outline>
</glyph>
<glyph name="guillemetright" format="2">
  <advance width="426"/>
  <unicode hex="00BB"/>
  <outline>
    <contour>
      <point x="210" y="70" type="line"/>
      <point x="286" y="70" type="line"/>
      <point x="386" y="262" type="line"/>
      <point x="286" y="454" type="line"/>
      <point x="210" y="454" type="line"/>
      <point x="302" y="262" type="line"/>
    </contour>
    <contour>
      <point x="40" y="70" type="line"/>
      <point x="116" y="70" type="line"/>
      <point x="216" y="262" type="line"/>
      <point x="116" y="454" type="line"/>
      <point x="40" y="454" type="line"/>
      <point x="132" y="262" type="line"/>
    </contour>
  </outline>
</glyph>
<glyph name="onequarter" format="2">
  <advance width="956"/>
  <unicode hex="00BC"/>
  <outline>
    <contour>
      <point x="232" y="0" type="line"/>
      <point x="313" y="0" type="line"/>
      <point x="725" y="649" type="line"/>
      <point x="644" y="649" type="line"/>
    </contour>
    <contour>
      <point x="258" y="273" type="line"/>
      <point x="329" y="273" type="line"/>
      <point x="329" y="649" type="line"/>
      <point x="267" y="649" type="line"/>
      <point x="147" y="568" type="line"/>
      <point x="147" y="500" type="line"/>
      <point x="258" y="571" type="line"/>
    </contour>
    <contour>
      <point x="788" y="0" type="line"/>
      <point x="860" y="0" type="line"/>
      <point x="860" y="85" type="line"/>
      <point x="908" y="85" type="line"/>
      <point x="908" y="136" type="line"/>
      <point x="860" y="136" type="line"/>
      <point x="860" y="376" type="line"/>
      <point x="777" y="376" type="line"/>
      <point x="568" y="135" type="line"/>
      <point x="568" y="85" type="line"/>
      <point x="788" y="85" type="line"/>
    </contour>
    <contour>
      <point x="642" y="136" type="line"/>
      <point x="787" y="305" type="line"/>
      <point x="788" y="136" type="line"/>
    </contour>
  </outline>
</glyph>
<glyph name="onehalf" format="2">
  <advance width="956"/>
  <unicode hex="00BD"/>
  <outline>
    <contour>
      <point x="232" y="0" type="line"/>
      <point x="313" y="0" type="line"/>
      <point x="725" y="649" type="line"/>
      <point x="644" y="649" type="line"/>
    </contour>
    <contour>
      <point x="258" y="273" type="line"/>
      <point x="329" y="273" type="line"/>
      <point x="329" y="649" type="line"/>
      <point x="267" y="649" type="line"/>
      <point x="147" y="568" type="line"/>
      <point x="147" y="500" type="line"/>
      <point x="258" y="571" type="line"/>
    </contour>
    <contour>
      <point x="595" y="0" type="line"/>
      <point x="892" y="0" type="line"/>
      <point x="892" y="58" type="line"/>
      <point x="665" y="58" type="line"/>
      <point x="665" y="87" type="line" smooth="yes"/>
      <point x="665" y="111"/>
      <point x="721" y="132"/>
      <point x="778" y="147" type="curve" smooth="yes"/>
      <point x="834" y="162"/>
      <point x="890" y="196"/>
      <point x="890" y="243" type="curve" smooth="yes"/>
      <point x="890" y="303" type="line" smooth="yes"/>
      <point x="890" y="364"/>
      <point x="845" y="385"/>
      <point x="733" y="385" type="curve" smooth="yes"/>
      <point x="694" y="385"/>
      <point x="651" y="381"/>
      <point x="606" y="374" type="curve"/>
      <point x="606" y="317" type="line"/>
      <point x="653" y="326"/>
      <point x="692" y="330"/>
      <point x="723" y="330" type="curve" smooth="yes"/>
      <point x="785" y="330"/>
      <point x="816" y="319"/>
      <point x="816" y="298" type="curve" smooth="yes"/>
      <point x="816" y="254" type="line" smooth="yes"/>
      <point x="816" y="227"/>
      <point x="781" y="209"/>
      <point x="738" y="197" type="curve"/>
      <point x="717" y="190"/>
      <point x="695" y="183"/>
      <point x="674" y="175" type="curve" smooth="yes"/>
      <point x="630" y="159"/>
      <point x="595" y="128"/>
      <point x="595" y="81" type="curve" smooth="yes"/>
    </contour>
  </outline>
</glyph>
<glyph name="questiondown" format="2">
  <advance width="533"/>
  <unicode hex="00BF"/>
  <outline>
    <contour>
      <point x="263" y="-175" type="curve" smooth="yes"/>
      <point x="333" y="-175"/>
      <point x="403" y="-169"/>
      <point x="473" y="-156" type="curve"/>
      <point x="473" y="-83" type="line"/>
      <point x="392" y="-97"/>
      <point x="329" y="-104"/>
      <point x="282" y="-104" type="curve" smooth="yes"/>
      <point x="194" y="-104"/>
      <point x="156" y="-90"/>
      <point x="156" y="-27" type="curve" smooth="yes"/>
      <point x="156" y="3" type="line" smooth="yes"/>
      <point x="156" y="52"/>
      <point x="184" y="86"/>
      <point x="219" y="108" type="curve" smooth="yes"/>
      <point x="236" y="119"/>
      <point x="254" y="130"/>
      <point x="271" y="143" type="curve" smooth="yes"/>
      <point x="306" y="168"/>
      <point x="334" y="217"/>
      <point x="334" y="289" type="curve" smooth="yes"/>
      <point x="334" y="313" type="line"/>
      <point x="244" y="313" type="line"/>
      <point x="244" y="270" type="line" smooth="yes"/>
      <point x="244" y="233"/>
      <point x="215" y="205"/>
      <point x="179" y="183" type="curve" smooth="yes"/>
      <point x="161" y="172"/>
      <point x="143" y="160"/>
      <point x="125" y="147" type="curve" smooth="yes"/>
      <point x="89" y="121"/>
      <point x="60" y="76"/>
      <point x="60" y="16" type="curve" smooth="yes"/>
      <point x="60" y="-34" type="line" smooth="yes"/>
      <point x="60" y="-137"/>
      <point x="120" y="-175"/>
    </contour>
    <contour>
      <point x="232" y="376" type="line"/>
      <point x="348" y="376" type="line"/>
      <point x="348" y="484" type="line"/>
      <point x="232" y="484" type="line"/>
    </contour>
  </outline>
</glyph>
<glyph name="Adieresis" format="2">
  <advance width="652"/>
  <unicode hex="00C4"/>
  <outline>
    <contour>
      <point x="15" y="0" type="line"/>
      <point x="111" y="0" type="line"/>
      <point x="184" y="197" type="line"/>
      <point x="462" y="197" type="line"/>
      <point x="536" y="0" type="line"/>
      <point x="637" y="0" type="line"/>
      <point x="385" y="649" type="line"/>
      <point x="273" y="649" type="line"/>
    </contour>
    <contour>
      <point x="209" y="264" type="line"/>
      <point x="319" y="557" type="line"/>
      <point x="328" y="557" type="line"/>
      <point x="438" y="264" type="line"/>
    </contour>
    <contour>
      <point x="190" y="715" type="line"/>
      <point x="280" y="715" type="line"/>
      <point x="280" y="809" type="line"/>
      <point x="190" y="809" type="line"/>
    </contour>
    <contour>
      <point x="360" y="715" type="line"/>
      <point x="450" y="715" type="line"/>
      <point x="450" y="809" type="line"/>
      <point x="360" y="809" type="line"/>
    </contour>
  </outline>
</glyph>
<glyph name="Aring" format="2">
  <advance width="652"/>
  <unicode hex="00C5"/>
  <outline>
    <contour>
      <point x="15" y="0" type="line"/>
      <point x="111" y="0" type="line"/>
      <point x="185" y="198" type="line"/>
      <point x="462" y="198" type="line"/>
      <point x="536" y="0" type="line"/>
      <point x="637" y="0" type="line"/>
      <point x="415" y="561" type="line"/>
      <point x="450" y="575"/>
      <point x="467" y="603"/>
      <point x="467" y="646" type="curve" smooth="yes"/>
      <point x="467" y="659" type="line" smooth="yes"/>
      <point x="467" y="678"/>
      <point x="465" y="695"/>
      <point x="460" y="708" type="curve" smooth="yes"/>
      <point x="450" y="734"/>
      <point x="437" y="747"/>
      <point x="410" y="755" type="curve"/>
      <point x="382" y="762"/>
      <point x="365" y="762"/>
      <point x="326" y="762" type="curve" smooth="yes"/>
      <point x="307" y="762"/>
      <point x="291" y="762"/>
      <point x="280" y="761" type="curve" smooth="yes"/>
      <point x="257" y="760"/>
      <point x="226" y="753"/>
      <point x="211" y="738" type="curve" smooth="yes"/>
      <point x="196" y="723"/>
      <point x="185" y="698"/>
      <point x="185" y="659" type="curve" smooth="yes"/>
      <point x="185" y="646" type="line" smooth="yes"/>
      <point x="185" y="600"/>
      <point x="204" y="571"/>
      <point x="242" y="560" type="curve"/>
    </contour>
    <contour>
      <point x="209" y="264" type="line"/>
      <point x="315" y="545" type="line"/>
      <point x="332" y="545" type="line"/>
      <point x="438" y="264" type="line"/>
    </contour>
    <contour>
      <point x="326" y="596" type="curve" smooth="yes"/>
      <point x="273" y="596"/>
      <point x="252" y="602"/>
      <point x="252" y="643" type="curve" smooth="yes"/>
      <point x="252" y="657" type="line" smooth="yes"/>
      <point x="252" y="702"/>
      <point x="271" y="709"/>
      <point x="326" y="709" type="curve" smooth="yes"/>
      <point x="381" y="709"/>
      <point x="400" y="702"/>
      <point x="400" y="657" type="curve" smooth="yes"/>
      <point x="400" y="643" type="line"/>
      <point x="400" y="628"/>
      <point x="397" y="618"/>
      <point x="390" y="611" type="curve" smooth="yes"/>
      <point x="377" y="597"/>
      <point x="362" y="596"/>
    </contour>
  </outline>
</glyph>
<glyph name="AE" format="2">
  <advance width="923"/>
  <unicode hex="00C6"/>
  <outline>
    <contour>
      <point x="0" y="0" type="line"/>
      <point x="109" y="0" type="line"/>
      <point x="211" y="197" type="line"/>
      <point x="457" y="197" type="line"/>
      <point x="457" y="0" type="line"/>
      <point x="873" y="0" type="line"/>
      <point x="873" y="68" type="line"/>
      <point x="554" y="68" type="line"/>
      <point x="554" y="301" type="line"/>
      <point x="830" y="301" type="line"/>
      <point x="830" y="369" type="line"/>
      <point x="554" y="369" type="line"/>
      <point x="554" y="581" type="line"/>
      <point x="863" y="581" type="line"/>
      <point x="863" y="649" type="line"/>
      <point x="358" y="649" type="line"/>
    </contour>
    <contour>
      <point x="245" y="264" type="line"/>
      <point x="409" y="581" type="line"/>
      <point x="457" y="581" type="line"/>
      <point x="457" y="264" type="line"/>
    </contour>
  </outline>
</glyph>
<glyph name="Ccedilla" format="2">
  <advance width="564"/>
  <unicode hex="00C7"/>
  <outline>
    <contour>
      <point x="318" y="-220" type="curve" smooth="yes"/>
      <point x="378" y="-220"/>
      <point x="431" y="-189"/>
      <point x="431" y="-130" type="curve" smooth="yes"/>
      <point x="431" y="-79"/>
      <point x="387" y="-53"/>
      <point x="338" y="-52" type="curve"/>
      <point x="359" y="-10" type="line"/>
      <point x="414" y="-9"/>
      <point x="467" y="-2"/>
      <point x="519" y="9" type="curve"/>
      <point x="519" y="83" type="line"/>
      <point x="455" y="67"/>
      <point x="396" y="59"/>
      <point x="343" y="59" type="curve" smooth="yes"/>
      <point x="219" y="59"/>
      <point x="157" y="96"/>
      <point x="157" y="171" type="curve" smooth="yes"/>
      <point x="157" y="475" type="line" smooth="yes"/>
      <point x="157" y="524"/>
      <point x="178" y="557"/>
      <point x="215" y="573" type="curve" smooth="yes"/>
      <point x="252" y="588"/>
      <point x="288" y="593"/>
      <point x="339" y="593" type="curve" smooth="yes"/>
      <point x="392" y="593"/>
      <point x="451" y="585"/>
      <point x="515" y="569" type="curve"/>
      <point x="515" y="641" type="line"/>
      <point x="457" y="654"/>
      <point x="398" y="660"/>
      <point x="337" y="660" type="curve" smooth="yes"/>
      <point x="155" y="660"/>
      <point x="64" y="598"/>
      <point x="64" y="474" type="curve" smooth="yes"/>
      <point x="64" y="166" type="line" smooth="yes"/>
      <point x="64" y="58"/>
      <point x="142" y="0"/>
      <point x="297" y="-9" type="curve"/>
      <point x="282" y="-39"/>
      <point x="267" y="-67"/>
      <point x="252" y="-92" type="curve"/>
      <point x="285" y="-92" type="line" smooth="yes"/>
      <point x="330" y="-92"/>
      <point x="363" y="-108"/>
      <point x="363" y="-133" type="curve" smooth="yes"/>
      <point x="363" y="-160"/>
      <point x="347" y="-173"/>
      <point x="316" y="-173" type="curve" smooth="yes"/>
      <point x="297" y="-173"/>
      <point x="278" y="-167"/>
      <point x="258" y="-156" type="curve"/>
      <point x="237" y="-201" type="line"/>
      <point x="258" y="-214"/>
      <point x="285" y="-220"/>
    </contour>
  </outline>
</glyph>
<glyph name="Edieresis" format="2">
  <advance width="580"/>
  <unicode hex="00CB"/>
  <outline>
    <contour>
      <point x="84" y="0" type="line"/>
      <point x="530" y="0" type="line"/>
      <point x="530" y="68" type="line"/>
      <point x="181" y="68" type="line"/>
      <point x="181" y="301" type="line"/>
      <point x="487" y="301" type="line"/>
      <point x="487" y="369" type="line"/>
      <point x="181" y="369" type="line"/>
      <point x="181" y="581" type="line"/>
      <point x="520" y="581" type="line"/>
      <point x="520" y="649" type="line"/>
      <point x="84" y="649" type="line"/>
    </contour>
    <contour>
      <point x="176" y="715" type="line"/>
      <point x="266" y="715" type="line"/>
      <point x="266" y="809" type="line"/>
      <point x="176" y="809" type="line"/>
    </contour>
    <contour>
      <point x="346" y="715" type="line"/>
      <point x="436" y="715" type="line"/>
      <point x="436" y="809" type="line"/>
      <point x="346" y="809" type="line"/>
    </contour>
  </outline>
</glyph>
<glyph name="Icircumflex" format="2">
  <advance width="265"/>
  <unicode hex="00CE"/>
  <outline>
    <contour>
      <point x="84" y="0" type="line"/>
      <point x="181" y="0" type="line"/>
      <point x="181" y="649" type="line"/>
      <point x="84" y="649" type="line"/>
    </contour>
    <contour>
      <point x="11" y="703" type="line"/>
      <point x="69" y="703" type="line"/>
      <point x="132" y="790" type="line"/>
      <point x="194" y="703" type="line"/>
      <point x="252" y="703" type="line"/>
      <point x="186" y="830" type="line"/>
      <point x="79" y="830" type="line"/>
    </contour>
  </outline>
</glyph>
<glyph name="Idieresis" format="2">
  <advance width="265"/>
  <unicode hex="00CF"/>
  <outline>
    <contour>
      <point x="84" y="0" type="line"/>
      <point x="181" y="0" type="line"/>
      <point x="181" y="649" type="line"/>
      <point x="84" y="649" type="line"/>
    </contour>
    <contour>
      <point x="4" y="715" type="line"/>
      <point x="94" y="715" type="line"/>
      <point x="94" y="809" type="line"/>
      <point x="4" y="809" type="line"/>
    </contour>
    <contour>
      <point x="174" y="715" type="line"/>
      <point x="264" y="715" type="line"/>
      <point x="264" y="809" type="line"/>
      <point x="174" y="809" type="line"/>
    </contour>
  </outline>
</glyph>
<glyph name="Ntilde" format="2">
  <advance width="723"/>
  <unicode hex="00D1"/>
  <outline>
    <contour>
      <point x="84" y="0" type="line"/>
      <point x="169" y="0" type="line"/>
      <point x="169" y="545" type="line"/>
      <point x="522" y="0" type="line"/>
      <point x="639" y="0" type="line"/>
      <point x="639" y="649" type="line"/>
      <point x="554" y="649" type="line"/>
      <point x="554" y="113" type="line"/>
      <point x="201" y="649" type="line"/>
      <point x="84" y="649" type="line"/>
    </contour>
    <contour>
      <point x="234" y="691" type="line"/>
      <point x="251" y="717"/>
      <point x="272" y="730"/>
      <point x="299" y="730" type="curve" smooth="yes"/>
      <point x="312" y="730"/>
      <point x="331" y="724"/>
      <point x="358" y="712" type="curve" smooth="yes"/>
      <point x="385" y="700"/>
      <point x="407" y="694"/>
      <point x="424" y="694" type="curve" smooth="yes"/>
      <point x="452" y="694"/>
      <point x="474" y="707"/>
      <point x="489" y="733" type="curve"/>
      <point x="489" y="802" type="line"/>
      <point x="469" y="773"/>
      <point x="453" y="759"/>
      <point x="424" y="759" type="curve" smooth="yes"/>
      <point x="411" y="759"/>
      <point x="391" y="765"/>
      <point x="364" y="776" type="curve" smooth="yes"/>
      <point x="337" y="787"/>
      <point x="315" y="793"/>
      <point x="299" y="793" type="curve" smooth="yes"/>
      <point x="272" y="793"/>
      <point x="250" y="783"/>
      <point x="234" y="764" type="curve"/>
    </contour>
  </outline>
</glyph>
<glyph name="multiply" format="2">
  <advance width="500"/>
  <unicode hex="00D7"/>
  <outline>
    <contour>
      <point x="382" y="135" type="line"/>
      <point x="429" y="183" type="line"/>
      <point x="297" y="315" type="line"/>
      <point x="429" y="447" type="line"/>
      <point x="382" y="495" type="line"/>
      <point x="249" y="362" type="line"/>
      <point x="118" y="494" type="line"/>
      <point x="70" y="447" type="line"/>
      <point x="202" y="315" type="line"/>
      <point x="70" y="183" type="line"/>
      <point x="118" y="136" type="line"/>
      <point x="249" y="267" type="line"/>
    </contour>
  </outline>
</glyph>
<glyph name="Oslash" format="2">
  <advance width="679"/>
  <unicode hex="00D8"/>
  <outline>
    <contour>
      <point x="338" y="-10" type="curve" smooth="yes"/>
      <point x="405" y="-10"/>
      <point x="459" y="-2"/>
      <point x="518" y="22" type="curve" smooth="yes"/>
      <point x="577" y="45"/>
      <point x="613" y="95"/>
      <point x="613" y="166" type="curve" smooth="yes"/>
      <point x="613" y="474" type="line"/>
      <point x="613" y="597"/>
      <point x="521" y="659"/>
      <point x="338" y="659" type="curve" smooth="yes"/>
      <point x="157" y="659"/>
      <point x="66" y="597"/>
      <point x="66" y="473" type="curve" smooth="yes"/>
      <point x="66" y="166" type="line" smooth="yes"/>
      <point x="66" y="49"/>
      <point x="157" y="-10"/>
    </contour>
    <contour>
      <point x="340" y="55" type="curve" smooth="yes"/>
      <point x="277" y="55"/>
      <point x="232" y="64"/>
      <point x="203" y="83" type="curve"/>
      <point x="516" y="507" type="line"/>
      <point x="518" y="497"/>
      <point x="519" y="487"/>
      <point x="519" y="476" type="curve" smooth="yes"/>
      <point x="519" y="167" type="line"/>
      <point x="519" y="92"/>
      <point x="459" y="55"/>
    </contour>
    <contour>
      <point x="161" y="140" type="line"/>
      <point x="160" y="145"/>
      <point x="159" y="154"/>
      <point x="159" y="167" type="curve" smooth="yes"/>
      <point x="159" y="476" type="line"/>
      <point x="159" y="525"/>
      <point x="180" y="558"/>
      <point x="216" y="575" type="curve" smooth="yes"/>
      <point x="252" y="591"/>
      <point x="288" y="596"/>
      <point x="339" y="596" type="curve" smooth="yes"/>
      <point x="400" y="596"/>
      <point x="446" y="586"/>
      <point x="475" y="566" type="curve"/>
    </contour>
  </outline>
</glyph>
<glyph name="Udieresis" format="2">
  <advance width="676"/>
  <unicode hex="00DC"/>
  <outline>
    <contour>
      <point x="337" y="-10" type="curve" smooth="yes"/>
      <point x="506" y="-10"/>
      <point x="591" y="49"/>
      <point x="591" y="166" type="curve" smooth="yes"/>
      <point x="591" y="649" type="line"/>
      <point x="498" y="649" type="line"/>
      <point x="498" y="167" type="line" smooth="yes"/>
      <point x="498" y="82"/>
      <point x="440" y="55"/>
      <point x="339" y="55" type="curve" smooth="yes"/>
      <point x="238" y="55"/>
      <point x="177" y="82"/>
      <point x="177" y="167" type="curve" smooth="yes"/>
      <point x="177" y="649" type="line"/>
      <point x="84" y="649" type="line"/>
      <point x="84" y="166" type="line" smooth="yes"/>
      <point x="84" y="94"/>
      <point x="115" y="44"/>
      <point x="167" y="21" type="curve" smooth="yes"/>
      <point x="219" y="-3"/>
      <point x="269" y="-10"/>
    </contour>
    <contour>
      <point x="201" y="715" type="line"/>
      <point x="291" y="715" type="line"/>
      <point x="291" y="809" type="line"/>
      <point x="201" y="809" type="line"/>
    </contour>
    <contour>
      <point x="371" y="715" type="line"/>
      <point x="461" y="715" type="line"/>
      <point x="461" y="809" type="line"/>
      <point x="371" y="809" type="line"/>
    </contour>
  </outline>
</glyph>
<glyph name="Thorn" format="2">
  <advance width="570"/>
  <unicode hex="00DE"/>
  <outline>
    <contour>
      <point x="84" y="0" type="line"/>
      <point x="181" y="0" type="line"/>
      <point x="181" y="119" type="line"/>
      <point x="278" y="119" type="line" smooth="yes"/>
      <point x="435" y="119"/>
      <point x="525" y="160"/>
      <point x="525" y="271" type="curve" smooth="yes"/>
      <point x="525" y="406" type="line" smooth="yes"/>
      <point x="525" y="429"/>
      <point x="521" y="448"/>
      <point x="512" y="464" type="curve" smooth="yes"/>
      <point x="494" y="496"/>
      <point x="470" y="513"/>
      <point x="427" y="523" type="curve" smooth="yes"/>
      <point x="383" y="533"/>
      <point x="349" y="534"/>
      <point x="296" y="534" type="curve" smooth="yes"/>
      <point x="181" y="534" type="line"/>
      <point x="181" y="649" type="line"/>
      <point x="84" y="649" type="line"/>
    </contour>
    <contour>
      <point x="181" y="180" type="line"/>
      <point x="181" y="473" type="line"/>
      <point x="289" y="473" type="line"/>
      <point x="324" y="473"/>
      <point x="341" y="472"/>
      <point x="376" y="463" type="curve" smooth="yes"/>
      <point x="411" y="454"/>
      <point x="430" y="430"/>
      <point x="430" y="394" type="curve" smooth="yes"/>
      <point x="430" y="276" type="line" smooth="yes"/>
      <point x="430" y="205"/>
      <point x="368" y="180"/>
      <point x="291" y="180" type="curve" smooth="yes"/>
    </contour>
  </outline>
</glyph>
<glyph name="germandbls" format="2">
  <advance width="602"/>
  <unicode hex="00DF"/>
  <outline>
    <contour>
      <point x="78" y="0" type="line"/>
      <point x="170" y="0" type="line"/>
      <point x="170" y="494" type="line" smooth="yes"/>
      <point x="170" y="581"/>
      <point x="193" y="595"/>
      <point x="305" y="595" type="curve" smooth="yes"/>
      <point x="390" y="595"/>
      <point x="427" y="576"/>
      <point x="427" y="528" type="curve" smooth="yes"/>
      <point x="427" y="442" type="line" smooth="yes"/>
      <point x="427" y="389"/>
      <point x="396" y="365"/>
      <point x="313" y="365" type="curve" smooth="yes"/>
      <point x="252" y="365" type="line"/>
      <point x="252" y="304" type="line"/>
      <point x="317" y="304" type="line" smooth="yes"/>
      <point x="360" y="304"/>
      <point x="377" y="303"/>
      <point x="407" y="295" type="curve" smooth="yes"/>
      <point x="437" y="286"/>
      <point x="450" y="266"/>
      <point x="450" y="231" type="curve" smooth="yes"/>
      <point x="450" y="130" type="line" smooth="yes"/>
      <point x="450" y="106"/>
      <point x="440" y="89"/>
      <point x="420" y="79" type="curve" smooth="yes"/>
      <point x="400" y="69"/>
      <point x="366" y="64"/>
      <point x="317" y="64" type="curve" smooth="yes"/>
      <point x="252" y="64" type="line"/>
      <point x="252" y="0" type="line"/>
      <point x="312" y="0" type="line" smooth="yes"/>
      <point x="475" y="0"/>
      <point x="542" y="34"/>
      <point x="542" y="129" type="curve" smooth="yes"/>
      <point x="542" y="238" type="line"/>
      <point x="542" y="295"/>
      <point x="496" y="331"/>
      <point x="427" y="343" type="curve"/>
      <point x="427" y="347" type="line"/>
      <point x="484" y="360"/>
      <point x="513" y="384"/>
      <point x="513" y="439" type="curve" smooth="yes"/>
      <point x="513" y="536" type="line" smooth="yes"/>
      <point x="513" y="588"/>
      <point x="500" y="619"/>
      <point x="437" y="642" type="curve" smooth="yes"/>
      <point x="405" y="653"/>
      <point x="361" y="659"/>
      <point x="305" y="659" type="curve" smooth="yes"/>
      <point x="130" y="659"/>
      <point x="78" y="618"/>
      <point x="78" y="474" type="curve" smooth="yes"/>
    </contour>
  </outline>
</glyph>
<glyph name="adieresis" format="2">
  <advance width="538"/>
  <unicode hex="00E4"/>
  <outline>
    <contour>
      <point x="227" y="-10" type="curve" smooth="yes"/>
      <point x="317" y="-10"/>
      <point x="366" y="9"/>
      <point x="373" y="46" type="curve"/>
      <point x="373" y="0" type="line"/>
      <point x="460" y="0" type="line"/>
      <point x="460" y="342" type="line"/>
      <point x="460" y="466"/>
      <point x="429" y="494"/>
      <point x="266" y="494" type="curve" smooth="yes"/>
      <point x="213" y="494"/>
      <point x="153" y="491"/>
      <point x="87" y="485" type="curve"/>
      <point x="87" y="419" type="line"/>
      <point x="148" y="427"/>
      <point x="204" y="431"/>
      <point x="253" y="431" type="curve" smooth="yes"/>
      <point x="344" y="431"/>
      <point x="370" y="416"/>
      <point x="370" y="363" type="curve" smooth="yes"/>
      <point x="370" y="286" type="line"/>
      <point x="225" y="286" type="line" smooth="yes"/>
      <point x="88" y="286"/>
      <point x="50" y="252"/>
      <point x="50" y="144" type="curve" smooth="yes"/>
      <point x="50" y="20"/>
      <point x="94" y="-10"/>
    </contour>
    <contour>
      <point x="224" y="49" type="line" smooth="yes"/>
      <point x="153" y="49"/>
      <point x="138" y="73"/>
      <point x="138" y="141" type="curve" smooth="yes"/>
      <point x="138" y="217"/>
      <point x="148" y="230"/>
      <point x="231" y="230" type="curve" smooth="yes"/>
      <point x="370" y="230" type="line"/>
      <point x="370" y="98" type="line"/>
      <point x="370" y="75"/>
      <point x="354" y="62"/>
      <point x="325" y="56" type="curve" smooth="yes"/>
      <point x="296" y="50"/>
      <point x="277" y="49"/>
      <point x="242" y="49" type="curve" smooth="yes"/>
    </contour>
    <contour>
      <point x="130" y="565" type="line"/>
      <point x="220" y="565" type="line"/>
      <point x="220" y="659" type="line"/>
      <point x="130" y="659" type="line"/>
    </contour>
    <contour>
      <point x="300" y="565" type="line"/>
      <point x="390" y="565" type="line"/>
      <point x="390" y="659" type="line"/>
      <point x="300" y="659" type="line"/>
    </contour>
  </outline>
</glyph>
<glyph name="aring" format="2">
  <advance width="538"/>
  <unicode hex="00E5"/>
  <outline>
    <contour>
      <point x="227" y="-10" type="curve" smooth="yes"/>
      <point x="317" y="-10"/>
      <point x="366" y="9"/>
      <point x="373" y="46" type="curve"/>
      <point x="373" y="0" type="line"/>
      <point x="460" y="0" type="line"/>
      <point x="460" y="342" type="line"/>
      <point x="460" y="466"/>
      <point x="429" y="494"/>
      <point x="266" y="494" type="curve" smooth="yes"/>
      <point x="213" y="494"/>
      <point x="153" y="491"/>
      <point x="87" y="485" type="curve"/>
      <point x="87" y="419" type="line"/>
      <point x="148" y="427"/>
      <point x="204" y="431"/>
      <point x="253" y="431" type="curve" smooth="yes"/>
      <point x="344" y="431"/>
      <point x="370" y="416"/>
      <point x="370" y="363" type="curve" smooth="yes"/>
      <point x="370" y="286" type="line"/>
      <point x="225" y="286" type="line" smooth="yes"/>
      <point x="88" y="286"/>
      <point x="50" y="252"/>
      <point x="50" y="144" type="curve" smooth="yes"/>
      <point x="50" y="20"/>
      <point x="94" y="-10"/>
    </contour>
    <contour>
      <point x="224" y="49" type="line" smooth="yes"/>
      <point x="153" y="49"/>
      <point x="138" y="73"/>
      <point x="138" y="141" type="curve" smooth="yes"/>
      <point x="138" y="217"/>
      <point x="148" y="230"/>
      <point x="231" y="230" type="curve" smooth="yes"/>
      <point x="370" y="230" type="line"/>
      <point x="370" y="98" type="line"/>
      <point x="370" y="75"/>
      <point x="354" y="62"/>
      <point x="325" y="56" type="curve" smooth="yes"/>
      <point x="296" y="50"/>
      <point x="277" y="49"/>
      <point x="242" y="49" type="curve" smooth="yes"/>
    </contour>
    <contour>
      <point x="268" y="553" type="curve" smooth="yes"/>
      <point x="316" y="553"/>
      <point x="337" y="555"/>
      <point x="365" y="567" type="curve" smooth="yes"/>
      <point x="392" y="579"/>
      <point x="402" y="606"/>
      <point x="402" y="651" type="curve" smooth="yes"/>
      <point x="402" y="663" type="line"/>
      <point x="402" y="682"/>
      <point x="400" y="699"/>
      <point x="395" y="712" type="curve" smooth="yes"/>
      <point x="386" y="739"/>
      <point x="374" y="751"/>
      <point x="349" y="759" type="curve" smooth="yes"/>
      <point x="324" y="766"/>
      <point x="305" y="767"/>
      <point x="268" y="767" type="curve" smooth="yes"/>
      <point x="220" y="767"/>
      <point x="200" y="765"/>
      <point x="173" y="753" type="curve" smooth="yes"/>
      <point x="145" y="740"/>
      <point x="135" y="711"/>
      <point x="135" y="663" type="curve" smooth="yes"/>
      <point x="135" y="651" type="line" smooth="yes"/>
      <point x="135" y="606"/>
      <point x="145" y="579"/>
      <point x="173" y="567" type="curve" smooth="yes"/>
      <point x="200" y="555"/>
      <point x="220" y="553"/>
    </contour>
    <contour>
      <point x="268" y="595" type="curve" smooth="yes"/>
      <point x="213" y="595"/>
      <point x="198" y="600"/>
      <point x="198" y="644" type="curve" smooth="yes"/>
      <point x="198" y="671" type="line" smooth="yes"/>
      <point x="198" y="719"/>
      <point x="213" y="725"/>
      <point x="268" y="725" type="curve" smooth="yes"/>
      <point x="323" y="725"/>
      <point x="339" y="719"/>
      <point x="339" y="671" type="curve" smooth="yes"/>
      <point x="339" y="644" type="line"/>
      <point x="339" y="600"/>
      <point x="323" y="595"/>
    </contour>
  </outline>
</glyph>
<glyph name="ccedilla" format="2">
  <advance width="464"/>
  <unicode hex="00E7"/>
  <outline>
    <contour>
      <point x="263" y="-220" type="curve" smooth="yes"/>
      <point x="323" y="-220"/>
      <point x="376" y="-189"/>
      <point x="376" y="-130" type="curve" smooth="yes"/>
      <point x="376" y="-79"/>
      <point x="332" y="-53"/>
      <point x="283" y="-52" type="curve"/>
      <point x="304" y="-9" type="line"/>
      <point x="348" y="-8"/>
      <point x="389" y="-3"/>
      <point x="428" y="4" type="curve"/>
      <point x="428" y="72" type="line"/>
      <point x="378" y="59"/>
      <point x="329" y="53"/>
      <point x="282" y="53" type="curve" smooth="yes"/>
      <point x="175" y="53"/>
      <point x="152" y="68"/>
      <point x="152" y="139" type="curve" smooth="yes"/>
      <point x="152" y="339" type="line" smooth="yes"/>
      <point x="152" y="422"/>
      <point x="169" y="433"/>
      <point x="272" y="433" type="curve" smooth="yes"/>
      <point x="319" y="433"/>
      <point x="369" y="426"/>
      <point x="421" y="413" type="curve"/>
      <point x="421" y="479" type="line"/>
      <point x="375" y="489"/>
      <point x="329" y="494"/>
      <point x="283" y="494" type="curve" smooth="yes"/>
      <point x="232" y="494"/>
      <point x="210" y="493"/>
      <point x="171" y="487" type="curve" smooth="yes"/>
      <point x="131" y="481"/>
      <point x="112" y="466"/>
      <point x="91" y="442" type="curve" smooth="yes"/>
      <point x="70" y="418"/>
      <point x="60" y="379"/>
      <point x="60" y="326" type="curve" smooth="yes"/>
      <point x="60" y="148" type="line" smooth="yes"/>
      <point x="60" y="121"/>
      <point x="63" y="97"/>
      <point x="70" y="78" type="curve"/>
      <point x="82" y="39"/>
      <point x="101" y="19"/>
      <point x="134" y="7" type="curve" smooth="yes"/>
      <point x="167" y="-6"/>
      <point x="194" y="-9"/>
      <point x="241" y="-10" type="curve"/>
      <point x="228" y="-37"/>
      <point x="213" y="-65"/>
      <point x="197" y="-92" type="curve"/>
      <point x="230" y="-92" type="line" smooth="yes"/>
      <point x="275" y="-92"/>
      <point x="308" y="-108"/>
      <point x="308" y="-133" type="curve" smooth="yes"/>
      <point x="308" y="-160"/>
      <point x="292" y="-173"/>
      <point x="261" y="-173" type="curve" smooth="yes"/>
      <point x="242" y="-173"/>
      <point x="223" y="-167"/>
      <point x="203" y="-156" type="curve"/>
      <point x="182" y="-201" type="line"/>
      <point x="203" y="-214"/>
      <point x="230" y="-220"/>
    </contour>
  </outline>
</glyph>
<glyph name="icircumflex" format="2">
  <advance width="246"/>
  <unicode hex="00EE"/>
  <outline>
    <contour>
      <point x="79" y="0" type="line"/>
      <point x="169" y="0" type="line"/>
      <point x="169" y="484" type="line"/>
      <point x="79" y="484" type="line"/>
    </contour>
    <contour>
      <point x="7" y="553" type="line"/>
      <point x="65" y="553" type="line"/>
      <point x="128" y="640" type="line"/>
      <point x="190" y="553" type="line"/>
      <point x="248" y="553" type="line"/>
      <point x="182" y="680" type="line"/>
      <point x="75" y="680" type="line"/>
    </contour>
  </outline>
</glyph>
<glyph name="idieresis" format="2">
  <advance width="246"/>
  <unicode hex="00EF"/>
  <outline>
    <contour>
      <point x="79" y="0" type="line"/>
      <point x="169" y="0" type="line"/>
      <point x="169" y="484" type="line"/>
      <point x="79" y="484" type="line"/>
    </contour>
    <contour>
      <point x="-5" y="565" type="line"/>
      <point x="85" y="565" type="line"/>
      <point x="85" y="659" type="line"/>
      <point x="-5" y="659" type="line"/>
    </contour>
    <contour>
      <point x="165" y="565" type="line"/>
      <point x="255" y="565" type="line"/>
      <point x="255" y="659" type="line"/>
      <point x="165" y="659" type="line"/>
    </contour>
  </outline>
</glyph>
<glyph name="eth" format="2">
  <advance width="568"/>
  <unicode hex="00F0"/>
  <outline>
    <contour>
      <point x="283" y="-10" type="curve" smooth="yes"/>
      <point x="316" y="-10"/>
      <point x="343" y="-9"/>
      <point x="362" y="-8" type="curve" smooth="yes"/>
      <point x="401" y="-5"/>
      <point x="448" y="6"/>
      <point x="469" y="29" type="curve" smooth="yes"/>
      <point x="489" y="52"/>
      <point x="504" y="92"/>
      <point x="504" y="153" type="curve" smooth="yes"/>
      <point x="504" y="321" type="line" smooth="yes"/>
      <point x="504" y="430"/>
      <point x="466" y="532"/>
      <point x="389" y="625" type="curve"/>
      <point x="450" y="643" type="line"/>
      <point x="450" y="700" type="line"/>
      <point x="349" y="670" type="line"/>
      <point x="318" y="700" type="line"/>
      <point x="212" y="700" type="line"/>
      <point x="236" y="676"/>
      <point x="254" y="658"/>
      <point x="265" y="645" type="curve"/>
      <point x="189" y="622" type="line"/>
      <point x="189" y="565" type="line"/>
      <point x="305" y="599" type="line"/>
      <point x="332" y="566"/>
      <point x="355" y="530"/>
      <point x="376" y="490" type="curve"/>
      <point x="352" y="493"/>
      <point x="321" y="494"/>
      <point x="283" y="494" type="curve" smooth="yes"/>
      <point x="251" y="494"/>
      <point x="225" y="493"/>
      <point x="205" y="491" type="curve" smooth="yes"/>
      <point x="164" y="487"/>
      <point x="119" y="475"/>
      <point x="98" y="451" type="curve" smooth="yes"/>
      <point x="77" y="426"/>
      <point x="62" y="384"/>
      <point x="62" y="321" type="curve" smooth="yes"/>
      <point x="62" y="153" type="line" smooth="yes"/>
      <point x="62" y="122"/>
      <point x="65" y="97"/>
      <point x="72" y="77" type="curve" smooth="yes"/>
      <point x="85" y="36"/>
      <point x="102" y="15"/>
      <point x="143" y="3" type="curve" smooth="yes"/>
      <point x="184" y="-9"/>
      <point x="215" y="-10"/>
    </contour>
    <contour>
      <point x="283" y="48" type="curve" smooth="yes"/>
      <point x="183" y="48"/>
      <point x="152" y="59"/>
      <point x="152" y="140" type="curve" smooth="yes"/>
      <point x="152" y="336" type="line" smooth="yes"/>
      <point x="152" y="425"/>
      <point x="180" y="436"/>
      <point x="283" y="436" type="curve" smooth="yes"/>
      <point x="386" y="436"/>
      <point x="414" y="425"/>
      <point x="414" y="336" type="curve" smooth="yes"/>
      <point x="414" y="140" type="line"/>
      <point x="414" y="59"/>
      <point x="383" y="48"/>
    </contour>
  </outline>
</glyph>
<glyph name="ntilde" format="2">
  <advance width="573"/>
  <unicode hex="00F1"/>
  <outline>
    <contour>
      <point x="78" y="0" type="line"/>
      <point x="168" y="0" type="line"/>
      <point x="168" y="350" type="line" smooth="yes"/>
      <point x="168" y="411"/>
      <point x="196" y="430"/>
      <point x="301" y="430" type="curve" smooth="yes"/>
      <point x="346" y="430"/>
      <point x="377" y="421"/>
      <point x="390" y="405" type="curve"/>
      <point x="402" y="388"/>
      <point x="405" y="374"/>
      <point x="405" y="350" type="curve" smooth="yes"/>
      <point x="405" y="0" type="line"/>
      <point x="495" y="0" type="line"/>
      <point x="495" y="355" type="line"/>
      <point x="495" y="448"/>
      <point x="455" y="494"/>
      <point x="327" y="494" type="curve" smooth="yes"/>
      <point x="230" y="494"/>
      <point x="177" y="471"/>
      <point x="168" y="425" type="curve"/>
      <point x="168" y="484" type="line"/>
      <point x="78" y="484" type="line"/>
    </contour>
    <contour>
      <point x="150" y="541" type="line"/>
      <point x="167" y="567"/>
      <point x="188" y="580"/>
      <point x="215" y="580" type="curve" smooth="yes"/>
      <point x="228" y="580"/>
      <point x="247" y="574"/>
      <point x="274" y="562" type="curve" smooth="yes"/>
      <point x="301" y="550"/>
      <point x="323" y="544"/>
      <point x="340" y="544" type="curve" smooth="yes"/>
      <point x="368" y="544"/>
      <point x="390" y="557"/>
      <point x="405" y="583" type="curve"/>
      <point x="405" y="652" type="line"/>
      <point x="385" y="623"/>
      <point x="369" y="609"/>
      <point x="340" y="609" type="curve" smooth="yes"/>
      <point x="327" y="609"/>
      <point x="307" y="615"/>
      <point x="280" y="626" type="curve" smooth="yes"/>
      <point x="253" y="637"/>
      <point x="231" y="643"/>
      <point x="215" y="643" type="curve" smooth="yes"/>
      <point x="188" y="643"/>
      <point x="166" y="633"/>
      <point x="150" y="614" type="curve"/>
    </contour>
  </outline>
</glyph>
<glyph name="divide" format="2">
  <advance width="500"/>
  <unicode hex="00F7"/>
  <outline>
    <contour>
      <point x="60" y="282" type="line"/>
      <point x="440" y="282" type="line"/>
      <point x="440" y="349" type="line"/>
      <point x="60" y="349" type="line"/>
    </contour>
    <contour>
      <point x="192" y="71" type="line"/>
      <point x="308" y="71" type="line"/>
      <point x="308" y="179" type="line"/>
      <point x="192" y="179" type="line"/>
    </contour>
    <contour>
      <point x="192" y="447" type="line"/>
      <point x="308" y="447" type="line"/>
      <point x="308" y="555" type="line"/>
      <point x="192" y="555" type="line"/>
    </contour>
  </outline>
</glyph>
<glyph name="udieresis" format="2">
  <advance width="573"/>
  <unicode hex="00FC"/>
  <outline>
    <contour>
      <point x="246" y="-10" type="curve" smooth="yes"/>
      <point x="343" y="-10"/>
      <point x="396" y="13"/>
      <point x="405" y="59" type="curve"/>
      <point x="405" y="0" type="line"/>
      <point x="495" y="0" type="line"/>
      <point x="495" y="484" type="line"/>
      <point x="405" y="484" type="line"/>
      <point x="405" y="119" type="line" smooth="yes"/>
      <point x="405" y="94"/>
      <point x="395" y="77"/>
      <point x="376" y="68" type="curve" smooth="yes"/>
      <point x="357" y="59"/>
      <point x="322" y="54"/>
      <point x="272" y="54" type="curve" smooth="yes"/>
      <point x="227" y="54"/>
      <point x="196" y="63"/>
      <point x="184" y="80" type="curve"/>
      <point x="171" y="96"/>
      <point x="168" y="110"/>
      <point x="168" y="134" type="curve" smooth="yes"/>
      <point x="168" y="484" type="line"/>
      <point x="78" y="484" type="line"/>
      <point x="78" y="129" type="line" smooth="yes"/>
      <point x="78" y="36"/>
      <point x="118" y="-10"/>
    </contour>
    <contour>
      <point x="150" y="565" type="line"/>
      <point x="240" y="565" type="line"/>
      <point x="240" y="659" type="line"/>
      <point x="150" y="659" type="line"/>
    </contour>
    <contour>
      <point x="320" y="565" type="line"/>
      <point x="410" y="565" type="line"/>
      <point x="410" y="659" type="line"/>
      <point x="320" y="659" type="line"/>
    </contour>
  </outline>
</glyph>
<glyph name="thorn" format="2">
  <advance width="579"/>
  <unicode hex="00FE"/>
  <outline>
    <contour>
      <point x="78" y="-208" type="line"/>
      <point x="168" y="-208" type="line"/>
      <point x="168" y="31" type="line"/>
      <point x="181" y="3"/>
      <point x="241" y="-10"/>
      <point x="294" y="-10" type="curve" smooth="yes"/>
      <point x="321" y="-10"/>
      <point x="343" y="-9"/>
      <point x="362" y="-7" type="curve" smooth="yes"/>
      <point x="399" y="-4"/>
      <point x="448" y="9"/>
      <point x="474" y="33" type="curve" smooth="yes"/>
      <point x="500" y="56"/>
      <point x="519" y="99"/>
      <point x="519" y="158" type="curve" smooth="yes"/>
      <point x="519" y="357" type="line" smooth="yes"/>
      <point x="519" y="432"/>
      <point x="462" y="494"/>
      <point x="333" y="494" type="curve" smooth="yes"/>
      <point x="230" y="494"/>
      <point x="175" y="473"/>
      <point x="168" y="432" type="curve"/>
      <point x="168" y="700" type="line"/>
      <point x="78" y="700" type="line"/>
    </contour>
    <contour>
      <point x="296" y="51" type="curve" smooth="yes"/>
      <point x="197" y="51"/>
      <point x="163" y="66"/>
      <point x="163" y="147" type="curve" smooth="yes"/>
      <point x="163" y="325" type="line" smooth="yes"/>
      <point x="163" y="414"/>
      <point x="195" y="429"/>
      <point x="295" y="429" type="curve" smooth="yes"/>
      <point x="394" y="429"/>
      <point x="427" y="414"/>
      <point x="427" y="325" type="curve" smooth="yes"/>
      <point x="427" y="147" type="line"/>
      <point x="427" y="66"/>
      <point x="395" y="51"/>
    </contour>
  </outline>
</glyph>
<glyph name="Amacron" format="2">
  <advance width="652"/>
  <unicode hex="0100"/>
  <outline>
    <contour>
      <point x="15" y="0" type="line"/>
      <point x="111" y="0" type="line"/>
      <point x="184" y="197" type="line"/>
      <point x="462" y="197" type="line"/>
      <point x="536" y="0" type="line"/>
      <point x="637" y="0" type="line"/>
      <point x="385" y="649" type="line"/>
      <point x="273" y="649" type="line"/>
    </contour>
    <contour>
      <point x="209" y="264" type="line"/>
      <point x="319" y="557" type="line"/>
      <point x="328" y="557" type="line"/>
      <point x="438" y="264" type="line"/>
    </contour>
    <contour>
      <point x="215" y="739" type="line"/>
      <point x="433" y="739" type="line"/>
      <point x="433" y="798" type="line"/>
      <point x="215" y="798" type="line"/>
    </contour>
  </outline>
</glyph>
<glyph name="Aogonek" format="2">
  <advance width="652"/>
  <unicode hex="0104"/>
  <outline>
    <contour>
      <point x="614" y="-186" type="curve" smooth="yes"/>
      <point x="633" y="-186"/>
      <point x="650" y="-183"/>
      <point x="664" y="-176" type="curve"/>
      <point x="664" y="-123" type="line"/>
      <point x="649" y="-128"/>
      <point x="638" y="-130"/>
      <point x="633" y="-130" type="curve" smooth="yes"/>
      <point x="607" y="-130"/>
      <point x="594" y="-119"/>
      <point x="594" y="-97" type="curve" smooth="yes"/>
      <point x="594" y="-67"/>
      <point x="608" y="-35"/>
      <point x="637" y="0" type="curve"/>
      <point x="385" y="649" type="line"/>
      <point x="273" y="649" type="line"/>
      <point x="15" y="0" type="line"/>
      <point x="111" y="0" type="line"/>
      <point x="184" y="197" type="line"/>
      <point x="462" y="197" type="line"/>
      <point x="536" y="0" type="line"/>
      <point x="522" y="-43"/>
      <point x="515" y="-79"/>
      <point x="515" y="-106" type="curve" smooth="yes"/>
      <point x="515" y="-163"/>
      <point x="547" y="-186"/>
    </contour>
    <contour>
      <point x="209" y="264" type="line"/>
      <point x="319" y="557" type="line"/>
      <point x="328" y="557" type="line"/>
      <point x="438" y="264" type="line"/>
    </contour>
  </outline>
</glyph>
<glyph name="aogonek" format="2">
  <advance width="538"/>
  <unicode hex="0105"/>
  <outline>
    <contour>
      <point x="436" y="-186" type="curve" smooth="yes"/>
      <point x="455" y="-186"/>
      <point x="472" y="-183"/>
      <point x="486" y="-176" type="curve"/>
      <point x="486" y="-123" type="line"/>
      <point x="471" y="-128"/>
      <point x="460" y="-130"/>
      <point x="455" y="-130" type="curve" smooth="yes"/>
      <point x="429" y="-130"/>
      <point x="416" y="-119"/>
      <point x="416" y="-97" type="curve" smooth="yes"/>
      <point x="416" y="-64"/>
      <point x="431" y="-32"/>
      <point x="460" y="0" type="curve"/>
      <point x="460" y="342" type="line"/>
      <point x="460" y="466"/>
      <point x="429" y="494"/>
      <point x="266" y="494" type="curve" smooth="yes"/>
      <point x="213" y="494"/>
      <point x="153" y="491"/>
      <point x="87" y="485" type="curve"/>
      <point x="87" y="419" type="line"/>
      <point x="148" y="427"/>
      <point x="204" y="431"/>
      <point x="253" y="431" type="curve" smooth="yes"/>
      <point x="344" y="431"/>
      <point x="370" y="416"/>
      <point x="370" y="363" type="curve" smooth="yes"/>
      <point x="370" y="286" type="line"/>
      <point x="225" y="286" type="line" smooth="yes"/>
      <point x="88" y="286"/>
      <point x="50" y="252"/>
      <point x="50" y="144" type="curve" smooth="yes"/>
      <point x="50" y="20"/>
      <point x="94" y="-10"/>
      <point x="227" y="-10" type="curve" smooth="yes"/>
      <point x="317" y="-10"/>
      <point x="366" y="9"/>
      <point x="373" y="46" type="curve"/>
      <point x="373" y="0" type="line"/>
      <point x="349" y="-37"/>
      <point x="337" y="-73"/>
      <point x="337" y="-106" type="curve" smooth="yes"/>
      <point x="337" y="-163"/>
      <point x="369" y="-186"/>
    </contour>
    <contour>
      <point x="224" y="47" type="line" smooth="yes"/>
      <point x="153" y="47"/>
      <point x="138" y="72"/>
      <point x="138" y="141" type="curve" smooth="yes"/>
      <point x="138" y="217"/>
      <point x="148" y="230"/>
      <point x="231" y="230" type="curve" smooth="yes"/>
      <point x="370" y="230" type="line"/>
      <point x="370" y="96" type="line"/>
      <point x="370" y="73"/>
      <point x="354" y="60"/>
      <point x="325" y="54" type="curve" smooth="yes"/>
      <point x="296" y="48"/>
      <point x="277" y="47"/>
      <point x="242" y="47" type="curve" smooth="yes"/>
    </contour>
  </outline>
</glyph>
<glyph name="cdotaccent" format="2">
  <advance width="464"/>
  <unicode hex="010B"/>
  <outline>
    <contour>
      <point x="273" y="-10" type="curve" smooth="yes"/>
      <point x="332" y="-10"/>
      <point x="384" y="-5"/>
      <point x="428" y="4" type="curve"/>
      <point x="428" y="72" type="line"/>
      <point x="378" y="59"/>
      <point x="329" y="53"/>
      <point x="282" y="53" type="curve" smooth="yes"/>
      <point x="177" y="53"/>
      <point x="152" y="70"/>
      <point x="152" y="141" type="curve" smooth="yes"/>
      <point x="152" y="339" type="line" smooth="yes"/>
      <point x="152" y="416"/>
      <point x="172" y="433"/>
      <point x="272" y="433" type="curve" smooth="yes"/>
      <point x="319" y="433"/>
      <point x="369" y="426"/>
      <point x="421" y="413" type="curve"/>
      <point x="421" y="479" type="line"/>
      <point x="375" y="489"/>
      <point x="329" y="494"/>
      <point x="283" y="494" type="curve" smooth="yes"/>
      <point x="232" y="494"/>
      <point x="210" y="493"/>
      <point x="171" y="487" type="curve" smooth="yes"/>
      <point x="131" y="481"/>
      <point x="112" y="466"/>
      <point x="91" y="442" type="curve" smooth="yes"/>
      <point x="70" y="418"/>
      <point x="60" y="379"/>
      <point x="60" y="326" type="curve" smooth="yes"/>
      <point x="60" y="148" type="line" smooth="yes"/>
      <point x="60" y="118"/>
      <point x="64" y="93"/>
      <point x="72" y="73" type="curve" smooth="yes"/>
      <point x="88" y="32"/>
      <point x="107" y="13"/>
      <point x="149" y="2" type="curve" smooth="yes"/>
      <point x="191" y="-10"/>
      <point x="214" y="-10"/>
    </contour>
    <contour>
      <point x="226" y="568" type="line"/>
      <point x="316" y="568" type="line"/>
      <point x="316" y="666" type="line"/>
      <point x="226" y="666" type="line"/>
    </contour>
  </outline>
</glyph>
<glyph name="dcroat" format="2">
  <advance width="571"/>
  <unicode hex="0111"/>
  <outline>
    <contour>
      <point x="301" y="553" type="line"/>
      <point x="560" y="553" type="line"/>
      <point x="560" y="605" type="line"/>
      <point x="301" y="605" type="line"/>
    </contour>
    <component base="d"/>
  </outline>
</glyph>
<glyph name="Emacron" format="2">
  <advance width="580"/>
  <unicode hex="0112"/>
  <outline>
    <contour>
      <point x="84" y="0" type="line"/>
      <point x="530" y="0" type="line"/>
      <point x="530" y="68" type="line"/>
      <point x="181" y="68" type="line"/>
      <point x="181" y="301" type="line"/>
      <point x="487" y="301" type="line"/>
      <point x="487" y="369" type="line"/>
      <point x="181" y="369" type="line"/>
      <point x="181" y="581" type="line"/>
      <point x="520" y="581" type="line"/>
      <point x="520" y="649" type="line"/>
      <point x="84" y="649" type="line"/>
    </contour>
    <contour>
      <point x="193" y="739" type="line"/>
      <point x="411" y="739" type="line"/>
      <point x="411" y="798" type="line"/>
      <point x="193" y="798" type="line"/>
    </contour>
  </outline>
</glyph>
<glyph name="Ebreve" format="2">
  <advance width="580"/>
  <unicode hex="0114"/>
  <outline>
    <contour>
      <point x="84" y="0" type="line"/>
      <point x="530" y="0" type="line"/>
      <point x="530" y="68" type="line"/>
      <point x="181" y="68" type="line"/>
      <point x="181" y="301" type="line"/>
      <point x="487" y="301" type="line"/>
      <point x="487" y="369" type="line"/>
      <point x="181" y="369" type="line"/>
      <point x="181" y="581" type="line"/>
      <point x="520" y="581" type="line"/>
      <point x="520" y="649" type="line"/>
      <point x="84" y="649" type="line"/>
    </contour>
    <contour>
      <point x="305" y="703" type="curve" smooth="yes"/>
      <point x="376" y="703"/>
      <point x="418" y="753"/>
      <point x="423" y="830" type="curve"/>
      <point x="386" y="830" type="line"/>
      <point x="371" y="782"/>
      <point x="349" y="762"/>
      <point x="305" y="762" type="curve" smooth="yes"/>
      <point x="260" y="762"/>
      <point x="240" y="781"/>
      <point x="223" y="830" type="curve"/>
      <point x="187" y="830" type="line"/>
      <point x="191" y="753"/>
      <point x="233" y="703"/>
    </contour>
  </outline>
</glyph>
<glyph name="Edotaccent" format="2">
  <advance width="580"/>
  <unicode hex="0116"/>
  <outline>
    <contour>
      <point x="84" y="0" type="line"/>
      <point x="530" y="0" type="line"/>
      <point x="530" y="68" type="line"/>
      <point x="181" y="68" type="line"/>
      <point x="181" y="301" type="line"/>
      <point x="487" y="301" type="line"/>
      <point x="487" y="369" type="line"/>
      <point x="181" y="369" type="line"/>
      <point x="181" y="581" type="line"/>
      <point x="520" y="581" type="line"/>
      <point x="520" y="649" type="line"/>
      <point x="84" y="649" type="line"/>
    </contour>
    <contour>
      <point x="256" y="732" type="line"/>
      <point x="346" y="732" type="line"/>
      <point x="346" y="830" type="line"/>
      <point x="256" y="830" type="line"/>
    </contour>
  </outline>
</glyph>
<glyph name="Eogonek" format="2">
  <advance width="580"/>
  <unicode hex="0118"/>
  <outline>
    <contour>
      <point x="437" y="-186" type="curve" smooth="yes"/>
      <point x="456" y="-186"/>
      <point x="473" y="-183"/>
      <point x="487" y="-176" type="curve"/>
      <point x="487" y="-123" type="line"/>
      <point x="472" y="-128"/>
      <point x="461" y="-130"/>
      <point x="456" y="-130" type="curve" smooth="yes"/>
      <point x="430" y="-130"/>
      <point x="417" y="-119"/>
      <point x="417" y="-97" type="curve" smooth="yes"/>
      <point x="417" y="-66"/>
      <point x="428" y="-33"/>
      <point x="449" y="0" type="curve"/>
      <point x="530" y="0" type="line"/>
      <point x="530" y="68" type="line"/>
      <point x="181" y="68" type="line"/>
      <point x="181" y="301" type="line"/>
      <point x="487" y="301" type="line"/>
      <point x="487" y="369" type="line"/>
      <point x="181" y="369" type="line"/>
      <point x="181" y="581" type="line"/>
      <point x="520" y="581" type="line"/>
      <point x="520" y="649" type="line"/>
      <point x="84" y="649" type="line"/>
      <point x="84" y="0" type="line"/>
      <point x="374" y="0" type="line"/>
      <point x="350" y="-37"/>
      <point x="338" y="-73"/>
      <point x="338" y="-106" type="curve" smooth="yes"/>
      <point x="338" y="-163"/>
      <point x="372" y="-186"/>
    </contour>
  </outline>
</glyph>
<glyph name="eogonek" format="2">
  <advance width="535"/>
  <unicode hex="0119"/>
  <outline>
    <contour>
      <point x="353" y="-186" type="curve" smooth="yes"/>
      <point x="372" y="-186"/>
      <point x="389" y="-183"/>
      <point x="403" y="-176" type="curve"/>
      <point x="403" y="-123" type="line"/>
      <point x="388" y="-128"/>
      <point x="377" y="-130"/>
      <point x="372" y="-130" type="curve" smooth="yes"/>
      <point x="346" y="-130"/>
      <point x="333" y="-119"/>
      <point x="333" y="-97" type="curve" smooth="yes"/>
      <point x="333" y="-68"/>
      <point x="342" y="-37"/>
      <point x="361" y="-6" type="curve"/>
      <point x="389" y="-3"/>
      <point x="421" y="2"/>
      <point x="457" y="10" type="curve"/>
      <point x="457" y="79" type="line"/>
      <point x="394" y="63"/>
      <point x="341" y="55"/>
      <point x="298" y="55" type="curve" smooth="yes"/>
      <point x="199" y="55"/>
      <point x="151" y="81"/>
      <point x="151" y="149" type="curve" smooth="yes"/>
      <point x="151" y="222" type="line"/>
      <point x="476" y="222" type="line"/>
      <point x="476" y="329" type="line" smooth="yes"/>
      <point x="476" y="452"/>
      <point x="414" y="494"/>
      <point x="274" y="494" type="curve" smooth="yes"/>
      <point x="125" y="494"/>
      <point x="60" y="448"/>
      <point x="60" y="329" type="curve" smooth="yes"/>
      <point x="60" y="138" type="line" smooth="yes"/>
      <point x="60" y="35"/>
      <point x="146" y="-10"/>
      <point x="270" y="-10" type="curve" smooth="yes"/>
      <point x="283" y="-10" type="line"/>
      <point x="264" y="-42"/>
      <point x="254" y="-74"/>
      <point x="254" y="-106" type="curve" smooth="yes"/>
      <point x="254" y="-163"/>
      <point x="288" y="-186"/>
    </contour>
    <contour>
      <point x="151" y="281" type="line"/>
      <point x="151" y="357" type="line" smooth="yes"/>
      <point x="151" y="418"/>
      <point x="189" y="434"/>
      <point x="272" y="434" type="curve" smooth="yes"/>
      <point x="353" y="434"/>
      <point x="386" y="416"/>
      <point x="386" y="357" type="curve" smooth="yes"/>
      <point x="386" y="281" type="line"/>
    </contour>
  </outline>
</glyph>
<glyph name="Ecaron" format="2">
  <advance width="580"/>
  <unicode hex="011A"/>
  <outline>
    <contour>
      <point x="84" y="0" type="line"/>
      <point x="530" y="0" type="line"/>
      <point x="530" y="68" type="line"/>
      <point x="181" y="68" type="line"/>
      <point x="181" y="301" type="line"/>
      <point x="487" y="301" type="line"/>
      <point x="487" y="369" type="line"/>
      <point x="181" y="369" type="line"/>
      <point x="181" y="581" type="line"/>
      <point x="520" y="581" type="line"/>
      <point x="520" y="649" type="line"/>
      <point x="84" y="649" type="line"/>
    </contour>
    <contour>
      <point x="249" y="703" type="line"/>
      <point x="356" y="703" type="line"/>
      <point x="422" y="830" type="line"/>
      <point x="364" y="830" type="line"/>
      <point x="302" y="743" type="line"/>
      <point x="239" y="830" type="line"/>
      <point x="181" y="830" type="line"/>
    </contour>
  </outline>
</glyph>
<glyph name="ecaron" format="2">
  <advance width="535"/>
  <unicode hex="011B"/>
  <outline>
    <contour>
      <point x="282" y="-10" type="curve" smooth="yes"/>
      <point x="339" y="-10"/>
      <point x="397" y="-3"/>
      <point x="457" y="10" type="curve"/>
      <point x="457" y="79" type="line"/>
      <point x="394" y="63"/>
      <point x="340" y="55"/>
      <point x="294" y="55" type="curve" smooth="yes"/>
      <point x="199" y="55"/>
      <point x="151" y="81"/>
      <point x="151" y="149" type="curve" smooth="yes"/>
      <point x="151" y="222" type="line"/>
      <point x="476" y="222" type="line"/>
      <point x="476" y="329" type="line"/>
      <point x="476" y="452"/>
      <point x="414" y="494"/>
      <point x="274" y="494" type="curve" smooth="yes"/>
      <point x="125" y="494"/>
      <point x="60" y="448"/>
      <point x="60" y="329" type="curve" smooth="yes"/>
      <point x="60" y="138" type="line" smooth="yes"/>
      <point x="60" y="39"/>
      <point x="134" y="-10"/>
    </contour>
    <contour>
      <point x="151" y="281" type="line"/>
      <point x="151" y="357" type="line" smooth="yes"/>
      <point x="151" y="417"/>
      <point x="189" y="434"/>
      <point x="269" y="434" type="curve" smooth="yes"/>
      <point x="353" y="434"/>
      <point x="386" y="416"/>
      <point x="386" y="357" type="curve" smooth="yes"/>
      <point x="386" y="281" type="line"/>
    </contour>
    <contour>
      <point x="218" y="553" type="line"/>
      <point x="325" y="553" type="line"/>
      <point x="391" y="680" type="line"/>
      <point x="333" y="680" type="line"/>
      <point x="271" y="593" type="line"/>
      <point x="208" y="680" type="line"/>
      <point x="150" y="680" type="line"/>
    </contour>
  </outline>
</glyph>
<glyph name="Gcircumflex" format="2">
  <advance width="666"/>
  <unicode hex="011C"/>
  <outline>
    <contour>
      <point x="363" y="-10" type="curve" smooth="yes"/>
      <point x="436" y="-10"/>
      <point x="515" y="0"/>
      <point x="602" y="20" type="curve"/>
      <point x="602" y="369" type="line"/>
      <point x="360" y="369" type="line"/>
      <point x="360" y="301" type="line"/>
      <point x="512" y="301" type="line"/>
      <point x="512" y="74" type="line"/>
      <point x="461" y="62"/>
      <point x="414" y="56"/>
      <point x="369" y="56" type="curve" smooth="yes"/>
      <point x="318" y="56"/>
      <point x="277" y="61"/>
      <point x="233" y="77" type="curve"/>
      <point x="188" y="92"/>
      <point x="160" y="124"/>
      <point x="160" y="168" type="curve" smooth="yes"/>
      <point x="160" y="474" type="line" smooth="yes"/>
      <point x="160" y="553"/>
      <point x="228" y="592"/>
      <point x="365" y="592" type="curve" smooth="yes"/>
      <point x="421" y="592"/>
      <point x="536" y="580"/>
      <point x="587" y="568" type="curve"/>
      <point x="587" y="643" type="line"/>
      <point x="518" y="654"/>
      <point x="443" y="659"/>
      <point x="363" y="659" type="curve" smooth="yes"/>
      <point x="296" y="659"/>
      <point x="240" y="651"/>
      <point x="173" y="627" type="curve" smooth="yes"/>
      <point x="106" y="603"/>
      <point x="64" y="549"/>
      <point x="64" y="473" type="curve" smooth="yes"/>
      <point x="64" y="166" type="line" smooth="yes"/>
      <point x="64" y="137"/>
      <point x="71" y="112"/>
      <point x="84" y="90" type="curve" smooth="yes"/>
      <point x="111" y="46"/>
      <point x="151" y="24"/>
      <point x="207" y="9" type="curve" smooth="yes"/>
      <point x="263" y="-7"/>
      <point x="308" y="-10"/>
    </contour>
    <contour>
      <point x="212" y="718" type="line"/>
      <point x="270" y="718" type="line"/>
      <point x="333" y="805" type="line"/>
      <point x="395" y="718" type="line"/>
      <point x="453" y="718" type="line"/>
      <point x="387" y="845" type="line"/>
      <point x="280" y="845" type="line"/>
    </contour>
  </outline>
</glyph>
<glyph name="gcircumflex" format="2">
  <advance width="569"/>
  <unicode hex="011D"/>
  <outline>
    <contour>
      <point x="261" y="-220" type="curve" smooth="yes"/>
      <point x="414" y="-220"/>
      <point x="491" y="-183"/>
      <point x="491" y="-46" type="curve" smooth="yes"/>
      <point x="491" y="484" type="line"/>
      <point x="407" y="484" type="line"/>
      <point x="407" y="437" type="line"/>
      <point x="392" y="475"/>
      <point x="343" y="494"/>
      <point x="259" y="494" type="curve" smooth="yes"/>
      <point x="118" y="494"/>
      <point x="60" y="449"/>
      <point x="60" y="334" type="curve" smooth="yes"/>
      <point x="60" y="137" type="line" smooth="yes"/>
      <point x="60" y="29"/>
      <point x="104" y="-10"/>
      <point x="253" y="-10" type="curve" smooth="yes"/>
      <point x="329" y="-10"/>
      <point x="398" y="7"/>
      <point x="401" y="52" type="curve"/>
      <point x="401" y="-64" type="line" smooth="yes"/>
      <point x="401" y="-132"/>
      <point x="361" y="-159"/>
      <point x="269" y="-159" type="curve" smooth="yes"/>
      <point x="229" y="-159"/>
      <point x="171" y="-154"/>
      <point x="94" y="-145" type="curve"/>
      <point x="94" y="-209" type="line"/>
      <point x="137" y="-216"/>
      <point x="192" y="-220"/>
    </contour>
    <contour>
      <point x="272" y="50" type="curve" smooth="yes"/>
      <point x="173" y="50"/>
      <point x="149" y="64"/>
      <point x="149" y="131" type="curve" smooth="yes"/>
      <point x="149" y="350" type="line" smooth="yes"/>
      <point x="149" y="414"/>
      <point x="170" y="432"/>
      <point x="270" y="432" type="curve" smooth="yes"/>
      <point x="377" y="432"/>
      <point x="401" y="413"/>
      <point x="401" y="350" type="curve" smooth="yes"/>
      <point x="401" y="131" type="line"/>
      <point x="401" y="67"/>
      <point x="363" y="50"/>
    </contour>
    <contour>
      <point x="158" y="553" type="line"/>
      <point x="216" y="553" type="line"/>
      <point x="279" y="640" type="line"/>
      <point x="341" y="553" type="line"/>
      <point x="399" y="553" type="line"/>
      <point x="333" y="680" type="line"/>
      <point x="226" y="680" type="line"/>
    </contour>
  </outline>
</glyph>
<glyph name="Gbreve" format="2">
  <advance width="666"/>
  <unicode hex="011E"/>
  <outline>
    <contour>
      <point x="363" y="-10" type="curve" smooth="yes"/>
      <point x="436" y="-10"/>
      <point x="515" y="0"/>
      <point x="602" y="20" type="curve"/>
      <point x="602" y="369" type="line"/>
      <point x="360" y="369" type="line"/>
      <point x="360" y="301" type="line"/>
      <point x="512" y="301" type="line"/>
      <point x="512" y="74" type="line"/>
      <point x="461" y="62"/>
      <point x="414" y="56"/>
      <point x="369" y="56" type="curve" smooth="yes"/>
      <point x="318" y="56"/>
      <point x="277" y="61"/>
      <point x="233" y="77" type="curve"/>
      <point x="188" y="92"/>
      <point x="160" y="124"/>
      <point x="160" y="168" type="curve" smooth="yes"/>
      <point x="160" y="474" type="line" smooth="yes"/>
      <point x="160" y="553"/>
      <point x="228" y="592"/>
      <point x="365" y="592" type="curve" smooth="yes"/>
      <point x="421" y="592"/>
      <point x="536" y="580"/>
      <point x="587" y="568" type="curve"/>
      <point x="587" y="643" type="line"/>
      <point x="518" y="654"/>
      <point x="443" y="659"/>
      <point x="363" y="659" type="curve" smooth="yes"/>
      <point x="296" y="659"/>
      <point x="240" y="651"/>
      <point x="173" y="627" type="curve" smooth="yes"/>
      <point x="106" y="603"/>
      <point x="64" y="549"/>
      <point x="64" y="473" type="curve" smooth="yes"/>
      <point x="64" y="166" type="line" smooth="yes"/>
      <point x="64" y="137"/>
      <point x="71" y="112"/>
      <point x="84" y="90" type="curve" smooth="yes"/>
      <point x="111" y="46"/>
      <point x="151" y="24"/>
      <point x="207" y="9" type="curve" smooth="yes"/>
      <point x="263" y="-7"/>
      <point x="308" y="-10"/>
    </contour>
    <contour>
      <point x="333" y="718" type="curve" smooth="yes"/>
      <point x="369" y="718"/>
      <point x="397" y="730"/>
      <point x="418" y="753" type="curve" smooth="yes"/>
      <point x="439" y="776"/>
      <point x="450" y="806"/>
      <point x="451" y="845" type="curve"/>
      <point x="397" y="845" type="line"/>
      <point x="393" y="800"/>
      <point x="372" y="777"/>
      <point x="333" y="777" type="curve" smooth="yes"/>
      <point x="294" y="777"/>
      <point x="273" y="800"/>
      <point x="269" y="845" type="curve"/>
      <point x="215" y="845" type="line"/>
      <point x="218" y="768"/>
      <point x="261" y="718"/>
    </contour>
  </outline>
</glyph>
<glyph name="gbreve" format="2">
  <advance width="569"/>
  <unicode hex="011F"/>
  <outline>
    <contour>
      <point x="261" y="-220" type="curve" smooth="yes"/>
      <point x="414" y="-220"/>
      <point x="491" y="-183"/>
      <point x="491" y="-46" type="curve" smooth="yes"/>
      <point x="491" y="484" type="line"/>
      <point x="407" y="484" type="line"/>
      <point x="407" y="437" type="line"/>
      <point x="392" y="475"/>
      <point x="343" y="494"/>
      <point x="259" y="494" type="curve" smooth="yes"/>
      <point x="118" y="494"/>
      <point x="60" y="449"/>
      <point x="60" y="334" type="curve" smooth="yes"/>
      <point x="60" y="137" type="line" smooth="yes"/>
      <point x="60" y="29"/>
      <point x="104" y="-10"/>
      <point x="253" y="-10" type="curve" smooth="yes"/>
      <point x="329" y="-10"/>
      <point x="398" y="7"/>
      <point x="401" y="52" type="curve"/>
      <point x="401" y="-64" type="line" smooth="yes"/>
      <point x="401" y="-132"/>
      <point x="361" y="-159"/>
      <point x="269" y="-159" type="curve" smooth="yes"/>
      <point x="229" y="-159"/>
      <point x="171" y="-154"/>
      <point x="94" y="-145" type="curve"/>
      <point x="94" y="-209" type="line"/>
      <point x="137" y="-216"/>
      <point x="192" y="-220"/>
    </contour>
    <contour>
      <point x="272" y="50" type="curve" smooth="yes"/>
      <point x="173" y="50"/>
      <point x="149" y="64"/>
      <point x="149" y="131" type="curve" smooth="yes"/>
      <point x="149" y="350" type="line" smooth="yes"/>
      <point x="149" y="414"/>
      <point x="170" y="432"/>
      <point x="270" y="432" type="curve" smooth="yes"/>
      <point x="377" y="432"/>
      <point x="401" y="413"/>
      <point x="401" y="350" type="curve" smooth="yes"/>
      <point x="401" y="131" type="line"/>
      <point x="401" y="67"/>
      <point x="363" y="50"/>
    </contour>
    <contour>
      <point x="265" y="553" type="curve" smooth="yes"/>
      <point x="301" y="553"/>
      <point x="329" y="565"/>
      <point x="350" y="588" type="curve" smooth="yes"/>
      <point x="371" y="611"/>
      <point x="382" y="641"/>
      <point x="383" y="680" type="curve"/>
      <point x="329" y="680" type="line"/>
      <point x="325" y="635"/>
      <point x="304" y="612"/>
      <point x="265" y="612" type="curve" smooth="yes"/>
      <point x="226" y="612"/>
      <point x="205" y="635"/>
      <point x="201" y="680" type="curve"/>
      <point x="147" y="680" type="line"/>
      <point x="150" y="603"/>
      <point x="193" y="553"/>
    </contour>
  </outline>
</glyph>
<glyph name="gcommaaccent" format="2">
  <advance width="569"/>
  <unicode hex="0123"/>
  <outline>
    <contour>
      <point x="261" y="-190" type="curve" smooth="yes"/>
      <point x="414" y="-190"/>
      <point x="491" y="-153"/>
      <point x="491" y="-16" type="curve" smooth="yes"/>
      <point x="491" y="484" type="line"/>
      <point x="407" y="484" type="line"/>
      <point x="407" y="437" type="line"/>
      <point x="392" y="475"/>
      <point x="343" y="494"/>
      <point x="259" y="494" type="curve" smooth="yes"/>
      <point x="118" y="494"/>
      <point x="60" y="449"/>
      <point x="60" y="334" type="curve" smooth="yes"/>
      <point x="60" y="137" type="line" smooth="yes"/>
      <point x="60" y="29"/>
      <point x="104" y="-10"/>
      <point x="253" y="-10" type="curve" smooth="yes"/>
      <point x="330" y="-10"/>
      <point x="404" y="7"/>
      <point x="407" y="52" type="curve"/>
      <point x="407" y="-34" type="line" smooth="yes"/>
      <point x="407" y="-101"/>
      <point x="362" y="-129"/>
      <point x="269" y="-129" type="curve" smooth="yes"/>
      <point x="229" y="-129"/>
      <point x="171" y="-124"/>
      <point x="94" y="-115" type="curve"/>
      <point x="94" y="-179" type="line"/>
      <point x="137" y="-186"/>
      <point x="192" y="-190"/>
    </contour>
    <contour>
      <point x="272" y="50" type="curve" smooth="yes"/>
      <point x="173" y="50"/>
      <point x="149" y="64"/>
      <point x="149" y="131" type="curve" smooth="yes"/>
      <point x="149" y="350" type="line" smooth="yes"/>
      <point x="149" y="414"/>
      <point x="170" y="432"/>
      <point x="270" y="432" type="curve" smooth="yes"/>
      <point x="377" y="432"/>
      <point x="401" y="413"/>
      <point x="401" y="350" type="curve" smooth="yes"/>
      <point x="401" y="131" type="line"/>
      <point x="401" y="67"/>
      <point x="363" y="50"/>
    </contour>
    <contour>
      <point x="242" y="539" type="line"/>
      <point x="299" y="539" type="line"/>
      <point x="382" y="689" type="line"/>
      <point x="288" y="689" type="line"/>
    </contour>
  </outline>
</glyph>
<glyph name="Hcircumflex" format="2">
  <advance width="707"/>
  <unicode hex="0124"/>
  <outline>
    <contour>
      <point x="84" y="0" type="line"/>
      <point x="181" y="0" type="line"/>
      <point x="181" y="301" type="line"/>
      <point x="526" y="301" type="line"/>
      <point x="526" y="0" type="line"/>
      <point x="623" y="0" type="line"/>
      <point x="623" y="649" type="line"/>
      <point x="526" y="649" type="line"/>
      <point x="526" y="369" type="line"/>
      <point x="181" y="369" type="line"/>
      <point x="181" y="649" type="line"/>
      <point x="84" y="649" type="line"/>
    </contour>
    <contour>
      <point x="230" y="703" type="line"/>
      <point x="288" y="703" type="line"/>
      <point x="351" y="790" type="line"/>
      <point x="413" y="703" type="line"/>
      <point x="471" y="703" type="line"/>
      <point x="405" y="830" type="line"/>
      <point x="298" y="830" type="line"/>
    </contour>
  </outline>
</glyph>
<glyph name="hcircumflex" format="2">
  <advance width="573"/>
  <unicode hex="0125"/>
  <outline>
    <contour>
      <point x="78" y="0" type="line"/>
      <point x="168" y="0" type="line"/>
      <point x="168" y="349" type="line" smooth="yes"/>
      <point x="168" y="408"/>
      <point x="190" y="429"/>
      <point x="301" y="429" type="curve" smooth="yes"/>
      <point x="346" y="429"/>
      <point x="377" y="420"/>
      <point x="390" y="404" type="curve"/>
      <point x="402" y="387"/>
      <point x="405" y="373"/>
      <point x="405" y="349" type="curve" smooth="yes"/>
      <point x="405" y="0" type="line"/>
      <point x="495" y="0" type="line"/>
      <point x="495" y="355" type="line"/>
      <point x="495" y="448"/>
      <point x="455" y="494"/>
      <point x="327" y="494" type="curve" smooth="yes"/>
      <point x="230" y="494"/>
      <point x="177" y="471"/>
      <point x="168" y="425" type="curve"/>
      <point x="168" y="700" type="line"/>
      <point x="78" y="700" type="line"/>
    </contour>
    <contour>
      <point x="10" y="733" type="line"/>
      <point x="68" y="733" type="line"/>
      <point x="131" y="820" type="line"/>
      <point x="193" y="733" type="line"/>
      <point x="251" y="733" type="line"/>
      <point x="185" y="860" type="line"/>
      <point x="78" y="860" type="line"/>
    </contour>
  </outline>
</glyph>
<glyph name="Hbar" format="2">
  <advance width="707"/>
  <unicode hex="0126"/>
  <outline>
    <contour>
      <point x="84" y="0" type="line"/>
      <point x="181" y="0" type="line"/>
      <point x="181" y="241" type="line"/>
      <point x="526" y="241" type="line"/>
      <point x="526" y="0" type="line"/>
      <point x="623" y="0" type="line"/>
      <point x="623" y="649" type="line"/>
      <point x="526" y="649" type="line"/>
      <point x="526" y="469" type="line"/>
      <point x="181" y="469" type="line"/>
      <point x="181" y="649" type="line"/>
      <point x="84" y="649" type="line"/>
    </contour>
    <contour>
      <point x="181" y="309" type="line"/>
      <point x="181" y="401" type="line"/>
      <point x="526" y="401" type="line"/>
      <point x="526" y="309" type="line"/>
    </contour>
  </outline>
</glyph>
<glyph name="Imacron" format="2">
  <advance width="265"/>
  <unicode hex="012A"/>
  <outline>
    <contour>
      <point x="84" y="0" type="line"/>
      <point x="181" y="0" type="line"/>
      <point x="181" y="649" type="line"/>
      <point x="84" y="649" type="line"/>
    </contour>
    <contour>
      <point x="24" y="739" type="line"/>
      <point x="242" y="739" type="line"/>
      <point x="242" y="798" type="line"/>
      <point x="24" y="798" type="line"/>
    </contour>
  </outline>
</glyph>
<glyph name="imacron" format="2">
  <advance width="246"/>
  <unicode hex="012B"/>
  <outline>
    <contour>
      <point x="79" y="0" type="line"/>
      <point x="169" y="0" type="line"/>
      <point x="169" y="484" type="line"/>
      <point x="79" y="484" type="line"/>
    </contour>
    <contour>
      <point x="3" y="591" type="line"/>
      <point x="244" y="591" type="line"/>
      <point x="244" y="654" type="line"/>
      <point x="3" y="654" type="line"/>
    </contour>
  </outline>
</glyph>
<glyph name="Ibreve" format="2">
  <advance width="265"/>
  <unicode hex="012C"/>
  <outline>
    <contour>
      <point x="84" y="0" type="line"/>
      <point x="181" y="0" type="line"/>
      <point x="181" y="649" type="line"/>
      <point x="84" y="649" type="line"/>
    </contour>
    <contour>
      <point x="133" y="718" type="curve" smooth="yes"/>
      <point x="169" y="718"/>
      <point x="197" y="730"/>
      <point x="218" y="753" type="curve" smooth="yes"/>
      <point x="239" y="776"/>
      <point x="250" y="806"/>
      <point x="251" y="845" type="curve"/>
      <point x="197" y="845" type="line"/>
      <point x="193" y="800"/>
      <point x="172" y="777"/>
      <point x="133" y="777" type="curve" smooth="yes"/>
      <point x="94" y="777"/>
      <point x="73" y="800"/>
      <point x="69" y="845" type="curve"/>
      <point x="15" y="845" type="line"/>
      <point x="18" y="768"/>
      <point x="61" y="718"/>
    </contour>
  </outline>
</glyph>
<glyph name="ibreve" format="2">
  <advance width="246"/>
  <unicode hex="012D"/>
  <outline>
    <contour>
      <point x="79" y="0" type="line"/>
      <point x="169" y="0" type="line"/>
      <point x="169" y="484" type="line"/>
      <point x="79" y="484" type="line"/>
    </contour>
    <contour>
      <point x="124" y="553" type="curve" smooth="yes"/>
      <point x="160" y="553"/>
      <point x="188" y="565"/>
      <point x="209" y="588" type="curve" smooth="yes"/>
      <point x="230" y="611"/>
      <point x="241" y="641"/>
      <point x="242" y="680" type="curve"/>
      <point x="188" y="680" type="line"/>
      <point x="184" y="635"/>
      <point x="163" y="612"/>
      <point x="124" y="612" type="curve" smooth="yes"/>
      <point x="85" y="612"/>
      <point x="64" y="635"/>
      <point x="60" y="680" type="curve"/>
      <point x="6" y="680" type="line"/>
      <point x="9" y="603"/>
      <point x="52" y="553"/>
    </contour>
  </outline>
</glyph>
<glyph name="Iogonek" format="2">
  <advance width="265"/>
  <unicode hex="012E"/>
  <outline>
    <contour>
      <point x="158" y="-186" type="curve" smooth="yes"/>
      <point x="177" y="-186"/>
      <point x="194" y="-183"/>
      <point x="208" y="-176" type="curve"/>
      <point x="208" y="-123" type="line"/>
      <point x="193" y="-128"/>
      <point x="182" y="-130"/>
      <point x="177" y="-130" type="curve" smooth="yes"/>
      <point x="151" y="-130"/>
      <point x="138" y="-119"/>
      <point x="138" y="-97" type="curve" smooth="yes"/>
      <point x="138" y="-64"/>
      <point x="152" y="-31"/>
      <point x="181" y="0" type="curve"/>
      <point x="181" y="649" type="line"/>
      <point x="84" y="649" type="line"/>
      <point x="84" y="0" type="line"/>
      <point x="67" y="-40"/>
      <point x="59" y="-75"/>
      <point x="59" y="-106" type="curve" smooth="yes"/>
      <point x="59" y="-163"/>
      <point x="91" y="-186"/>
    </contour>
  </outline>
</glyph>
<glyph name="iogonek" format="2">
  <advance width="246"/>
  <unicode hex="012F"/>
  <outline>
    <contour>
      <point x="142" y="-186" type="curve" smooth="yes"/>
      <point x="161" y="-186"/>
      <point x="178" y="-183"/>
      <point x="192" y="-176" type="curve"/>
      <point x="192" y="-123" type="line"/>
      <point x="177" y="-128"/>
      <point x="166" y="-130"/>
      <point x="161" y="-130" type="curve" smooth="yes"/>
      <point x="135" y="-130"/>
      <point x="122" y="-119"/>
      <point x="122" y="-97" type="curve" smooth="yes"/>
      <point x="122" y="-62"/>
      <point x="138" y="-30"/>
      <point x="169" y="0" type="curve"/>
      <point x="169" y="484" type="line"/>
      <point x="79" y="484" type="line"/>
      <point x="79" y="0" type="line"/>
      <point x="55" y="-37"/>
      <point x="43" y="-73"/>
      <point x="43" y="-106" type="curve" smooth="yes"/>
      <point x="43" y="-163"/>
      <point x="75" y="-186"/>
    </contour>
  </outline>
</glyph>
<glyph name="Idotaccent" format="2">
  <advance width="265"/>
  <unicode hex="0130"/>
  <outline>
    <contour>
      <point x="84" y="0" type="line"/>
      <point x="181" y="0" type="line"/>
      <point x="181" y="649" type="line"/>
      <point x="84" y="649" type="line"/>
    </contour>
    <contour>
      <point x="87" y="713" type="line"/>
      <point x="177" y="713" type="line"/>
      <point x="177" y="811" type="line"/>
      <point x="87" y="811" type="line"/>
    </contour>
  </outline>
</glyph>
<glyph name="idotless" format="2">
  <advance width="246"/>
  <unicode hex="0131"/>
  <anchor x="123" y="0" name="bottom"/>
  <anchor x="123" y="0" name="mark0"/>
  <anchor x="221" y="10" name="mark1"/>
  <anchor x="123" y="484" name="mark2"/>
  <anchor x="221" y="10" name="ogonek"/>
  <anchor x="123" y="484" name="top"/>
  <outline>
    <contour>
      <point x="79" y="0" type="line"/>
      <point x="169" y="0" type="line"/>
      <point x="169" y="484" type="line"/>
      <point x="79" y="484" type="line"/>
    </contour>
  </outline>
</glyph>
<glyph name="IJ" format="2">
  <advance width="601"/>
  <unicode hex="0132"/>
  <outline>
    <contour>
      <point x="337" y="-5" type="curve" smooth="yes"/>
      <point x="468" y="-5"/>
      <point x="517" y="20"/>
      <point x="517" y="143" type="curve" smooth="yes"/>
      <point x="517" y="649" type="line"/>
      <point x="420" y="649" type="line"/>
      <point x="420" y="139" type="line" smooth="yes"/>
      <point x="420" y="66"/>
      <point x="401" y="55"/>
      <point x="325" y="55" type="curve" smooth="yes"/>
      <point x="304" y="55"/>
      <point x="275" y="58"/>
      <point x="245" y="63" type="curve" smooth="yes"/>
      <point x="230" y="65"/>
      <point x="221" y="66"/>
      <point x="218" y="66" type="curve"/>
      <point x="218" y="1" type="line"/>
      <point x="286" y="-3"/>
      <point x="326" y="-5"/>
    </contour>
    <contour>
      <point x="84" y="0" type="line"/>
      <point x="181" y="0" type="line"/>
      <point x="181" y="649" type="line"/>
      <point x="84" y="649" type="line"/>
    </contour>
  </outline>
</glyph>
<glyph name="ij" format="2">
  <advance width="477"/>
  <unicode hex="0133"/>
  <outline>
    <contour>
      <point x="238" y="-187" type="curve" smooth="yes"/>
      <point x="358" y="-187"/>
      <point x="399" y="-160"/>
      <point x="399" y="-40" type="curve" smooth="yes"/>
      <point x="399" y="484" type="line"/>
      <point x="309" y="484" type="line"/>
      <point x="309" y="-47" type="line" smooth="yes"/>
      <point x="309" y="-119"/>
      <point x="282" y="-131"/>
      <point x="205" y="-131" type="curve" smooth="yes"/>
      <point x="197" y="-131"/>
      <point x="191" y="-131"/>
      <point x="187" y="-130" type="curve"/>
      <point x="187" y="-186" type="line"/>
      <point x="198" y="-187"/>
      <point x="215" y="-187"/>
    </contour>
    <contour>
      <point x="78" y="0" type="line"/>
      <point x="168" y="0" type="line"/>
      <point x="168" y="484" type="line"/>
      <point x="78" y="484" type="line"/>
    </contour>
    <contour>
      <point x="78" y="565" type="line"/>
      <point x="168" y="565" type="line"/>
      <point x="168" y="660" type="line"/>
      <point x="78" y="660" type="line"/>
    </contour>
    <contour>
      <point x="309" y="565" type="line"/>
      <point x="399" y="565" type="line"/>
      <point x="399" y="660" type="line"/>
      <point x="309" y="660" type="line"/>
    </contour>
  </outline>
</glyph>
<glyph name="Jcircumflex" format="2">
  <advance width="403"/>
  <unicode hex="0134"/>
  <outline>
    <contour>
      <point x="139" y="-10" type="curve" smooth="yes"/>
      <point x="268" y="-10"/>
      <point x="319" y="19"/>
      <point x="319" y="143" type="curve" smooth="yes"/>
      <point x="319" y="649" type="line"/>
      <point x="222" y="649" type="line"/>
      <point x="222" y="139" type="line" smooth="yes"/>
      <point x="222" y="64"/>
      <point x="202" y="50"/>
      <point x="127" y="50" type="curve" smooth="yes"/>
      <point x="96" y="50"/>
      <point x="61" y="55"/>
      <point x="20" y="66" type="curve"/>
      <point x="20" y="1" type="line"/>
      <point x="45" y="-6"/>
      <point x="84" y="-10"/>
    </contour>
    <contour>
      <point x="149" y="712" type="line"/>
      <point x="207" y="712" type="line"/>
      <point x="270" y="799" type="line"/>
      <point x="332" y="712" type="line"/>
      <point x="390" y="712" type="line"/>
      <point x="324" y="839" type="line"/>
      <point x="217" y="839" type="line"/>
    </contour>
  </outline>
</glyph>
<glyph name="jcircumflex" format="2">
  <advance width="247"/>
  <unicode hex="0135"/>
  <outline>
    <contour>
      <point x="8" y="-220" type="curve" smooth="yes"/>
      <point x="128" y="-220"/>
      <point x="169" y="-193"/>
      <point x="169" y="-73" type="curve" smooth="yes"/>
      <point x="169" y="484" type="line"/>
      <point x="79" y="484" type="line"/>
      <point x="79" y="-80" type="line" smooth="yes"/>
      <point x="79" y="-152"/>
      <point x="52" y="-164"/>
      <point x="-25" y="-164" type="curve" smooth="yes"/>
      <point x="-33" y="-164"/>
      <point x="-39" y="-164"/>
      <point x="-43" y="-163" type="curve"/>
      <point x="-43" y="-219" type="line"/>
      <point x="-32" y="-220"/>
      <point x="-15" y="-220"/>
    </contour>
    <contour>
      <point x="7" y="553" type="line"/>
      <point x="65" y="553" type="line"/>
      <point x="128" y="640" type="line"/>
      <point x="190" y="553" type="line"/>
      <point x="248" y="553" type="line"/>
      <point x="182" y="680" type="line"/>
      <point x="75" y="680" type="line"/>
    </contour>
  </outline>
</glyph>
<glyph name="kcommaaccent" format="2">
  <advance width="514"/>
  <unicode hex="0137"/>
  <outline>
    <contour>
      <point x="400" y="0" type="line"/>
      <point x="512" y="0" type="line"/>
      <point x="283" y="265" type="line"/>
      <point x="493" y="484" type="line"/>
      <point x="383" y="484" type="line"/>
      <point x="179" y="265" type="line"/>
    </contour>
    <contour>
      <point x="182" y="-190" type="line"/>
      <point x="239" y="-190" type="line"/>
      <point x="322" y="-40" type="line"/>
      <point x="228" y="-40" type="line"/>
    </contour>
    <contour>
      <point x="78" y="0" type="line"/>
      <point x="168" y="0" type="line"/>
      <point x="168" y="693" type="line"/>
      <point x="78" y="693" type="line"/>
    </contour>
  </outline>
</glyph>
<glyph name="kgreenlandic" format="2">
  <advance width="580"/>
  <unicode hex="0138"/>
  <outline>
    <contour>
      <point x="446" y="0" type="line"/>
      <point x="572" y="0" type="line"/>
      <point x="291" y="254" type="line"/>
      <point x="543" y="484" type="line"/>
      <point x="426" y="484" type="line"/>
      <point x="176" y="250" type="line"/>
    </contour>
    <contour>
      <point x="84" y="0" type="line"/>
      <point x="174" y="0" type="line"/>
      <point x="174" y="484" type="line"/>
      <point x="84" y="484" type="line"/>
    </contour>
  </outline>
</glyph>
<glyph name="Lacute" format="2">
  <advance width="520"/>
  <unicode hex="0139"/>
  <outline>
    <contour>
      <point x="84" y="0" type="line"/>
      <point x="500" y="0" type="line"/>
      <point x="500" y="68" type="line"/>
      <point x="181" y="68" type="line"/>
      <point x="181" y="649" type="line"/>
      <point x="84" y="649" type="line"/>
    </contour>
    <contour>
      <point x="94" y="703" type="line"/>
      <point x="168" y="703" type="line"/>
      <point x="293" y="830" type="line"/>
      <point x="184" y="830" type="line"/>
    </contour>
  </outline>
</glyph>
<glyph name="lacute" format="2">
  <advance width="246"/>
  <unicode hex="013A"/>
  <outline>
    <contour>
      <point x="78" y="0" type="line"/>
      <point x="168" y="0" type="line"/>
      <point x="168" y="700" type="line"/>
      <point x="78" y="700" type="line"/>
    </contour>
    <contour>
      <point x="78" y="741" type="line"/>
      <point x="152" y="741" type="line"/>
      <point x="277" y="868" type="line"/>
      <point x="168" y="868" type="line"/>
    </contour>
  </outline>
</glyph>
<glyph name="Lcommaaccent" format="2">
  <advance width="520"/>
  <unicode hex="013B"/>
  <outline>
    <contour>
      <point x="84" y="0" type="line"/>
      <point x="500" y="0" type="line"/>
      <point x="500" y="68" type="line"/>
      <point x="181" y="68" type="line"/>
      <point x="181" y="649" type="line"/>
      <point x="84" y="649" type="line"/>
    </contour>
    <contour>
      <point x="214" y="-190" type="line"/>
      <point x="278" y="-190" type="line"/>
      <point x="361" y="-40" type="line"/>
      <point x="260" y="-40" type="line"/>
    </contour>
  </outline>
</glyph>
<glyph name="lcommaaccent" format="2">
  <advance width="246"/>
  <unicode hex="013C"/>
  <outline>
    <contour>
      <point x="78" y="0" type="line"/>
      <point x="168" y="0" type="line"/>
      <point x="168" y="693" type="line"/>
      <point x="78" y="693" type="line"/>
    </contour>
    <contour>
      <point x="42" y="-190" type="line"/>
      <point x="99" y="-190" type="line"/>
      <point x="182" y="-40" type="line"/>
      <point x="88" y="-40" type="line"/>
    </contour>
  </outline>
</glyph>
<glyph name="Lcaron" format="2">
  <advance width="520"/>
  <unicode hex="013D"/>
  <outline>
    <contour>
      <point x="84" y="0" type="line"/>
      <point x="500" y="0" type="line"/>
      <point x="500" y="68" type="line"/>
      <point x="181" y="68" type="line"/>
      <point x="181" y="649" type="line"/>
      <point x="84" y="649" type="line"/>
    </contour>
    <contour>
      <point x="242" y="499" type="line"/>
      <point x="306" y="499" type="line"/>
      <point x="389" y="649" type="line"/>
      <point x="288" y="649" type="line"/>
    </contour>
  </outline>
</glyph>
<glyph name="lcaron" format="2">
  <advance width="292"/>
  <unicode hex="013E"/>
  <outline>
    <contour>
      <point x="78" y="0" type="line"/>
      <point x="168" y="0" type="line"/>
      <point x="168" y="693" type="line"/>
      <point x="78" y="693" type="line"/>
    </contour>
    <contour>
      <point x="222" y="529" type="line"/>
      <point x="279" y="529" type="line"/>
      <point x="362" y="679" type="line"/>
      <point x="268" y="679" type="line"/>
    </contour>
  </outline>
</glyph>
<glyph name="Ldot" format="2">
  <advance width="520"/>
  <unicode hex="013F"/>
  <outline>
    <contour>
      <point x="84" y="0" type="line"/>
      <point x="500" y="0" type="line"/>
      <point x="500" y="68" type="line"/>
      <point x="181" y="68" type="line"/>
      <point x="181" y="649" type="line"/>
      <point x="84" y="649" type="line"/>
    </contour>
    <contour>
      <point x="240" y="283" type="line"/>
      <point x="330" y="283" type="line"/>
      <point x="330" y="381" type="line"/>
      <point x="240" y="381" type="line"/>
    </contour>
  </outline>
</glyph>
<glyph name="ldot" format="2">
  <advance width="300"/>
  <unicode hex="0140"/>
  <outline>
    <contour>
      <point x="78" y="0" type="line"/>
      <point x="168" y="0" type="line"/>
      <point x="168" y="693" type="line"/>
      <point x="78" y="693" type="line"/>
    </contour>
    <contour>
      <point x="228" y="370" type="line"/>
      <point x="318" y="370" type="line"/>
      <point x="318" y="468" type="line"/>
      <point x="228" y="468" type="line"/>
    </contour>
  </outline>
</glyph>
<glyph name="Lslash" format="2">
  <advance width="540"/>
  <unicode hex="0141"/>
  <outline>
    <contour>
      <point x="104" y="0" type="line"/>
      <point x="520" y="0" type="line"/>
      <point x="520" y="68" type="line"/>
      <point x="201" y="68" type="line"/>
      <point x="201" y="311" type="line"/>
      <point x="312" y="343" type="line"/>
      <point x="312" y="414" type="line"/>
      <point x="201" y="382" type="line"/>
      <point x="201" y="649" type="line"/>
      <point x="104" y="649" type="line"/>
      <point x="104" y="354" type="line"/>
      <point x="20" y="330" type="line"/>
      <point x="20" y="259" type="line"/>
      <point x="104" y="283" type="line"/>
    </contour>
  </outline>
</glyph>
<glyph name="lslash" format="2">
  <advance width="246"/>
  <unicode hex="0142"/>
  <outline>
    <contour>
      <point x="78" y="0" type="line"/>
      <point x="168" y="0" type="line"/>
      <point x="168" y="391" type="line"/>
      <point x="246" y="423" type="line"/>
      <point x="246" y="494" type="line"/>
      <point x="168" y="462" type="line"/>
      <point x="168" y="700" type="line"/>
      <point x="78" y="700" type="line"/>
      <point x="78" y="426" type="line"/>
      <point x="0" y="394" type="line"/>
      <point x="0" y="323" type="line"/>
      <point x="78" y="355" type="line"/>
    </contour>
  </outline>
</glyph>
<glyph name="Nacute" format="2">
  <advance width="723"/>
  <unicode hex="0143"/>
  <outline>
    <contour>
      <point x="84" y="0" type="line"/>
      <point x="169" y="0" type="line"/>
      <point x="169" y="545" type="line"/>
      <point x="522" y="0" type="line"/>
      <point x="639" y="0" type="line"/>
      <point x="639" y="649" type="line"/>
      <point x="554" y="649" type="line"/>
      <point x="554" y="113" type="line"/>
      <point x="201" y="649" type="line"/>
      <point x="84" y="649" type="line"/>
    </contour>
    <contour>
      <point x="280" y="703" type="line"/>
      <point x="354" y="703" type="line"/>
      <point x="479" y="830" type="line"/>
      <point x="370" y="830" type="line"/>
    </contour>
  </outline>
</glyph>
<glyph name="Ncommaaccent" format="2">
  <advance width="723"/>
  <unicode hex="0145"/>
  <outline>
    <contour>
      <point x="84" y="0" type="line"/>
      <point x="169" y="0" type="line"/>
      <point x="169" y="545" type="line"/>
      <point x="522" y="0" type="line"/>
      <point x="639" y="0" type="line"/>
      <point x="639" y="649" type="line"/>
      <point x="554" y="649" type="line"/>
      <point x="554" y="113" type="line"/>
      <point x="201" y="649" type="line"/>
      <point x="84" y="649" type="line"/>
    </contour>
    <contour>
      <point x="287" y="-190" type="line"/>
      <point x="351" y="-190" type="line"/>
      <point x="434" y="-40" type="line"/>
      <point x="333" y="-40" type="line"/>
    </contour>
  </outline>
</glyph>
<glyph name="ncommaaccent" format="2">
  <advance width="573"/>
  <unicode hex="0146"/>
  <outline>
    <contour>
      <point x="78" y="0" type="line"/>
      <point x="168" y="0" type="line"/>
      <point x="168" y="350" type="line" smooth="yes"/>
      <point x="168" y="411"/>
      <point x="196" y="430"/>
      <point x="301" y="430" type="curve" smooth="yes"/>
      <point x="346" y="430"/>
      <point x="377" y="421"/>
      <point x="390" y="405" type="curve"/>
      <point x="402" y="388"/>
      <point x="405" y="374"/>
      <point x="405" y="350" type="curve" smooth="yes"/>
      <point x="405" y="0" type="line"/>
      <point x="495" y="0" type="line"/>
      <point x="495" y="355" type="line"/>
      <point x="495" y="448"/>
      <point x="455" y="494"/>
      <point x="327" y="494" type="curve" smooth="yes"/>
      <point x="230" y="494"/>
      <point x="177" y="471"/>
      <point x="168" y="425" type="curve"/>
      <point x="168" y="484" type="line"/>
      <point x="78" y="484" type="line"/>
    </contour>
    <contour>
      <point x="204" y="-190" type="line"/>
      <point x="261" y="-190" type="line"/>
      <point x="344" y="-40" type="line"/>
      <point x="250" y="-40" type="line"/>
    </contour>
  </outline>
</glyph>
<glyph name="Ncaron" format="2">
  <advance width="723"/>
  <unicode hex="0147"/>
  <outline>
    <contour>
      <point x="84" y="0" type="line"/>
      <point x="169" y="0" type="line"/>
      <point x="169" y="545" type="line"/>
      <point x="522" y="0" type="line"/>
      <point x="639" y="0" type="line"/>
      <point x="639" y="649" type="line"/>
      <point x="554" y="649" type="line"/>
      <point x="554" y="113" type="line"/>
      <point x="201" y="649" type="line"/>
      <point x="84" y="649" type="line"/>
    </contour>
    <contour>
      <point x="326" y="703" type="line"/>
      <point x="433" y="703" type="line"/>
      <point x="499" y="830" type="line"/>
      <point x="441" y="830" type="line"/>
      <point x="379" y="743" type="line"/>
      <point x="316" y="830" type="line"/>
      <point x="258" y="830" type="line"/>
    </contour>
  </outline>
</glyph>
<glyph name="napostrophe" format="2">
  <advance width="573"/>
  <unicode hex="0149"/>
  <outline>
    <contour>
      <point x="78" y="0" type="line"/>
      <point x="168" y="0" type="line"/>
      <point x="168" y="350" type="line" smooth="yes"/>
      <point x="168" y="411"/>
      <point x="196" y="430"/>
      <point x="301" y="430" type="curve" smooth="yes"/>
      <point x="346" y="430"/>
      <point x="377" y="421"/>
      <point x="390" y="405" type="curve"/>
      <point x="402" y="388"/>
      <point x="405" y="374"/>
      <point x="405" y="350" type="curve" smooth="yes"/>
      <point x="405" y="0" type="line"/>
      <point x="495" y="0" type="line"/>
      <point x="495" y="355" type="line"/>
      <point x="495" y="448"/>
      <point x="455" y="494"/>
      <point x="327" y="494" type="curve" smooth="yes"/>
      <point x="230" y="494"/>
      <point x="177" y="471"/>
      <point x="168" y="425" type="curve"/>
      <point x="168" y="484" type="line"/>
      <point x="78" y="484" type="line"/>
    </contour>
    <contour>
      <point x="88" y="539" type="line"/>
      <point x="146" y="539" type="line"/>
      <point x="221" y="679" type="line"/>
      <point x="124" y="679" type="line"/>
    </contour>
  </outline>
</glyph>
<glyph name="Eng" format="2">
  <advance width="723"/>
  <unicode hex="014A"/>
  <outline>
    <contour>
      <point x="455" y="-190" type="line"/>
      <point x="481" y="-190" type="line" smooth="yes"/>
      <point x="606" y="-190"/>
      <point x="639" y="-140"/>
      <point x="639" y="-41" type="curve" smooth="yes"/>
      <point x="639" y="649" type="line"/>
      <point x="554" y="649" type="line"/>
      <point x="554" y="113" type="line"/>
      <point x="201" y="649" type="line"/>
      <point x="84" y="649" type="line"/>
      <point x="84" y="0" type="line"/>
      <point x="169" y="0" type="line"/>
      <point x="169" y="545" type="line"/>
      <point x="550" y="-36" type="line"/>
      <point x="550" y="-88"/>
      <point x="531" y="-126"/>
      <point x="455" y="-126" type="curve"/>
    </contour>
  </outline>
</glyph>
